<mxfile host="app.diagrams.net" modified="2021-01-16T10:29:29.494Z" agent="5.0 (Macintosh; Intel Mac OS X 10_15_6) AppleWebKit/537.36 (KHTML, like Gecko) Chrome/86.0.4240.193 Safari/537.36" etag="C0npm-GH_UZaVFQsJL4y" version="14.1.9" type="github">
  <diagram id="saQIS5xSv2mk-2oBWEnZ" name="Page-1">
    <mxGraphModel dx="946" dy="1705" grid="1" gridSize="10" guides="1" tooltips="1" connect="1" arrows="1" fold="1" page="1" pageScale="1" pageWidth="827" pageHeight="1169" math="0" shadow="0">
      <root>
        <mxCell id="0" />
        <mxCell id="1" parent="0" />
        <mxCell id="a-tTStyMwiT4IHlMWAO0-1" value="" style="shape=table;html=1;whiteSpace=wrap;startSize=0;container=1;collapsible=0;childLayout=tableLayout;sketch=0;" vertex="1" parent="1">
          <mxGeometry x="220" y="120" width="90" height="120" as="geometry" />
        </mxCell>
        <mxCell id="a-tTStyMwiT4IHlMWAO0-2" style="shape=partialRectangle;html=1;whiteSpace=wrap;collapsible=0;dropTarget=0;pointerEvents=0;fillColor=none;top=0;left=0;bottom=0;right=0;points=[[0,0.5],[1,0.5]];portConstraint=eastwest;" vertex="1" parent="a-tTStyMwiT4IHlMWAO0-1">
          <mxGeometry width="90" height="40" as="geometry" />
        </mxCell>
        <mxCell id="a-tTStyMwiT4IHlMWAO0-3" value="dict" style="shape=partialRectangle;html=1;whiteSpace=wrap;connectable=0;fillColor=#fff2cc;top=0;left=0;bottom=0;right=0;overflow=hidden;strokeColor=#d6b656;" vertex="1" parent="a-tTStyMwiT4IHlMWAO0-2">
          <mxGeometry width="90" height="40" as="geometry" />
        </mxCell>
        <mxCell id="a-tTStyMwiT4IHlMWAO0-4" style="shape=partialRectangle;html=1;whiteSpace=wrap;collapsible=0;dropTarget=0;pointerEvents=0;fillColor=none;top=0;left=0;bottom=0;right=0;points=[[0,0.5],[1,0.5]];portConstraint=eastwest;" vertex="1" parent="a-tTStyMwiT4IHlMWAO0-1">
          <mxGeometry y="40" width="90" height="40" as="geometry" />
        </mxCell>
        <mxCell id="a-tTStyMwiT4IHlMWAO0-5" value="ht" style="shape=partialRectangle;html=1;whiteSpace=wrap;connectable=0;fillColor=none;top=0;left=0;bottom=0;right=0;overflow=hidden;" vertex="1" parent="a-tTStyMwiT4IHlMWAO0-4">
          <mxGeometry width="90" height="40" as="geometry" />
        </mxCell>
        <mxCell id="a-tTStyMwiT4IHlMWAO0-6" style="shape=partialRectangle;html=1;whiteSpace=wrap;collapsible=0;dropTarget=0;pointerEvents=0;fillColor=none;top=0;left=0;bottom=0;right=0;points=[[0,0.5],[1,0.5]];portConstraint=eastwest;" vertex="1" parent="a-tTStyMwiT4IHlMWAO0-1">
          <mxGeometry y="80" width="90" height="40" as="geometry" />
        </mxCell>
        <mxCell id="a-tTStyMwiT4IHlMWAO0-7" value="rehashindex&lt;br&gt;-1" style="shape=partialRectangle;html=1;whiteSpace=wrap;connectable=0;fillColor=none;top=0;left=0;bottom=0;right=0;overflow=hidden;" vertex="1" parent="a-tTStyMwiT4IHlMWAO0-6">
          <mxGeometry width="90" height="40" as="geometry" />
        </mxCell>
        <mxCell id="a-tTStyMwiT4IHlMWAO0-16" value="" style="shape=table;html=1;whiteSpace=wrap;startSize=0;container=1;collapsible=0;childLayout=tableLayout;sketch=0;" vertex="1" parent="1">
          <mxGeometry x="390" y="30" width="90" height="200" as="geometry" />
        </mxCell>
        <mxCell id="a-tTStyMwiT4IHlMWAO0-17" style="shape=partialRectangle;html=1;whiteSpace=wrap;collapsible=0;dropTarget=0;pointerEvents=0;fillColor=none;top=0;left=0;bottom=0;right=0;points=[[0,0.5],[1,0.5]];portConstraint=eastwest;" vertex="1" parent="a-tTStyMwiT4IHlMWAO0-16">
          <mxGeometry width="90" height="40" as="geometry" />
        </mxCell>
        <mxCell id="a-tTStyMwiT4IHlMWAO0-18" value="dictht" style="shape=partialRectangle;html=1;whiteSpace=wrap;connectable=0;fillColor=#fff2cc;top=0;left=0;bottom=0;right=0;overflow=hidden;strokeColor=#d6b656;" vertex="1" parent="a-tTStyMwiT4IHlMWAO0-17">
          <mxGeometry width="90" height="40" as="geometry" />
        </mxCell>
        <mxCell id="a-tTStyMwiT4IHlMWAO0-19" style="shape=partialRectangle;html=1;whiteSpace=wrap;collapsible=0;dropTarget=0;pointerEvents=0;fillColor=none;top=0;left=0;bottom=0;right=0;points=[[0,0.5],[1,0.5]];portConstraint=eastwest;" vertex="1" parent="a-tTStyMwiT4IHlMWAO0-16">
          <mxGeometry y="40" width="90" height="40" as="geometry" />
        </mxCell>
        <mxCell id="a-tTStyMwiT4IHlMWAO0-20" value="table" style="shape=partialRectangle;html=1;whiteSpace=wrap;connectable=0;fillColor=none;top=0;left=0;bottom=0;right=0;overflow=hidden;" vertex="1" parent="a-tTStyMwiT4IHlMWAO0-19">
          <mxGeometry width="90" height="40" as="geometry" />
        </mxCell>
        <mxCell id="a-tTStyMwiT4IHlMWAO0-21" style="shape=partialRectangle;html=1;whiteSpace=wrap;collapsible=0;dropTarget=0;pointerEvents=0;fillColor=none;top=0;left=0;bottom=0;right=0;points=[[0,0.5],[1,0.5]];portConstraint=eastwest;" vertex="1" parent="a-tTStyMwiT4IHlMWAO0-16">
          <mxGeometry y="80" width="90" height="40" as="geometry" />
        </mxCell>
        <mxCell id="a-tTStyMwiT4IHlMWAO0-22" value="size&lt;br&gt;4" style="shape=partialRectangle;html=1;whiteSpace=wrap;connectable=0;fillColor=none;top=0;left=0;bottom=0;right=0;overflow=hidden;" vertex="1" parent="a-tTStyMwiT4IHlMWAO0-21">
          <mxGeometry width="90" height="40" as="geometry" />
        </mxCell>
        <mxCell id="a-tTStyMwiT4IHlMWAO0-27" style="shape=partialRectangle;html=1;whiteSpace=wrap;collapsible=0;dropTarget=0;pointerEvents=0;fillColor=none;top=0;left=0;bottom=0;right=0;points=[[0,0.5],[1,0.5]];portConstraint=eastwest;" vertex="1" parent="a-tTStyMwiT4IHlMWAO0-16">
          <mxGeometry y="120" width="90" height="40" as="geometry" />
        </mxCell>
        <mxCell id="a-tTStyMwiT4IHlMWAO0-28" value="sizemask&lt;br&gt;3" style="shape=partialRectangle;html=1;whiteSpace=wrap;connectable=0;fillColor=none;top=0;left=0;bottom=0;right=0;overflow=hidden;" vertex="1" parent="a-tTStyMwiT4IHlMWAO0-27">
          <mxGeometry width="90" height="40" as="geometry" />
        </mxCell>
        <mxCell id="a-tTStyMwiT4IHlMWAO0-29" style="shape=partialRectangle;html=1;whiteSpace=wrap;collapsible=0;dropTarget=0;pointerEvents=0;fillColor=none;top=0;left=0;bottom=0;right=0;points=[[0,0.5],[1,0.5]];portConstraint=eastwest;" vertex="1" parent="a-tTStyMwiT4IHlMWAO0-16">
          <mxGeometry y="160" width="90" height="40" as="geometry" />
        </mxCell>
        <mxCell id="a-tTStyMwiT4IHlMWAO0-30" value="used&lt;br&gt;4" style="shape=partialRectangle;html=1;whiteSpace=wrap;connectable=0;fillColor=none;top=0;left=0;bottom=0;right=0;overflow=hidden;" vertex="1" parent="a-tTStyMwiT4IHlMWAO0-29">
          <mxGeometry width="90" height="40" as="geometry" />
        </mxCell>
        <mxCell id="a-tTStyMwiT4IHlMWAO0-31" value="" style="shape=table;html=1;whiteSpace=wrap;startSize=0;container=1;collapsible=0;childLayout=tableLayout;sketch=0;" vertex="1" parent="1">
          <mxGeometry x="390" y="280" width="90" height="200" as="geometry" />
        </mxCell>
        <mxCell id="a-tTStyMwiT4IHlMWAO0-32" style="shape=partialRectangle;html=1;whiteSpace=wrap;collapsible=0;dropTarget=0;pointerEvents=0;fillColor=none;top=0;left=0;bottom=0;right=0;points=[[0,0.5],[1,0.5]];portConstraint=eastwest;" vertex="1" parent="a-tTStyMwiT4IHlMWAO0-31">
          <mxGeometry width="90" height="40" as="geometry" />
        </mxCell>
        <mxCell id="a-tTStyMwiT4IHlMWAO0-33" value="dictht" style="shape=partialRectangle;html=1;whiteSpace=wrap;connectable=0;fillColor=#fff2cc;top=0;left=0;bottom=0;right=0;overflow=hidden;strokeColor=#d6b656;" vertex="1" parent="a-tTStyMwiT4IHlMWAO0-32">
          <mxGeometry width="90" height="40" as="geometry" />
        </mxCell>
        <mxCell id="a-tTStyMwiT4IHlMWAO0-34" style="shape=partialRectangle;html=1;whiteSpace=wrap;collapsible=0;dropTarget=0;pointerEvents=0;fillColor=none;top=0;left=0;bottom=0;right=0;points=[[0,0.5],[1,0.5]];portConstraint=eastwest;" vertex="1" parent="a-tTStyMwiT4IHlMWAO0-31">
          <mxGeometry y="40" width="90" height="40" as="geometry" />
        </mxCell>
        <mxCell id="a-tTStyMwiT4IHlMWAO0-35" value="table" style="shape=partialRectangle;html=1;whiteSpace=wrap;connectable=0;fillColor=none;top=0;left=0;bottom=0;right=0;overflow=hidden;" vertex="1" parent="a-tTStyMwiT4IHlMWAO0-34">
          <mxGeometry width="90" height="40" as="geometry" />
        </mxCell>
        <mxCell id="a-tTStyMwiT4IHlMWAO0-36" style="shape=partialRectangle;html=1;whiteSpace=wrap;collapsible=0;dropTarget=0;pointerEvents=0;fillColor=none;top=0;left=0;bottom=0;right=0;points=[[0,0.5],[1,0.5]];portConstraint=eastwest;" vertex="1" parent="a-tTStyMwiT4IHlMWAO0-31">
          <mxGeometry y="80" width="90" height="40" as="geometry" />
        </mxCell>
        <mxCell id="a-tTStyMwiT4IHlMWAO0-37" value="size&lt;br&gt;8" style="shape=partialRectangle;html=1;whiteSpace=wrap;connectable=0;fillColor=none;top=0;left=0;bottom=0;right=0;overflow=hidden;" vertex="1" parent="a-tTStyMwiT4IHlMWAO0-36">
          <mxGeometry width="90" height="40" as="geometry" />
        </mxCell>
        <mxCell id="a-tTStyMwiT4IHlMWAO0-38" style="shape=partialRectangle;html=1;whiteSpace=wrap;collapsible=0;dropTarget=0;pointerEvents=0;fillColor=none;top=0;left=0;bottom=0;right=0;points=[[0,0.5],[1,0.5]];portConstraint=eastwest;" vertex="1" parent="a-tTStyMwiT4IHlMWAO0-31">
          <mxGeometry y="120" width="90" height="40" as="geometry" />
        </mxCell>
        <mxCell id="a-tTStyMwiT4IHlMWAO0-39" value="sizemask&lt;br&gt;7" style="shape=partialRectangle;html=1;whiteSpace=wrap;connectable=0;fillColor=none;top=0;left=0;bottom=0;right=0;overflow=hidden;" vertex="1" parent="a-tTStyMwiT4IHlMWAO0-38">
          <mxGeometry width="90" height="40" as="geometry" />
        </mxCell>
        <mxCell id="a-tTStyMwiT4IHlMWAO0-40" style="shape=partialRectangle;html=1;whiteSpace=wrap;collapsible=0;dropTarget=0;pointerEvents=0;fillColor=none;top=0;left=0;bottom=0;right=0;points=[[0,0.5],[1,0.5]];portConstraint=eastwest;" vertex="1" parent="a-tTStyMwiT4IHlMWAO0-31">
          <mxGeometry y="160" width="90" height="40" as="geometry" />
        </mxCell>
        <mxCell id="a-tTStyMwiT4IHlMWAO0-41" value="used&lt;br&gt;0" style="shape=partialRectangle;html=1;whiteSpace=wrap;connectable=0;fillColor=none;top=0;left=0;bottom=0;right=0;overflow=hidden;" vertex="1" parent="a-tTStyMwiT4IHlMWAO0-40">
          <mxGeometry width="90" height="40" as="geometry" />
        </mxCell>
        <mxCell id="a-tTStyMwiT4IHlMWAO0-42" style="rounded=0;orthogonalLoop=1;jettySize=auto;html=1;exitX=1;exitY=0.5;exitDx=0;exitDy=0;entryX=0;entryY=0.5;entryDx=0;entryDy=0;" edge="1" parent="1" source="a-tTStyMwiT4IHlMWAO0-4" target="a-tTStyMwiT4IHlMWAO0-17">
          <mxGeometry relative="1" as="geometry" />
        </mxCell>
        <mxCell id="a-tTStyMwiT4IHlMWAO0-43" style="edgeStyle=none;rounded=0;orthogonalLoop=1;jettySize=auto;html=1;exitX=1;exitY=0.5;exitDx=0;exitDy=0;entryX=0;entryY=0.5;entryDx=0;entryDy=0;" edge="1" parent="1" source="a-tTStyMwiT4IHlMWAO0-4" target="a-tTStyMwiT4IHlMWAO0-32">
          <mxGeometry relative="1" as="geometry" />
        </mxCell>
        <mxCell id="a-tTStyMwiT4IHlMWAO0-44" value="ht[0]" style="text;html=1;strokeColor=none;fillColor=none;align=center;verticalAlign=middle;whiteSpace=wrap;rounded=0;" vertex="1" parent="1">
          <mxGeometry x="300" y="70" width="40" height="20" as="geometry" />
        </mxCell>
        <mxCell id="a-tTStyMwiT4IHlMWAO0-45" value="ht[1]" style="text;html=1;strokeColor=none;fillColor=none;align=center;verticalAlign=middle;whiteSpace=wrap;rounded=0;" vertex="1" parent="1">
          <mxGeometry x="310" y="260" width="40" height="20" as="geometry" />
        </mxCell>
        <mxCell id="a-tTStyMwiT4IHlMWAO0-46" value="" style="shape=table;html=1;whiteSpace=wrap;startSize=0;container=1;collapsible=0;childLayout=tableLayout;sketch=0;" vertex="1" parent="1">
          <mxGeometry x="540" y="30" width="90" height="200" as="geometry" />
        </mxCell>
        <mxCell id="a-tTStyMwiT4IHlMWAO0-47" style="shape=partialRectangle;html=1;whiteSpace=wrap;collapsible=0;dropTarget=0;pointerEvents=0;fillColor=none;top=0;left=0;bottom=0;right=0;points=[[0,0.5],[1,0.5]];portConstraint=eastwest;" vertex="1" parent="a-tTStyMwiT4IHlMWAO0-46">
          <mxGeometry width="90" height="40" as="geometry" />
        </mxCell>
        <mxCell id="a-tTStyMwiT4IHlMWAO0-48" value="dictEntry*[4]" style="shape=partialRectangle;html=1;whiteSpace=wrap;connectable=0;fillColor=#fff2cc;top=0;left=0;bottom=0;right=0;overflow=hidden;strokeColor=#d6b656;" vertex="1" parent="a-tTStyMwiT4IHlMWAO0-47">
          <mxGeometry width="90" height="40" as="geometry" />
        </mxCell>
        <mxCell id="a-tTStyMwiT4IHlMWAO0-49" style="shape=partialRectangle;html=1;whiteSpace=wrap;collapsible=0;dropTarget=0;pointerEvents=0;fillColor=none;top=0;left=0;bottom=0;right=0;points=[[0,0.5],[1,0.5]];portConstraint=eastwest;" vertex="1" parent="a-tTStyMwiT4IHlMWAO0-46">
          <mxGeometry y="40" width="90" height="40" as="geometry" />
        </mxCell>
        <mxCell id="a-tTStyMwiT4IHlMWAO0-50" value="0" style="shape=partialRectangle;html=1;whiteSpace=wrap;connectable=0;fillColor=none;top=0;left=0;bottom=0;right=0;overflow=hidden;" vertex="1" parent="a-tTStyMwiT4IHlMWAO0-49">
          <mxGeometry width="90" height="40" as="geometry" />
        </mxCell>
        <mxCell id="a-tTStyMwiT4IHlMWAO0-51" style="shape=partialRectangle;html=1;whiteSpace=wrap;collapsible=0;dropTarget=0;pointerEvents=0;fillColor=none;top=0;left=0;bottom=0;right=0;points=[[0,0.5],[1,0.5]];portConstraint=eastwest;" vertex="1" parent="a-tTStyMwiT4IHlMWAO0-46">
          <mxGeometry y="80" width="90" height="40" as="geometry" />
        </mxCell>
        <mxCell id="a-tTStyMwiT4IHlMWAO0-52" value="1" style="shape=partialRectangle;html=1;whiteSpace=wrap;connectable=0;fillColor=none;top=0;left=0;bottom=0;right=0;overflow=hidden;" vertex="1" parent="a-tTStyMwiT4IHlMWAO0-51">
          <mxGeometry width="90" height="40" as="geometry" />
        </mxCell>
        <mxCell id="a-tTStyMwiT4IHlMWAO0-53" style="shape=partialRectangle;html=1;whiteSpace=wrap;collapsible=0;dropTarget=0;pointerEvents=0;fillColor=none;top=0;left=0;bottom=0;right=0;points=[[0,0.5],[1,0.5]];portConstraint=eastwest;" vertex="1" parent="a-tTStyMwiT4IHlMWAO0-46">
          <mxGeometry y="120" width="90" height="40" as="geometry" />
        </mxCell>
        <mxCell id="a-tTStyMwiT4IHlMWAO0-54" value="2" style="shape=partialRectangle;html=1;whiteSpace=wrap;connectable=0;fillColor=none;top=0;left=0;bottom=0;right=0;overflow=hidden;" vertex="1" parent="a-tTStyMwiT4IHlMWAO0-53">
          <mxGeometry width="90" height="40" as="geometry" />
        </mxCell>
        <mxCell id="a-tTStyMwiT4IHlMWAO0-55" style="shape=partialRectangle;html=1;whiteSpace=wrap;collapsible=0;dropTarget=0;pointerEvents=0;fillColor=none;top=0;left=0;bottom=0;right=0;points=[[0,0.5],[1,0.5]];portConstraint=eastwest;" vertex="1" parent="a-tTStyMwiT4IHlMWAO0-46">
          <mxGeometry y="160" width="90" height="40" as="geometry" />
        </mxCell>
        <mxCell id="a-tTStyMwiT4IHlMWAO0-56" value="3" style="shape=partialRectangle;html=1;whiteSpace=wrap;connectable=0;fillColor=none;top=0;left=0;bottom=0;right=0;overflow=hidden;" vertex="1" parent="a-tTStyMwiT4IHlMWAO0-55">
          <mxGeometry width="90" height="40" as="geometry" />
        </mxCell>
        <mxCell id="a-tTStyMwiT4IHlMWAO0-66" value="&lt;span&gt;dictEntry&lt;/span&gt;" style="rounded=0;whiteSpace=wrap;html=1;" vertex="1" parent="1">
          <mxGeometry x="700" y="50" width="80" height="30" as="geometry" />
        </mxCell>
        <mxCell id="a-tTStyMwiT4IHlMWAO0-67" value="k0" style="rounded=0;whiteSpace=wrap;html=1;" vertex="1" parent="1">
          <mxGeometry x="700" y="80" width="40" height="20" as="geometry" />
        </mxCell>
        <mxCell id="a-tTStyMwiT4IHlMWAO0-68" value="v0" style="rounded=0;whiteSpace=wrap;html=1;" vertex="1" parent="1">
          <mxGeometry x="740" y="80" width="40" height="20" as="geometry" />
        </mxCell>
        <mxCell id="a-tTStyMwiT4IHlMWAO0-69" value="&lt;span&gt;dictEntry&lt;/span&gt;" style="rounded=0;whiteSpace=wrap;html=1;" vertex="1" parent="1">
          <mxGeometry x="700" y="-30" width="80" height="30" as="geometry" />
        </mxCell>
        <mxCell id="a-tTStyMwiT4IHlMWAO0-70" value="k0" style="rounded=0;whiteSpace=wrap;html=1;" vertex="1" parent="1">
          <mxGeometry x="700" width="40" height="20" as="geometry" />
        </mxCell>
        <mxCell id="a-tTStyMwiT4IHlMWAO0-71" value="v0" style="rounded=0;whiteSpace=wrap;html=1;" vertex="1" parent="1">
          <mxGeometry x="740" width="40" height="20" as="geometry" />
        </mxCell>
        <mxCell id="a-tTStyMwiT4IHlMWAO0-72" value="&lt;span&gt;dictEntry&lt;/span&gt;" style="rounded=0;whiteSpace=wrap;html=1;" vertex="1" parent="1">
          <mxGeometry x="700" y="130" width="80" height="30" as="geometry" />
        </mxCell>
        <mxCell id="a-tTStyMwiT4IHlMWAO0-73" value="k0" style="rounded=0;whiteSpace=wrap;html=1;" vertex="1" parent="1">
          <mxGeometry x="700" y="160" width="40" height="20" as="geometry" />
        </mxCell>
        <mxCell id="a-tTStyMwiT4IHlMWAO0-74" value="v0" style="rounded=0;whiteSpace=wrap;html=1;" vertex="1" parent="1">
          <mxGeometry x="740" y="160" width="40" height="20" as="geometry" />
        </mxCell>
        <mxCell id="a-tTStyMwiT4IHlMWAO0-75" value="&lt;span&gt;dictEntry&lt;/span&gt;" style="rounded=0;whiteSpace=wrap;html=1;" vertex="1" parent="1">
          <mxGeometry x="700" y="210" width="80" height="30" as="geometry" />
        </mxCell>
        <mxCell id="a-tTStyMwiT4IHlMWAO0-76" value="k0" style="rounded=0;whiteSpace=wrap;html=1;" vertex="1" parent="1">
          <mxGeometry x="700" y="240" width="40" height="20" as="geometry" />
        </mxCell>
        <mxCell id="a-tTStyMwiT4IHlMWAO0-77" value="v0" style="rounded=0;whiteSpace=wrap;html=1;" vertex="1" parent="1">
          <mxGeometry x="740" y="240" width="40" height="20" as="geometry" />
        </mxCell>
        <mxCell id="a-tTStyMwiT4IHlMWAO0-78" value="" style="shape=table;html=1;whiteSpace=wrap;startSize=0;container=1;collapsible=0;childLayout=tableLayout;sketch=0;" vertex="1" parent="1">
          <mxGeometry x="530" y="280" width="90" height="200" as="geometry" />
        </mxCell>
        <mxCell id="a-tTStyMwiT4IHlMWAO0-79" style="shape=partialRectangle;html=1;whiteSpace=wrap;collapsible=0;dropTarget=0;pointerEvents=0;fillColor=none;top=0;left=0;bottom=0;right=0;points=[[0,0.5],[1,0.5]];portConstraint=eastwest;" vertex="1" parent="a-tTStyMwiT4IHlMWAO0-78">
          <mxGeometry width="90" height="40" as="geometry" />
        </mxCell>
        <mxCell id="a-tTStyMwiT4IHlMWAO0-80" value="dictEntry*[8]" style="shape=partialRectangle;html=1;whiteSpace=wrap;connectable=0;fillColor=#fff2cc;top=0;left=0;bottom=0;right=0;overflow=hidden;strokeColor=#d6b656;" vertex="1" parent="a-tTStyMwiT4IHlMWAO0-79">
          <mxGeometry width="90" height="40" as="geometry" />
        </mxCell>
        <mxCell id="a-tTStyMwiT4IHlMWAO0-81" style="shape=partialRectangle;html=1;whiteSpace=wrap;collapsible=0;dropTarget=0;pointerEvents=0;fillColor=none;top=0;left=0;bottom=0;right=0;points=[[0,0.5],[1,0.5]];portConstraint=eastwest;" vertex="1" parent="a-tTStyMwiT4IHlMWAO0-78">
          <mxGeometry y="40" width="90" height="40" as="geometry" />
        </mxCell>
        <mxCell id="a-tTStyMwiT4IHlMWAO0-82" value="0" style="shape=partialRectangle;html=1;whiteSpace=wrap;connectable=0;fillColor=none;top=0;left=0;bottom=0;right=0;overflow=hidden;" vertex="1" parent="a-tTStyMwiT4IHlMWAO0-81">
          <mxGeometry width="90" height="40" as="geometry" />
        </mxCell>
        <mxCell id="a-tTStyMwiT4IHlMWAO0-83" style="shape=partialRectangle;html=1;whiteSpace=wrap;collapsible=0;dropTarget=0;pointerEvents=0;fillColor=none;top=0;left=0;bottom=0;right=0;points=[[0,0.5],[1,0.5]];portConstraint=eastwest;" vertex="1" parent="a-tTStyMwiT4IHlMWAO0-78">
          <mxGeometry y="80" width="90" height="40" as="geometry" />
        </mxCell>
        <mxCell id="a-tTStyMwiT4IHlMWAO0-84" value="1" style="shape=partialRectangle;html=1;whiteSpace=wrap;connectable=0;fillColor=none;top=0;left=0;bottom=0;right=0;overflow=hidden;" vertex="1" parent="a-tTStyMwiT4IHlMWAO0-83">
          <mxGeometry width="90" height="40" as="geometry" />
        </mxCell>
        <mxCell id="a-tTStyMwiT4IHlMWAO0-85" style="shape=partialRectangle;html=1;whiteSpace=wrap;collapsible=0;dropTarget=0;pointerEvents=0;fillColor=none;top=0;left=0;bottom=0;right=0;points=[[0,0.5],[1,0.5]];portConstraint=eastwest;" vertex="1" parent="a-tTStyMwiT4IHlMWAO0-78">
          <mxGeometry y="120" width="90" height="40" as="geometry" />
        </mxCell>
        <mxCell id="a-tTStyMwiT4IHlMWAO0-86" value="..." style="shape=partialRectangle;html=1;whiteSpace=wrap;connectable=0;fillColor=none;top=0;left=0;bottom=0;right=0;overflow=hidden;" vertex="1" parent="a-tTStyMwiT4IHlMWAO0-85">
          <mxGeometry width="90" height="40" as="geometry" />
        </mxCell>
        <mxCell id="a-tTStyMwiT4IHlMWAO0-87" style="shape=partialRectangle;html=1;whiteSpace=wrap;collapsible=0;dropTarget=0;pointerEvents=0;fillColor=none;top=0;left=0;bottom=0;right=0;points=[[0,0.5],[1,0.5]];portConstraint=eastwest;" vertex="1" parent="a-tTStyMwiT4IHlMWAO0-78">
          <mxGeometry y="160" width="90" height="40" as="geometry" />
        </mxCell>
        <mxCell id="a-tTStyMwiT4IHlMWAO0-88" value="7" style="shape=partialRectangle;html=1;whiteSpace=wrap;connectable=0;fillColor=none;top=0;left=0;bottom=0;right=0;overflow=hidden;" vertex="1" parent="a-tTStyMwiT4IHlMWAO0-87">
          <mxGeometry width="90" height="40" as="geometry" />
        </mxCell>
        <mxCell id="a-tTStyMwiT4IHlMWAO0-89" style="edgeStyle=none;rounded=0;orthogonalLoop=1;jettySize=auto;html=1;exitX=1;exitY=0.5;exitDx=0;exitDy=0;entryX=0;entryY=0.5;entryDx=0;entryDy=0;" edge="1" parent="1" source="a-tTStyMwiT4IHlMWAO0-19" target="a-tTStyMwiT4IHlMWAO0-47">
          <mxGeometry relative="1" as="geometry" />
        </mxCell>
        <mxCell id="a-tTStyMwiT4IHlMWAO0-90" style="edgeStyle=none;rounded=0;orthogonalLoop=1;jettySize=auto;html=1;exitX=1;exitY=0.5;exitDx=0;exitDy=0;entryX=0;entryY=0.5;entryDx=0;entryDy=0;" edge="1" parent="1" source="a-tTStyMwiT4IHlMWAO0-34" target="a-tTStyMwiT4IHlMWAO0-79">
          <mxGeometry relative="1" as="geometry" />
        </mxCell>
        <mxCell id="a-tTStyMwiT4IHlMWAO0-91" style="edgeStyle=none;rounded=0;orthogonalLoop=1;jettySize=auto;html=1;exitX=1;exitY=0.5;exitDx=0;exitDy=0;entryX=0;entryY=0.5;entryDx=0;entryDy=0;" edge="1" parent="1" source="a-tTStyMwiT4IHlMWAO0-49" target="a-tTStyMwiT4IHlMWAO0-69">
          <mxGeometry relative="1" as="geometry" />
        </mxCell>
        <mxCell id="a-tTStyMwiT4IHlMWAO0-92" style="edgeStyle=none;rounded=0;orthogonalLoop=1;jettySize=auto;html=1;exitX=1;exitY=0.5;exitDx=0;exitDy=0;entryX=0;entryY=0.5;entryDx=0;entryDy=0;" edge="1" parent="1" source="a-tTStyMwiT4IHlMWAO0-51" target="a-tTStyMwiT4IHlMWAO0-66">
          <mxGeometry relative="1" as="geometry" />
        </mxCell>
        <mxCell id="a-tTStyMwiT4IHlMWAO0-93" style="edgeStyle=none;rounded=0;orthogonalLoop=1;jettySize=auto;html=1;exitX=1;exitY=0.5;exitDx=0;exitDy=0;entryX=0;entryY=0.5;entryDx=0;entryDy=0;" edge="1" parent="1" source="a-tTStyMwiT4IHlMWAO0-53" target="a-tTStyMwiT4IHlMWAO0-72">
          <mxGeometry relative="1" as="geometry" />
        </mxCell>
        <mxCell id="a-tTStyMwiT4IHlMWAO0-94" style="edgeStyle=none;rounded=0;orthogonalLoop=1;jettySize=auto;html=1;exitX=1;exitY=0.5;exitDx=0;exitDy=0;entryX=0;entryY=0.5;entryDx=0;entryDy=0;" edge="1" parent="1" source="a-tTStyMwiT4IHlMWAO0-55" target="a-tTStyMwiT4IHlMWAO0-75">
          <mxGeometry relative="1" as="geometry" />
        </mxCell>
        <mxCell id="a-tTStyMwiT4IHlMWAO0-114" value="&lt;font style=&quot;font-size: 14px&quot;&gt;rehash 0 上的键值对&lt;/font&gt;" style="text;html=1;strokeColor=none;fillColor=none;align=center;verticalAlign=middle;whiteSpace=wrap;rounded=0;" vertex="1" parent="1">
          <mxGeometry x="360" y="540" width="240" height="30" as="geometry" />
        </mxCell>
        <mxCell id="a-tTStyMwiT4IHlMWAO0-116" value="" style="shape=table;html=1;whiteSpace=wrap;startSize=0;container=1;collapsible=0;childLayout=tableLayout;sketch=0;" vertex="1" parent="1">
          <mxGeometry x="180" y="745" width="90" height="120" as="geometry" />
        </mxCell>
        <mxCell id="a-tTStyMwiT4IHlMWAO0-117" style="shape=partialRectangle;html=1;whiteSpace=wrap;collapsible=0;dropTarget=0;pointerEvents=0;fillColor=none;top=0;left=0;bottom=0;right=0;points=[[0,0.5],[1,0.5]];portConstraint=eastwest;" vertex="1" parent="a-tTStyMwiT4IHlMWAO0-116">
          <mxGeometry width="90" height="40" as="geometry" />
        </mxCell>
        <mxCell id="a-tTStyMwiT4IHlMWAO0-118" value="dict" style="shape=partialRectangle;html=1;whiteSpace=wrap;connectable=0;fillColor=#fff2cc;top=0;left=0;bottom=0;right=0;overflow=hidden;strokeColor=#d6b656;" vertex="1" parent="a-tTStyMwiT4IHlMWAO0-117">
          <mxGeometry width="90" height="40" as="geometry" />
        </mxCell>
        <mxCell id="a-tTStyMwiT4IHlMWAO0-119" style="shape=partialRectangle;html=1;whiteSpace=wrap;collapsible=0;dropTarget=0;pointerEvents=0;fillColor=none;top=0;left=0;bottom=0;right=0;points=[[0,0.5],[1,0.5]];portConstraint=eastwest;" vertex="1" parent="a-tTStyMwiT4IHlMWAO0-116">
          <mxGeometry y="40" width="90" height="40" as="geometry" />
        </mxCell>
        <mxCell id="a-tTStyMwiT4IHlMWAO0-120" value="ht" style="shape=partialRectangle;html=1;whiteSpace=wrap;connectable=0;fillColor=none;top=0;left=0;bottom=0;right=0;overflow=hidden;" vertex="1" parent="a-tTStyMwiT4IHlMWAO0-119">
          <mxGeometry width="90" height="40" as="geometry" />
        </mxCell>
        <mxCell id="a-tTStyMwiT4IHlMWAO0-121" style="shape=partialRectangle;html=1;whiteSpace=wrap;collapsible=0;dropTarget=0;pointerEvents=0;fillColor=none;top=0;left=0;bottom=0;right=0;points=[[0,0.5],[1,0.5]];portConstraint=eastwest;" vertex="1" parent="a-tTStyMwiT4IHlMWAO0-116">
          <mxGeometry y="80" width="90" height="40" as="geometry" />
        </mxCell>
        <mxCell id="a-tTStyMwiT4IHlMWAO0-122" value="rehashindex&lt;br&gt;0" style="shape=partialRectangle;html=1;whiteSpace=wrap;connectable=0;fillColor=none;top=0;left=0;bottom=0;right=0;overflow=hidden;" vertex="1" parent="a-tTStyMwiT4IHlMWAO0-121">
          <mxGeometry width="90" height="40" as="geometry" />
        </mxCell>
        <mxCell id="a-tTStyMwiT4IHlMWAO0-123" value="" style="shape=table;html=1;whiteSpace=wrap;startSize=0;container=1;collapsible=0;childLayout=tableLayout;sketch=0;" vertex="1" parent="1">
          <mxGeometry x="350" y="655" width="90" height="200" as="geometry" />
        </mxCell>
        <mxCell id="a-tTStyMwiT4IHlMWAO0-124" style="shape=partialRectangle;html=1;whiteSpace=wrap;collapsible=0;dropTarget=0;pointerEvents=0;fillColor=none;top=0;left=0;bottom=0;right=0;points=[[0,0.5],[1,0.5]];portConstraint=eastwest;" vertex="1" parent="a-tTStyMwiT4IHlMWAO0-123">
          <mxGeometry width="90" height="40" as="geometry" />
        </mxCell>
        <mxCell id="a-tTStyMwiT4IHlMWAO0-125" value="dictht" style="shape=partialRectangle;html=1;whiteSpace=wrap;connectable=0;fillColor=#fff2cc;top=0;left=0;bottom=0;right=0;overflow=hidden;strokeColor=#d6b656;" vertex="1" parent="a-tTStyMwiT4IHlMWAO0-124">
          <mxGeometry width="90" height="40" as="geometry" />
        </mxCell>
        <mxCell id="a-tTStyMwiT4IHlMWAO0-126" style="shape=partialRectangle;html=1;whiteSpace=wrap;collapsible=0;dropTarget=0;pointerEvents=0;fillColor=none;top=0;left=0;bottom=0;right=0;points=[[0,0.5],[1,0.5]];portConstraint=eastwest;" vertex="1" parent="a-tTStyMwiT4IHlMWAO0-123">
          <mxGeometry y="40" width="90" height="40" as="geometry" />
        </mxCell>
        <mxCell id="a-tTStyMwiT4IHlMWAO0-127" value="table" style="shape=partialRectangle;html=1;whiteSpace=wrap;connectable=0;fillColor=none;top=0;left=0;bottom=0;right=0;overflow=hidden;" vertex="1" parent="a-tTStyMwiT4IHlMWAO0-126">
          <mxGeometry width="90" height="40" as="geometry" />
        </mxCell>
        <mxCell id="a-tTStyMwiT4IHlMWAO0-128" style="shape=partialRectangle;html=1;whiteSpace=wrap;collapsible=0;dropTarget=0;pointerEvents=0;fillColor=none;top=0;left=0;bottom=0;right=0;points=[[0,0.5],[1,0.5]];portConstraint=eastwest;" vertex="1" parent="a-tTStyMwiT4IHlMWAO0-123">
          <mxGeometry y="80" width="90" height="40" as="geometry" />
        </mxCell>
        <mxCell id="a-tTStyMwiT4IHlMWAO0-129" value="size&lt;br&gt;4" style="shape=partialRectangle;html=1;whiteSpace=wrap;connectable=0;fillColor=none;top=0;left=0;bottom=0;right=0;overflow=hidden;" vertex="1" parent="a-tTStyMwiT4IHlMWAO0-128">
          <mxGeometry width="90" height="40" as="geometry" />
        </mxCell>
        <mxCell id="a-tTStyMwiT4IHlMWAO0-130" style="shape=partialRectangle;html=1;whiteSpace=wrap;collapsible=0;dropTarget=0;pointerEvents=0;fillColor=none;top=0;left=0;bottom=0;right=0;points=[[0,0.5],[1,0.5]];portConstraint=eastwest;" vertex="1" parent="a-tTStyMwiT4IHlMWAO0-123">
          <mxGeometry y="120" width="90" height="40" as="geometry" />
        </mxCell>
        <mxCell id="a-tTStyMwiT4IHlMWAO0-131" value="sizemask&lt;br&gt;3" style="shape=partialRectangle;html=1;whiteSpace=wrap;connectable=0;fillColor=none;top=0;left=0;bottom=0;right=0;overflow=hidden;" vertex="1" parent="a-tTStyMwiT4IHlMWAO0-130">
          <mxGeometry width="90" height="40" as="geometry" />
        </mxCell>
        <mxCell id="a-tTStyMwiT4IHlMWAO0-132" style="shape=partialRectangle;html=1;whiteSpace=wrap;collapsible=0;dropTarget=0;pointerEvents=0;fillColor=none;top=0;left=0;bottom=0;right=0;points=[[0,0.5],[1,0.5]];portConstraint=eastwest;" vertex="1" parent="a-tTStyMwiT4IHlMWAO0-123">
          <mxGeometry y="160" width="90" height="40" as="geometry" />
        </mxCell>
        <mxCell id="a-tTStyMwiT4IHlMWAO0-133" value="used&lt;br&gt;3" style="shape=partialRectangle;html=1;whiteSpace=wrap;connectable=0;fillColor=none;top=0;left=0;bottom=0;right=0;overflow=hidden;" vertex="1" parent="a-tTStyMwiT4IHlMWAO0-132">
          <mxGeometry width="90" height="40" as="geometry" />
        </mxCell>
        <mxCell id="a-tTStyMwiT4IHlMWAO0-134" style="shape=partialRectangle;html=1;whiteSpace=wrap;collapsible=0;dropTarget=0;pointerEvents=0;fillColor=none;top=0;left=0;bottom=0;right=0;points=[[0,0.5],[1,0.5]];portConstraint=eastwest;" vertex="1" parent="1">
          <mxGeometry x="350" y="905" width="90" height="40" as="geometry" />
        </mxCell>
        <mxCell id="a-tTStyMwiT4IHlMWAO0-135" value="dictht" style="shape=partialRectangle;html=1;whiteSpace=wrap;connectable=0;fillColor=#fff2cc;top=0;left=0;bottom=0;right=0;overflow=hidden;strokeColor=#d6b656;" vertex="1" parent="a-tTStyMwiT4IHlMWAO0-134">
          <mxGeometry width="90" height="40" as="geometry" />
        </mxCell>
        <mxCell id="a-tTStyMwiT4IHlMWAO0-136" style="shape=partialRectangle;html=1;whiteSpace=wrap;collapsible=0;dropTarget=0;pointerEvents=0;fillColor=none;top=0;left=0;bottom=0;right=0;points=[[0,0.5],[1,0.5]];portConstraint=eastwest;" vertex="1" parent="1">
          <mxGeometry x="350" y="945" width="90" height="40" as="geometry" />
        </mxCell>
        <mxCell id="a-tTStyMwiT4IHlMWAO0-137" value="table" style="shape=partialRectangle;html=1;whiteSpace=wrap;connectable=0;fillColor=none;top=0;left=0;bottom=0;right=0;overflow=hidden;" vertex="1" parent="a-tTStyMwiT4IHlMWAO0-136">
          <mxGeometry width="90" height="40" as="geometry" />
        </mxCell>
        <mxCell id="a-tTStyMwiT4IHlMWAO0-138" style="shape=partialRectangle;html=1;whiteSpace=wrap;collapsible=0;dropTarget=0;pointerEvents=0;fillColor=none;top=0;left=0;bottom=0;right=0;points=[[0,0.5],[1,0.5]];portConstraint=eastwest;" vertex="1" parent="1">
          <mxGeometry x="350" y="985" width="90" height="40" as="geometry" />
        </mxCell>
        <mxCell id="a-tTStyMwiT4IHlMWAO0-139" value="size&lt;br&gt;8" style="shape=partialRectangle;html=1;whiteSpace=wrap;connectable=0;fillColor=none;top=0;left=0;bottom=0;right=0;overflow=hidden;" vertex="1" parent="a-tTStyMwiT4IHlMWAO0-138">
          <mxGeometry width="90" height="40" as="geometry" />
        </mxCell>
        <mxCell id="a-tTStyMwiT4IHlMWAO0-140" style="shape=partialRectangle;html=1;whiteSpace=wrap;collapsible=0;dropTarget=0;pointerEvents=0;fillColor=none;top=0;left=0;bottom=0;right=0;points=[[0,0.5],[1,0.5]];portConstraint=eastwest;" vertex="1" parent="1">
          <mxGeometry x="350" y="1025" width="90" height="40" as="geometry" />
        </mxCell>
        <mxCell id="a-tTStyMwiT4IHlMWAO0-141" value="sizemask&lt;br&gt;7" style="shape=partialRectangle;html=1;whiteSpace=wrap;connectable=0;fillColor=none;top=0;left=0;bottom=0;right=0;overflow=hidden;" vertex="1" parent="a-tTStyMwiT4IHlMWAO0-140">
          <mxGeometry width="90" height="40" as="geometry" />
        </mxCell>
        <mxCell id="a-tTStyMwiT4IHlMWAO0-142" style="rounded=0;orthogonalLoop=1;jettySize=auto;html=1;exitX=1;exitY=0.5;exitDx=0;exitDy=0;entryX=0;entryY=0.5;entryDx=0;entryDy=0;" edge="1" parent="1" source="a-tTStyMwiT4IHlMWAO0-119" target="a-tTStyMwiT4IHlMWAO0-124">
          <mxGeometry relative="1" as="geometry" />
        </mxCell>
        <mxCell id="a-tTStyMwiT4IHlMWAO0-143" style="edgeStyle=none;rounded=0;orthogonalLoop=1;jettySize=auto;html=1;exitX=1;exitY=0.5;exitDx=0;exitDy=0;entryX=0;entryY=0.5;entryDx=0;entryDy=0;" edge="1" parent="1" source="a-tTStyMwiT4IHlMWAO0-119" target="a-tTStyMwiT4IHlMWAO0-134">
          <mxGeometry relative="1" as="geometry" />
        </mxCell>
        <mxCell id="a-tTStyMwiT4IHlMWAO0-144" value="ht[0]" style="text;html=1;strokeColor=none;fillColor=none;align=center;verticalAlign=middle;whiteSpace=wrap;rounded=0;" vertex="1" parent="1">
          <mxGeometry x="260" y="695" width="40" height="20" as="geometry" />
        </mxCell>
        <mxCell id="a-tTStyMwiT4IHlMWAO0-145" value="ht[1]" style="text;html=1;strokeColor=none;fillColor=none;align=center;verticalAlign=middle;whiteSpace=wrap;rounded=0;" vertex="1" parent="1">
          <mxGeometry x="270" y="885" width="40" height="20" as="geometry" />
        </mxCell>
        <mxCell id="a-tTStyMwiT4IHlMWAO0-146" value="" style="shape=table;html=1;whiteSpace=wrap;startSize=0;container=1;collapsible=0;childLayout=tableLayout;sketch=0;" vertex="1" parent="1">
          <mxGeometry x="500" y="655" width="90" height="200" as="geometry" />
        </mxCell>
        <mxCell id="a-tTStyMwiT4IHlMWAO0-147" style="shape=partialRectangle;html=1;whiteSpace=wrap;collapsible=0;dropTarget=0;pointerEvents=0;fillColor=none;top=0;left=0;bottom=0;right=0;points=[[0,0.5],[1,0.5]];portConstraint=eastwest;" vertex="1" parent="a-tTStyMwiT4IHlMWAO0-146">
          <mxGeometry width="90" height="40" as="geometry" />
        </mxCell>
        <mxCell id="a-tTStyMwiT4IHlMWAO0-148" value="dictEntry*[4]" style="shape=partialRectangle;html=1;whiteSpace=wrap;connectable=0;fillColor=#fff2cc;top=0;left=0;bottom=0;right=0;overflow=hidden;strokeColor=#d6b656;" vertex="1" parent="a-tTStyMwiT4IHlMWAO0-147">
          <mxGeometry width="90" height="40" as="geometry" />
        </mxCell>
        <mxCell id="a-tTStyMwiT4IHlMWAO0-149" style="shape=partialRectangle;html=1;whiteSpace=wrap;collapsible=0;dropTarget=0;pointerEvents=0;fillColor=none;top=0;left=0;bottom=0;right=0;points=[[0,0.5],[1,0.5]];portConstraint=eastwest;" vertex="1" parent="a-tTStyMwiT4IHlMWAO0-146">
          <mxGeometry y="40" width="90" height="40" as="geometry" />
        </mxCell>
        <mxCell id="a-tTStyMwiT4IHlMWAO0-150" value="0" style="shape=partialRectangle;html=1;whiteSpace=wrap;connectable=0;fillColor=none;top=0;left=0;bottom=0;right=0;overflow=hidden;" vertex="1" parent="a-tTStyMwiT4IHlMWAO0-149">
          <mxGeometry width="90" height="40" as="geometry" />
        </mxCell>
        <mxCell id="a-tTStyMwiT4IHlMWAO0-151" style="shape=partialRectangle;html=1;whiteSpace=wrap;collapsible=0;dropTarget=0;pointerEvents=0;fillColor=none;top=0;left=0;bottom=0;right=0;points=[[0,0.5],[1,0.5]];portConstraint=eastwest;" vertex="1" parent="a-tTStyMwiT4IHlMWAO0-146">
          <mxGeometry y="80" width="90" height="40" as="geometry" />
        </mxCell>
        <mxCell id="a-tTStyMwiT4IHlMWAO0-152" value="1" style="shape=partialRectangle;html=1;whiteSpace=wrap;connectable=0;fillColor=none;top=0;left=0;bottom=0;right=0;overflow=hidden;" vertex="1" parent="a-tTStyMwiT4IHlMWAO0-151">
          <mxGeometry width="90" height="40" as="geometry" />
        </mxCell>
        <mxCell id="a-tTStyMwiT4IHlMWAO0-153" style="shape=partialRectangle;html=1;whiteSpace=wrap;collapsible=0;dropTarget=0;pointerEvents=0;fillColor=none;top=0;left=0;bottom=0;right=0;points=[[0,0.5],[1,0.5]];portConstraint=eastwest;" vertex="1" parent="a-tTStyMwiT4IHlMWAO0-146">
          <mxGeometry y="120" width="90" height="40" as="geometry" />
        </mxCell>
        <mxCell id="a-tTStyMwiT4IHlMWAO0-154" value="2" style="shape=partialRectangle;html=1;whiteSpace=wrap;connectable=0;fillColor=none;top=0;left=0;bottom=0;right=0;overflow=hidden;" vertex="1" parent="a-tTStyMwiT4IHlMWAO0-153">
          <mxGeometry width="90" height="40" as="geometry" />
        </mxCell>
        <mxCell id="a-tTStyMwiT4IHlMWAO0-155" style="shape=partialRectangle;html=1;whiteSpace=wrap;collapsible=0;dropTarget=0;pointerEvents=0;fillColor=none;top=0;left=0;bottom=0;right=0;points=[[0,0.5],[1,0.5]];portConstraint=eastwest;" vertex="1" parent="a-tTStyMwiT4IHlMWAO0-146">
          <mxGeometry y="160" width="90" height="40" as="geometry" />
        </mxCell>
        <mxCell id="a-tTStyMwiT4IHlMWAO0-156" value="3" style="shape=partialRectangle;html=1;whiteSpace=wrap;connectable=0;fillColor=none;top=0;left=0;bottom=0;right=0;overflow=hidden;" vertex="1" parent="a-tTStyMwiT4IHlMWAO0-155">
          <mxGeometry width="90" height="40" as="geometry" />
        </mxCell>
        <mxCell id="a-tTStyMwiT4IHlMWAO0-158" value="&lt;span&gt;dictEntry&lt;/span&gt;" style="rounded=0;whiteSpace=wrap;html=1;" vertex="1" parent="1">
          <mxGeometry x="660" y="675" width="80" height="30" as="geometry" />
        </mxCell>
        <mxCell id="a-tTStyMwiT4IHlMWAO0-159" value="k1" style="rounded=0;whiteSpace=wrap;html=1;" vertex="1" parent="1">
          <mxGeometry x="660" y="705" width="40" height="20" as="geometry" />
        </mxCell>
        <mxCell id="a-tTStyMwiT4IHlMWAO0-160" value="v1" style="rounded=0;whiteSpace=wrap;html=1;" vertex="1" parent="1">
          <mxGeometry x="700" y="705" width="40" height="20" as="geometry" />
        </mxCell>
        <mxCell id="a-tTStyMwiT4IHlMWAO0-165" value="&lt;span&gt;dictEntry&lt;/span&gt;" style="rounded=0;whiteSpace=wrap;html=1;" vertex="1" parent="1">
          <mxGeometry x="660" y="755" width="80" height="30" as="geometry" />
        </mxCell>
        <mxCell id="a-tTStyMwiT4IHlMWAO0-166" value="k2" style="rounded=0;whiteSpace=wrap;html=1;" vertex="1" parent="1">
          <mxGeometry x="660" y="785" width="40" height="20" as="geometry" />
        </mxCell>
        <mxCell id="a-tTStyMwiT4IHlMWAO0-167" value="v2" style="rounded=0;whiteSpace=wrap;html=1;" vertex="1" parent="1">
          <mxGeometry x="700" y="785" width="40" height="20" as="geometry" />
        </mxCell>
        <mxCell id="a-tTStyMwiT4IHlMWAO0-169" value="&lt;span&gt;dictEntry&lt;/span&gt;" style="rounded=0;whiteSpace=wrap;html=1;" vertex="1" parent="1">
          <mxGeometry x="660" y="835" width="80" height="30" as="geometry" />
        </mxCell>
        <mxCell id="a-tTStyMwiT4IHlMWAO0-170" value="k3" style="rounded=0;whiteSpace=wrap;html=1;" vertex="1" parent="1">
          <mxGeometry x="660" y="865" width="40" height="20" as="geometry" />
        </mxCell>
        <mxCell id="a-tTStyMwiT4IHlMWAO0-171" value="v3" style="rounded=0;whiteSpace=wrap;html=1;" vertex="1" parent="1">
          <mxGeometry x="700" y="865" width="40" height="20" as="geometry" />
        </mxCell>
        <mxCell id="a-tTStyMwiT4IHlMWAO0-172" style="shape=partialRectangle;html=1;whiteSpace=wrap;collapsible=0;dropTarget=0;pointerEvents=0;fillColor=none;top=0;left=0;bottom=0;right=0;points=[[0,0.5],[1,0.5]];portConstraint=eastwest;" vertex="1" parent="1">
          <mxGeometry x="490" y="905" width="90" height="40" as="geometry" />
        </mxCell>
        <mxCell id="a-tTStyMwiT4IHlMWAO0-173" value="dictEntry*[8]" style="shape=partialRectangle;html=1;whiteSpace=wrap;connectable=0;fillColor=#fff2cc;top=0;left=0;bottom=0;right=0;overflow=hidden;strokeColor=#d6b656;" vertex="1" parent="a-tTStyMwiT4IHlMWAO0-172">
          <mxGeometry width="90" height="40" as="geometry" />
        </mxCell>
        <mxCell id="a-tTStyMwiT4IHlMWAO0-174" style="shape=partialRectangle;html=1;whiteSpace=wrap;collapsible=0;dropTarget=0;pointerEvents=0;fillColor=none;top=0;left=0;bottom=0;right=0;points=[[0,0.5],[1,0.5]];portConstraint=eastwest;" vertex="1" parent="1">
          <mxGeometry x="490" y="945" width="90" height="40" as="geometry" />
        </mxCell>
        <mxCell id="a-tTStyMwiT4IHlMWAO0-175" value="0" style="shape=partialRectangle;html=1;whiteSpace=wrap;connectable=0;fillColor=none;top=0;left=0;bottom=0;right=0;overflow=hidden;" vertex="1" parent="a-tTStyMwiT4IHlMWAO0-174">
          <mxGeometry width="90" height="40" as="geometry" />
        </mxCell>
        <mxCell id="a-tTStyMwiT4IHlMWAO0-176" style="shape=partialRectangle;html=1;whiteSpace=wrap;collapsible=0;dropTarget=0;pointerEvents=0;fillColor=none;top=0;left=0;bottom=0;right=0;points=[[0,0.5],[1,0.5]];portConstraint=eastwest;" vertex="1" parent="1">
          <mxGeometry x="490" y="985" width="90" height="40" as="geometry" />
        </mxCell>
        <mxCell id="a-tTStyMwiT4IHlMWAO0-177" value="1" style="shape=partialRectangle;html=1;whiteSpace=wrap;connectable=0;fillColor=none;top=0;left=0;bottom=0;right=0;overflow=hidden;" vertex="1" parent="a-tTStyMwiT4IHlMWAO0-176">
          <mxGeometry width="90" height="40" as="geometry" />
        </mxCell>
        <mxCell id="a-tTStyMwiT4IHlMWAO0-178" style="shape=partialRectangle;html=1;whiteSpace=wrap;collapsible=0;dropTarget=0;pointerEvents=0;fillColor=none;top=0;left=0;bottom=0;right=0;points=[[0,0.5],[1,0.5]];portConstraint=eastwest;" vertex="1" parent="1">
          <mxGeometry x="490" y="1025" width="90" height="40" as="geometry" />
        </mxCell>
        <mxCell id="a-tTStyMwiT4IHlMWAO0-179" value="..." style="shape=partialRectangle;html=1;whiteSpace=wrap;connectable=0;fillColor=none;top=0;left=0;bottom=0;right=0;overflow=hidden;" vertex="1" parent="a-tTStyMwiT4IHlMWAO0-178">
          <mxGeometry width="90" height="40" as="geometry" />
        </mxCell>
        <mxCell id="a-tTStyMwiT4IHlMWAO0-180" style="edgeStyle=none;rounded=0;orthogonalLoop=1;jettySize=auto;html=1;exitX=1;exitY=0.5;exitDx=0;exitDy=0;entryX=0;entryY=0.5;entryDx=0;entryDy=0;" edge="1" parent="1" source="a-tTStyMwiT4IHlMWAO0-126" target="a-tTStyMwiT4IHlMWAO0-147">
          <mxGeometry relative="1" as="geometry" />
        </mxCell>
        <mxCell id="a-tTStyMwiT4IHlMWAO0-181" style="edgeStyle=none;rounded=0;orthogonalLoop=1;jettySize=auto;html=1;exitX=1;exitY=0.5;exitDx=0;exitDy=0;entryX=0;entryY=0.5;entryDx=0;entryDy=0;" edge="1" parent="1" source="a-tTStyMwiT4IHlMWAO0-136" target="a-tTStyMwiT4IHlMWAO0-172">
          <mxGeometry relative="1" as="geometry" />
        </mxCell>
        <mxCell id="a-tTStyMwiT4IHlMWAO0-183" style="edgeStyle=none;rounded=0;orthogonalLoop=1;jettySize=auto;html=1;exitX=1;exitY=0.5;exitDx=0;exitDy=0;entryX=0;entryY=0.5;entryDx=0;entryDy=0;" edge="1" parent="1" source="a-tTStyMwiT4IHlMWAO0-151" target="a-tTStyMwiT4IHlMWAO0-158">
          <mxGeometry relative="1" as="geometry" />
        </mxCell>
        <mxCell id="a-tTStyMwiT4IHlMWAO0-184" style="edgeStyle=none;rounded=0;orthogonalLoop=1;jettySize=auto;html=1;exitX=1;exitY=0.5;exitDx=0;exitDy=0;entryX=0;entryY=0.5;entryDx=0;entryDy=0;" edge="1" parent="1" source="a-tTStyMwiT4IHlMWAO0-153" target="a-tTStyMwiT4IHlMWAO0-165">
          <mxGeometry relative="1" as="geometry" />
        </mxCell>
        <mxCell id="a-tTStyMwiT4IHlMWAO0-185" style="edgeStyle=none;rounded=0;orthogonalLoop=1;jettySize=auto;html=1;exitX=1;exitY=0.5;exitDx=0;exitDy=0;entryX=0;entryY=0.5;entryDx=0;entryDy=0;" edge="1" parent="1" source="a-tTStyMwiT4IHlMWAO0-155" target="a-tTStyMwiT4IHlMWAO0-169">
          <mxGeometry relative="1" as="geometry" />
        </mxCell>
        <mxCell id="a-tTStyMwiT4IHlMWAO0-191" value="" style="shape=table;html=1;whiteSpace=wrap;startSize=0;container=1;collapsible=0;childLayout=tableLayout;sketch=0;" vertex="1" parent="1">
          <mxGeometry x="350" y="905" width="90" height="200" as="geometry" />
        </mxCell>
        <mxCell id="a-tTStyMwiT4IHlMWAO0-192" style="shape=partialRectangle;html=1;whiteSpace=wrap;collapsible=0;dropTarget=0;pointerEvents=0;fillColor=none;top=0;left=0;bottom=0;right=0;points=[[0,0.5],[1,0.5]];portConstraint=eastwest;" vertex="1" parent="a-tTStyMwiT4IHlMWAO0-191">
          <mxGeometry width="90" height="40" as="geometry" />
        </mxCell>
        <mxCell id="a-tTStyMwiT4IHlMWAO0-193" value="dictht" style="shape=partialRectangle;html=1;whiteSpace=wrap;connectable=0;fillColor=#fff2cc;top=0;left=0;bottom=0;right=0;overflow=hidden;strokeColor=#d6b656;" vertex="1" parent="a-tTStyMwiT4IHlMWAO0-192">
          <mxGeometry width="90" height="40" as="geometry" />
        </mxCell>
        <mxCell id="a-tTStyMwiT4IHlMWAO0-194" style="shape=partialRectangle;html=1;whiteSpace=wrap;collapsible=0;dropTarget=0;pointerEvents=0;fillColor=none;top=0;left=0;bottom=0;right=0;points=[[0,0.5],[1,0.5]];portConstraint=eastwest;" vertex="1" parent="a-tTStyMwiT4IHlMWAO0-191">
          <mxGeometry y="40" width="90" height="40" as="geometry" />
        </mxCell>
        <mxCell id="a-tTStyMwiT4IHlMWAO0-195" value="table" style="shape=partialRectangle;html=1;whiteSpace=wrap;connectable=0;fillColor=none;top=0;left=0;bottom=0;right=0;overflow=hidden;" vertex="1" parent="a-tTStyMwiT4IHlMWAO0-194">
          <mxGeometry width="90" height="40" as="geometry" />
        </mxCell>
        <mxCell id="a-tTStyMwiT4IHlMWAO0-196" style="shape=partialRectangle;html=1;whiteSpace=wrap;collapsible=0;dropTarget=0;pointerEvents=0;fillColor=none;top=0;left=0;bottom=0;right=0;points=[[0,0.5],[1,0.5]];portConstraint=eastwest;" vertex="1" parent="a-tTStyMwiT4IHlMWAO0-191">
          <mxGeometry y="80" width="90" height="40" as="geometry" />
        </mxCell>
        <mxCell id="a-tTStyMwiT4IHlMWAO0-197" value="size&lt;br&gt;8" style="shape=partialRectangle;html=1;whiteSpace=wrap;connectable=0;fillColor=none;top=0;left=0;bottom=0;right=0;overflow=hidden;" vertex="1" parent="a-tTStyMwiT4IHlMWAO0-196">
          <mxGeometry width="90" height="40" as="geometry" />
        </mxCell>
        <mxCell id="a-tTStyMwiT4IHlMWAO0-198" style="shape=partialRectangle;html=1;whiteSpace=wrap;collapsible=0;dropTarget=0;pointerEvents=0;fillColor=none;top=0;left=0;bottom=0;right=0;points=[[0,0.5],[1,0.5]];portConstraint=eastwest;" vertex="1" parent="a-tTStyMwiT4IHlMWAO0-191">
          <mxGeometry y="120" width="90" height="40" as="geometry" />
        </mxCell>
        <mxCell id="a-tTStyMwiT4IHlMWAO0-199" value="sizemask&lt;br&gt;7" style="shape=partialRectangle;html=1;whiteSpace=wrap;connectable=0;fillColor=none;top=0;left=0;bottom=0;right=0;overflow=hidden;" vertex="1" parent="a-tTStyMwiT4IHlMWAO0-198">
          <mxGeometry width="90" height="40" as="geometry" />
        </mxCell>
        <mxCell id="a-tTStyMwiT4IHlMWAO0-200" style="shape=partialRectangle;html=1;whiteSpace=wrap;collapsible=0;dropTarget=0;pointerEvents=0;fillColor=none;top=0;left=0;bottom=0;right=0;points=[[0,0.5],[1,0.5]];portConstraint=eastwest;" vertex="1" parent="a-tTStyMwiT4IHlMWAO0-191">
          <mxGeometry y="160" width="90" height="40" as="geometry" />
        </mxCell>
        <mxCell id="a-tTStyMwiT4IHlMWAO0-201" value="used&lt;br&gt;1" style="shape=partialRectangle;html=1;whiteSpace=wrap;connectable=0;fillColor=none;top=0;left=0;bottom=0;right=0;overflow=hidden;" vertex="1" parent="a-tTStyMwiT4IHlMWAO0-200">
          <mxGeometry width="90" height="40" as="geometry" />
        </mxCell>
        <mxCell id="a-tTStyMwiT4IHlMWAO0-202" value="" style="shape=table;html=1;whiteSpace=wrap;startSize=0;container=1;collapsible=0;childLayout=tableLayout;sketch=0;" vertex="1" parent="1">
          <mxGeometry x="490" y="905" width="90" height="200" as="geometry" />
        </mxCell>
        <mxCell id="a-tTStyMwiT4IHlMWAO0-203" style="shape=partialRectangle;html=1;whiteSpace=wrap;collapsible=0;dropTarget=0;pointerEvents=0;fillColor=none;top=0;left=0;bottom=0;right=0;points=[[0,0.5],[1,0.5]];portConstraint=eastwest;" vertex="1" parent="a-tTStyMwiT4IHlMWAO0-202">
          <mxGeometry width="90" height="40" as="geometry" />
        </mxCell>
        <mxCell id="a-tTStyMwiT4IHlMWAO0-204" value="dictEntry*[8]" style="shape=partialRectangle;html=1;whiteSpace=wrap;connectable=0;fillColor=#fff2cc;top=0;left=0;bottom=0;right=0;overflow=hidden;strokeColor=#d6b656;" vertex="1" parent="a-tTStyMwiT4IHlMWAO0-203">
          <mxGeometry width="90" height="40" as="geometry" />
        </mxCell>
        <mxCell id="a-tTStyMwiT4IHlMWAO0-205" style="shape=partialRectangle;html=1;whiteSpace=wrap;collapsible=0;dropTarget=0;pointerEvents=0;fillColor=none;top=0;left=0;bottom=0;right=0;points=[[0,0.5],[1,0.5]];portConstraint=eastwest;" vertex="1" parent="a-tTStyMwiT4IHlMWAO0-202">
          <mxGeometry y="40" width="90" height="40" as="geometry" />
        </mxCell>
        <mxCell id="a-tTStyMwiT4IHlMWAO0-206" value="0" style="shape=partialRectangle;html=1;whiteSpace=wrap;connectable=0;fillColor=none;top=0;left=0;bottom=0;right=0;overflow=hidden;" vertex="1" parent="a-tTStyMwiT4IHlMWAO0-205">
          <mxGeometry width="90" height="40" as="geometry" />
        </mxCell>
        <mxCell id="a-tTStyMwiT4IHlMWAO0-207" style="shape=partialRectangle;html=1;whiteSpace=wrap;collapsible=0;dropTarget=0;pointerEvents=0;fillColor=none;top=0;left=0;bottom=0;right=0;points=[[0,0.5],[1,0.5]];portConstraint=eastwest;" vertex="1" parent="a-tTStyMwiT4IHlMWAO0-202">
          <mxGeometry y="80" width="90" height="40" as="geometry" />
        </mxCell>
        <mxCell id="a-tTStyMwiT4IHlMWAO0-208" value="1" style="shape=partialRectangle;html=1;whiteSpace=wrap;connectable=0;fillColor=none;top=0;left=0;bottom=0;right=0;overflow=hidden;" vertex="1" parent="a-tTStyMwiT4IHlMWAO0-207">
          <mxGeometry width="90" height="40" as="geometry" />
        </mxCell>
        <mxCell id="a-tTStyMwiT4IHlMWAO0-209" style="shape=partialRectangle;html=1;whiteSpace=wrap;collapsible=0;dropTarget=0;pointerEvents=0;fillColor=none;top=0;left=0;bottom=0;right=0;points=[[0,0.5],[1,0.5]];portConstraint=eastwest;" vertex="1" parent="a-tTStyMwiT4IHlMWAO0-202">
          <mxGeometry y="120" width="90" height="40" as="geometry" />
        </mxCell>
        <mxCell id="a-tTStyMwiT4IHlMWAO0-210" value="..." style="shape=partialRectangle;html=1;whiteSpace=wrap;connectable=0;fillColor=none;top=0;left=0;bottom=0;right=0;overflow=hidden;" vertex="1" parent="a-tTStyMwiT4IHlMWAO0-209">
          <mxGeometry width="90" height="40" as="geometry" />
        </mxCell>
        <mxCell id="a-tTStyMwiT4IHlMWAO0-211" style="shape=partialRectangle;html=1;whiteSpace=wrap;collapsible=0;dropTarget=0;pointerEvents=0;fillColor=none;top=0;left=0;bottom=0;right=0;points=[[0,0.5],[1,0.5]];portConstraint=eastwest;" vertex="1" parent="a-tTStyMwiT4IHlMWAO0-202">
          <mxGeometry y="160" width="90" height="40" as="geometry" />
        </mxCell>
        <mxCell id="a-tTStyMwiT4IHlMWAO0-212" value="7" style="shape=partialRectangle;html=1;whiteSpace=wrap;connectable=0;fillColor=none;top=0;left=0;bottom=0;right=0;overflow=hidden;" vertex="1" parent="a-tTStyMwiT4IHlMWAO0-211">
          <mxGeometry width="90" height="40" as="geometry" />
        </mxCell>
        <mxCell id="a-tTStyMwiT4IHlMWAO0-214" value="k0" style="rounded=0;whiteSpace=wrap;html=1;" vertex="1" parent="1">
          <mxGeometry x="660" y="970" width="40" height="20" as="geometry" />
        </mxCell>
        <mxCell id="a-tTStyMwiT4IHlMWAO0-215" value="v0" style="rounded=0;whiteSpace=wrap;html=1;" vertex="1" parent="1">
          <mxGeometry x="700" y="970" width="40" height="20" as="geometry" />
        </mxCell>
        <mxCell id="a-tTStyMwiT4IHlMWAO0-217" value="&lt;span&gt;dictEntry&lt;/span&gt;" style="rounded=0;whiteSpace=wrap;html=1;" vertex="1" parent="1">
          <mxGeometry x="660" y="940" width="80" height="30" as="geometry" />
        </mxCell>
        <mxCell id="a-tTStyMwiT4IHlMWAO0-218" style="edgeStyle=none;rounded=0;orthogonalLoop=1;jettySize=auto;html=1;exitX=1;exitY=0.5;exitDx=0;exitDy=0;entryX=0;entryY=0.5;entryDx=0;entryDy=0;" edge="1" parent="1" source="a-tTStyMwiT4IHlMWAO0-205" target="a-tTStyMwiT4IHlMWAO0-217">
          <mxGeometry relative="1" as="geometry" />
        </mxCell>
        <mxCell id="a-tTStyMwiT4IHlMWAO0-219" value="&lt;font style=&quot;font-size: 14px&quot;&gt;rehash 1 上的键值对&lt;/font&gt;" style="text;html=1;strokeColor=none;fillColor=none;align=center;verticalAlign=middle;whiteSpace=wrap;rounded=0;" vertex="1" parent="1">
          <mxGeometry x="330" y="1160" width="240" height="30" as="geometry" />
        </mxCell>
        <mxCell id="a-tTStyMwiT4IHlMWAO0-220" value="" style="shape=table;html=1;whiteSpace=wrap;startSize=0;container=1;collapsible=0;childLayout=tableLayout;sketch=0;" vertex="1" parent="1">
          <mxGeometry x="170" y="1320" width="90" height="120" as="geometry" />
        </mxCell>
        <mxCell id="a-tTStyMwiT4IHlMWAO0-221" style="shape=partialRectangle;html=1;whiteSpace=wrap;collapsible=0;dropTarget=0;pointerEvents=0;fillColor=none;top=0;left=0;bottom=0;right=0;points=[[0,0.5],[1,0.5]];portConstraint=eastwest;" vertex="1" parent="a-tTStyMwiT4IHlMWAO0-220">
          <mxGeometry width="90" height="40" as="geometry" />
        </mxCell>
        <mxCell id="a-tTStyMwiT4IHlMWAO0-222" value="dict" style="shape=partialRectangle;html=1;whiteSpace=wrap;connectable=0;fillColor=#fff2cc;top=0;left=0;bottom=0;right=0;overflow=hidden;strokeColor=#d6b656;" vertex="1" parent="a-tTStyMwiT4IHlMWAO0-221">
          <mxGeometry width="90" height="40" as="geometry" />
        </mxCell>
        <mxCell id="a-tTStyMwiT4IHlMWAO0-223" style="shape=partialRectangle;html=1;whiteSpace=wrap;collapsible=0;dropTarget=0;pointerEvents=0;fillColor=none;top=0;left=0;bottom=0;right=0;points=[[0,0.5],[1,0.5]];portConstraint=eastwest;" vertex="1" parent="a-tTStyMwiT4IHlMWAO0-220">
          <mxGeometry y="40" width="90" height="40" as="geometry" />
        </mxCell>
        <mxCell id="a-tTStyMwiT4IHlMWAO0-224" value="ht" style="shape=partialRectangle;html=1;whiteSpace=wrap;connectable=0;fillColor=none;top=0;left=0;bottom=0;right=0;overflow=hidden;" vertex="1" parent="a-tTStyMwiT4IHlMWAO0-223">
          <mxGeometry width="90" height="40" as="geometry" />
        </mxCell>
        <mxCell id="a-tTStyMwiT4IHlMWAO0-225" style="shape=partialRectangle;html=1;whiteSpace=wrap;collapsible=0;dropTarget=0;pointerEvents=0;fillColor=none;top=0;left=0;bottom=0;right=0;points=[[0,0.5],[1,0.5]];portConstraint=eastwest;" vertex="1" parent="a-tTStyMwiT4IHlMWAO0-220">
          <mxGeometry y="80" width="90" height="40" as="geometry" />
        </mxCell>
        <mxCell id="a-tTStyMwiT4IHlMWAO0-226" value="rehashindex&lt;br&gt;1" style="shape=partialRectangle;html=1;whiteSpace=wrap;connectable=0;fillColor=none;top=0;left=0;bottom=0;right=0;overflow=hidden;" vertex="1" parent="a-tTStyMwiT4IHlMWAO0-225">
          <mxGeometry width="90" height="40" as="geometry" />
        </mxCell>
        <mxCell id="a-tTStyMwiT4IHlMWAO0-227" value="" style="shape=table;html=1;whiteSpace=wrap;startSize=0;container=1;collapsible=0;childLayout=tableLayout;sketch=0;" vertex="1" parent="1">
          <mxGeometry x="340" y="1230" width="90" height="200" as="geometry" />
        </mxCell>
        <mxCell id="a-tTStyMwiT4IHlMWAO0-228" style="shape=partialRectangle;html=1;whiteSpace=wrap;collapsible=0;dropTarget=0;pointerEvents=0;fillColor=none;top=0;left=0;bottom=0;right=0;points=[[0,0.5],[1,0.5]];portConstraint=eastwest;" vertex="1" parent="a-tTStyMwiT4IHlMWAO0-227">
          <mxGeometry width="90" height="40" as="geometry" />
        </mxCell>
        <mxCell id="a-tTStyMwiT4IHlMWAO0-229" value="dictht" style="shape=partialRectangle;html=1;whiteSpace=wrap;connectable=0;fillColor=#fff2cc;top=0;left=0;bottom=0;right=0;overflow=hidden;strokeColor=#d6b656;" vertex="1" parent="a-tTStyMwiT4IHlMWAO0-228">
          <mxGeometry width="90" height="40" as="geometry" />
        </mxCell>
        <mxCell id="a-tTStyMwiT4IHlMWAO0-230" style="shape=partialRectangle;html=1;whiteSpace=wrap;collapsible=0;dropTarget=0;pointerEvents=0;fillColor=none;top=0;left=0;bottom=0;right=0;points=[[0,0.5],[1,0.5]];portConstraint=eastwest;" vertex="1" parent="a-tTStyMwiT4IHlMWAO0-227">
          <mxGeometry y="40" width="90" height="40" as="geometry" />
        </mxCell>
        <mxCell id="a-tTStyMwiT4IHlMWAO0-231" value="table" style="shape=partialRectangle;html=1;whiteSpace=wrap;connectable=0;fillColor=none;top=0;left=0;bottom=0;right=0;overflow=hidden;" vertex="1" parent="a-tTStyMwiT4IHlMWAO0-230">
          <mxGeometry width="90" height="40" as="geometry" />
        </mxCell>
        <mxCell id="a-tTStyMwiT4IHlMWAO0-232" style="shape=partialRectangle;html=1;whiteSpace=wrap;collapsible=0;dropTarget=0;pointerEvents=0;fillColor=none;top=0;left=0;bottom=0;right=0;points=[[0,0.5],[1,0.5]];portConstraint=eastwest;" vertex="1" parent="a-tTStyMwiT4IHlMWAO0-227">
          <mxGeometry y="80" width="90" height="40" as="geometry" />
        </mxCell>
        <mxCell id="a-tTStyMwiT4IHlMWAO0-233" value="size&lt;br&gt;4" style="shape=partialRectangle;html=1;whiteSpace=wrap;connectable=0;fillColor=none;top=0;left=0;bottom=0;right=0;overflow=hidden;" vertex="1" parent="a-tTStyMwiT4IHlMWAO0-232">
          <mxGeometry width="90" height="40" as="geometry" />
        </mxCell>
        <mxCell id="a-tTStyMwiT4IHlMWAO0-234" style="shape=partialRectangle;html=1;whiteSpace=wrap;collapsible=0;dropTarget=0;pointerEvents=0;fillColor=none;top=0;left=0;bottom=0;right=0;points=[[0,0.5],[1,0.5]];portConstraint=eastwest;" vertex="1" parent="a-tTStyMwiT4IHlMWAO0-227">
          <mxGeometry y="120" width="90" height="40" as="geometry" />
        </mxCell>
        <mxCell id="a-tTStyMwiT4IHlMWAO0-235" value="sizemask&lt;br&gt;3" style="shape=partialRectangle;html=1;whiteSpace=wrap;connectable=0;fillColor=none;top=0;left=0;bottom=0;right=0;overflow=hidden;" vertex="1" parent="a-tTStyMwiT4IHlMWAO0-234">
          <mxGeometry width="90" height="40" as="geometry" />
        </mxCell>
        <mxCell id="a-tTStyMwiT4IHlMWAO0-236" style="shape=partialRectangle;html=1;whiteSpace=wrap;collapsible=0;dropTarget=0;pointerEvents=0;fillColor=none;top=0;left=0;bottom=0;right=0;points=[[0,0.5],[1,0.5]];portConstraint=eastwest;" vertex="1" parent="a-tTStyMwiT4IHlMWAO0-227">
          <mxGeometry y="160" width="90" height="40" as="geometry" />
        </mxCell>
        <mxCell id="a-tTStyMwiT4IHlMWAO0-237" value="used&lt;br&gt;2" style="shape=partialRectangle;html=1;whiteSpace=wrap;connectable=0;fillColor=none;top=0;left=0;bottom=0;right=0;overflow=hidden;" vertex="1" parent="a-tTStyMwiT4IHlMWAO0-236">
          <mxGeometry width="90" height="40" as="geometry" />
        </mxCell>
        <mxCell id="a-tTStyMwiT4IHlMWAO0-238" style="shape=partialRectangle;html=1;whiteSpace=wrap;collapsible=0;dropTarget=0;pointerEvents=0;fillColor=none;top=0;left=0;bottom=0;right=0;points=[[0,0.5],[1,0.5]];portConstraint=eastwest;" vertex="1" parent="1">
          <mxGeometry x="340" y="1480" width="90" height="40" as="geometry" />
        </mxCell>
        <mxCell id="a-tTStyMwiT4IHlMWAO0-239" value="dictht" style="shape=partialRectangle;html=1;whiteSpace=wrap;connectable=0;fillColor=#fff2cc;top=0;left=0;bottom=0;right=0;overflow=hidden;strokeColor=#d6b656;" vertex="1" parent="a-tTStyMwiT4IHlMWAO0-238">
          <mxGeometry width="90" height="40" as="geometry" />
        </mxCell>
        <mxCell id="a-tTStyMwiT4IHlMWAO0-240" style="shape=partialRectangle;html=1;whiteSpace=wrap;collapsible=0;dropTarget=0;pointerEvents=0;fillColor=none;top=0;left=0;bottom=0;right=0;points=[[0,0.5],[1,0.5]];portConstraint=eastwest;" vertex="1" parent="1">
          <mxGeometry x="340" y="1520" width="90" height="40" as="geometry" />
        </mxCell>
        <mxCell id="a-tTStyMwiT4IHlMWAO0-241" value="table" style="shape=partialRectangle;html=1;whiteSpace=wrap;connectable=0;fillColor=none;top=0;left=0;bottom=0;right=0;overflow=hidden;" vertex="1" parent="a-tTStyMwiT4IHlMWAO0-240">
          <mxGeometry width="90" height="40" as="geometry" />
        </mxCell>
        <mxCell id="a-tTStyMwiT4IHlMWAO0-242" style="shape=partialRectangle;html=1;whiteSpace=wrap;collapsible=0;dropTarget=0;pointerEvents=0;fillColor=none;top=0;left=0;bottom=0;right=0;points=[[0,0.5],[1,0.5]];portConstraint=eastwest;" vertex="1" parent="1">
          <mxGeometry x="340" y="1560" width="90" height="40" as="geometry" />
        </mxCell>
        <mxCell id="a-tTStyMwiT4IHlMWAO0-243" value="size&lt;br&gt;8" style="shape=partialRectangle;html=1;whiteSpace=wrap;connectable=0;fillColor=none;top=0;left=0;bottom=0;right=0;overflow=hidden;" vertex="1" parent="a-tTStyMwiT4IHlMWAO0-242">
          <mxGeometry width="90" height="40" as="geometry" />
        </mxCell>
        <mxCell id="a-tTStyMwiT4IHlMWAO0-244" style="shape=partialRectangle;html=1;whiteSpace=wrap;collapsible=0;dropTarget=0;pointerEvents=0;fillColor=none;top=0;left=0;bottom=0;right=0;points=[[0,0.5],[1,0.5]];portConstraint=eastwest;" vertex="1" parent="1">
          <mxGeometry x="340" y="1600" width="90" height="40" as="geometry" />
        </mxCell>
        <mxCell id="a-tTStyMwiT4IHlMWAO0-245" value="sizemask&lt;br&gt;7" style="shape=partialRectangle;html=1;whiteSpace=wrap;connectable=0;fillColor=none;top=0;left=0;bottom=0;right=0;overflow=hidden;" vertex="1" parent="a-tTStyMwiT4IHlMWAO0-244">
          <mxGeometry width="90" height="40" as="geometry" />
        </mxCell>
        <mxCell id="a-tTStyMwiT4IHlMWAO0-246" style="rounded=0;orthogonalLoop=1;jettySize=auto;html=1;exitX=1;exitY=0.5;exitDx=0;exitDy=0;entryX=0;entryY=0.5;entryDx=0;entryDy=0;" edge="1" parent="1" source="a-tTStyMwiT4IHlMWAO0-223" target="a-tTStyMwiT4IHlMWAO0-228">
          <mxGeometry relative="1" as="geometry" />
        </mxCell>
        <mxCell id="a-tTStyMwiT4IHlMWAO0-247" style="edgeStyle=none;rounded=0;orthogonalLoop=1;jettySize=auto;html=1;exitX=1;exitY=0.5;exitDx=0;exitDy=0;entryX=0;entryY=0.5;entryDx=0;entryDy=0;" edge="1" parent="1" source="a-tTStyMwiT4IHlMWAO0-223" target="a-tTStyMwiT4IHlMWAO0-238">
          <mxGeometry relative="1" as="geometry" />
        </mxCell>
        <mxCell id="a-tTStyMwiT4IHlMWAO0-248" value="ht[0]" style="text;html=1;strokeColor=none;fillColor=none;align=center;verticalAlign=middle;whiteSpace=wrap;rounded=0;" vertex="1" parent="1">
          <mxGeometry x="250" y="1270" width="40" height="20" as="geometry" />
        </mxCell>
        <mxCell id="a-tTStyMwiT4IHlMWAO0-249" value="ht[1]" style="text;html=1;strokeColor=none;fillColor=none;align=center;verticalAlign=middle;whiteSpace=wrap;rounded=0;" vertex="1" parent="1">
          <mxGeometry x="260" y="1460" width="40" height="20" as="geometry" />
        </mxCell>
        <mxCell id="a-tTStyMwiT4IHlMWAO0-250" value="" style="shape=table;html=1;whiteSpace=wrap;startSize=0;container=1;collapsible=0;childLayout=tableLayout;sketch=0;" vertex="1" parent="1">
          <mxGeometry x="490" y="1230" width="90" height="200" as="geometry" />
        </mxCell>
        <mxCell id="a-tTStyMwiT4IHlMWAO0-251" style="shape=partialRectangle;html=1;whiteSpace=wrap;collapsible=0;dropTarget=0;pointerEvents=0;fillColor=none;top=0;left=0;bottom=0;right=0;points=[[0,0.5],[1,0.5]];portConstraint=eastwest;" vertex="1" parent="a-tTStyMwiT4IHlMWAO0-250">
          <mxGeometry width="90" height="40" as="geometry" />
        </mxCell>
        <mxCell id="a-tTStyMwiT4IHlMWAO0-252" value="dictEntry*[4]" style="shape=partialRectangle;html=1;whiteSpace=wrap;connectable=0;fillColor=#fff2cc;top=0;left=0;bottom=0;right=0;overflow=hidden;strokeColor=#d6b656;" vertex="1" parent="a-tTStyMwiT4IHlMWAO0-251">
          <mxGeometry width="90" height="40" as="geometry" />
        </mxCell>
        <mxCell id="a-tTStyMwiT4IHlMWAO0-253" style="shape=partialRectangle;html=1;whiteSpace=wrap;collapsible=0;dropTarget=0;pointerEvents=0;fillColor=none;top=0;left=0;bottom=0;right=0;points=[[0,0.5],[1,0.5]];portConstraint=eastwest;" vertex="1" parent="a-tTStyMwiT4IHlMWAO0-250">
          <mxGeometry y="40" width="90" height="40" as="geometry" />
        </mxCell>
        <mxCell id="a-tTStyMwiT4IHlMWAO0-254" value="0" style="shape=partialRectangle;html=1;whiteSpace=wrap;connectable=0;fillColor=none;top=0;left=0;bottom=0;right=0;overflow=hidden;" vertex="1" parent="a-tTStyMwiT4IHlMWAO0-253">
          <mxGeometry width="90" height="40" as="geometry" />
        </mxCell>
        <mxCell id="a-tTStyMwiT4IHlMWAO0-255" style="shape=partialRectangle;html=1;whiteSpace=wrap;collapsible=0;dropTarget=0;pointerEvents=0;fillColor=none;top=0;left=0;bottom=0;right=0;points=[[0,0.5],[1,0.5]];portConstraint=eastwest;" vertex="1" parent="a-tTStyMwiT4IHlMWAO0-250">
          <mxGeometry y="80" width="90" height="40" as="geometry" />
        </mxCell>
        <mxCell id="a-tTStyMwiT4IHlMWAO0-256" value="1" style="shape=partialRectangle;html=1;whiteSpace=wrap;connectable=0;fillColor=none;top=0;left=0;bottom=0;right=0;overflow=hidden;" vertex="1" parent="a-tTStyMwiT4IHlMWAO0-255">
          <mxGeometry width="90" height="40" as="geometry" />
        </mxCell>
        <mxCell id="a-tTStyMwiT4IHlMWAO0-257" style="shape=partialRectangle;html=1;whiteSpace=wrap;collapsible=0;dropTarget=0;pointerEvents=0;fillColor=none;top=0;left=0;bottom=0;right=0;points=[[0,0.5],[1,0.5]];portConstraint=eastwest;" vertex="1" parent="a-tTStyMwiT4IHlMWAO0-250">
          <mxGeometry y="120" width="90" height="40" as="geometry" />
        </mxCell>
        <mxCell id="a-tTStyMwiT4IHlMWAO0-258" value="2" style="shape=partialRectangle;html=1;whiteSpace=wrap;connectable=0;fillColor=none;top=0;left=0;bottom=0;right=0;overflow=hidden;" vertex="1" parent="a-tTStyMwiT4IHlMWAO0-257">
          <mxGeometry width="90" height="40" as="geometry" />
        </mxCell>
        <mxCell id="a-tTStyMwiT4IHlMWAO0-259" style="shape=partialRectangle;html=1;whiteSpace=wrap;collapsible=0;dropTarget=0;pointerEvents=0;fillColor=none;top=0;left=0;bottom=0;right=0;points=[[0,0.5],[1,0.5]];portConstraint=eastwest;" vertex="1" parent="a-tTStyMwiT4IHlMWAO0-250">
          <mxGeometry y="160" width="90" height="40" as="geometry" />
        </mxCell>
        <mxCell id="a-tTStyMwiT4IHlMWAO0-260" value="3" style="shape=partialRectangle;html=1;whiteSpace=wrap;connectable=0;fillColor=none;top=0;left=0;bottom=0;right=0;overflow=hidden;" vertex="1" parent="a-tTStyMwiT4IHlMWAO0-259">
          <mxGeometry width="90" height="40" as="geometry" />
        </mxCell>
        <mxCell id="a-tTStyMwiT4IHlMWAO0-264" value="&lt;span&gt;dictEntry&lt;/span&gt;" style="rounded=0;whiteSpace=wrap;html=1;" vertex="1" parent="1">
          <mxGeometry x="650" y="1330" width="80" height="30" as="geometry" />
        </mxCell>
        <mxCell id="a-tTStyMwiT4IHlMWAO0-265" value="k2" style="rounded=0;whiteSpace=wrap;html=1;" vertex="1" parent="1">
          <mxGeometry x="650" y="1360" width="40" height="20" as="geometry" />
        </mxCell>
        <mxCell id="a-tTStyMwiT4IHlMWAO0-266" value="v2" style="rounded=0;whiteSpace=wrap;html=1;" vertex="1" parent="1">
          <mxGeometry x="690" y="1360" width="40" height="20" as="geometry" />
        </mxCell>
        <mxCell id="a-tTStyMwiT4IHlMWAO0-267" value="&lt;span&gt;dictEntry&lt;/span&gt;" style="rounded=0;whiteSpace=wrap;html=1;" vertex="1" parent="1">
          <mxGeometry x="650" y="1410" width="80" height="30" as="geometry" />
        </mxCell>
        <mxCell id="a-tTStyMwiT4IHlMWAO0-268" value="k3" style="rounded=0;whiteSpace=wrap;html=1;" vertex="1" parent="1">
          <mxGeometry x="650" y="1440" width="40" height="20" as="geometry" />
        </mxCell>
        <mxCell id="a-tTStyMwiT4IHlMWAO0-269" value="v3" style="rounded=0;whiteSpace=wrap;html=1;" vertex="1" parent="1">
          <mxGeometry x="690" y="1440" width="40" height="20" as="geometry" />
        </mxCell>
        <mxCell id="a-tTStyMwiT4IHlMWAO0-270" style="shape=partialRectangle;html=1;whiteSpace=wrap;collapsible=0;dropTarget=0;pointerEvents=0;fillColor=none;top=0;left=0;bottom=0;right=0;points=[[0,0.5],[1,0.5]];portConstraint=eastwest;" vertex="1" parent="1">
          <mxGeometry x="480" y="1480" width="90" height="40" as="geometry" />
        </mxCell>
        <mxCell id="a-tTStyMwiT4IHlMWAO0-271" value="dictEntry*[8]" style="shape=partialRectangle;html=1;whiteSpace=wrap;connectable=0;fillColor=#fff2cc;top=0;left=0;bottom=0;right=0;overflow=hidden;strokeColor=#d6b656;" vertex="1" parent="a-tTStyMwiT4IHlMWAO0-270">
          <mxGeometry width="90" height="40" as="geometry" />
        </mxCell>
        <mxCell id="a-tTStyMwiT4IHlMWAO0-272" style="shape=partialRectangle;html=1;whiteSpace=wrap;collapsible=0;dropTarget=0;pointerEvents=0;fillColor=none;top=0;left=0;bottom=0;right=0;points=[[0,0.5],[1,0.5]];portConstraint=eastwest;" vertex="1" parent="1">
          <mxGeometry x="480" y="1520" width="90" height="40" as="geometry" />
        </mxCell>
        <mxCell id="a-tTStyMwiT4IHlMWAO0-273" value="0" style="shape=partialRectangle;html=1;whiteSpace=wrap;connectable=0;fillColor=none;top=0;left=0;bottom=0;right=0;overflow=hidden;" vertex="1" parent="a-tTStyMwiT4IHlMWAO0-272">
          <mxGeometry width="90" height="40" as="geometry" />
        </mxCell>
        <mxCell id="a-tTStyMwiT4IHlMWAO0-274" style="shape=partialRectangle;html=1;whiteSpace=wrap;collapsible=0;dropTarget=0;pointerEvents=0;fillColor=none;top=0;left=0;bottom=0;right=0;points=[[0,0.5],[1,0.5]];portConstraint=eastwest;" vertex="1" parent="1">
          <mxGeometry x="480" y="1560" width="90" height="40" as="geometry" />
        </mxCell>
        <mxCell id="a-tTStyMwiT4IHlMWAO0-275" value="1" style="shape=partialRectangle;html=1;whiteSpace=wrap;connectable=0;fillColor=none;top=0;left=0;bottom=0;right=0;overflow=hidden;" vertex="1" parent="a-tTStyMwiT4IHlMWAO0-274">
          <mxGeometry width="90" height="40" as="geometry" />
        </mxCell>
        <mxCell id="a-tTStyMwiT4IHlMWAO0-276" style="shape=partialRectangle;html=1;whiteSpace=wrap;collapsible=0;dropTarget=0;pointerEvents=0;fillColor=none;top=0;left=0;bottom=0;right=0;points=[[0,0.5],[1,0.5]];portConstraint=eastwest;" vertex="1" parent="1">
          <mxGeometry x="480" y="1600" width="90" height="40" as="geometry" />
        </mxCell>
        <mxCell id="a-tTStyMwiT4IHlMWAO0-277" value="..." style="shape=partialRectangle;html=1;whiteSpace=wrap;connectable=0;fillColor=none;top=0;left=0;bottom=0;right=0;overflow=hidden;" vertex="1" parent="a-tTStyMwiT4IHlMWAO0-276">
          <mxGeometry width="90" height="40" as="geometry" />
        </mxCell>
        <mxCell id="a-tTStyMwiT4IHlMWAO0-278" style="edgeStyle=none;rounded=0;orthogonalLoop=1;jettySize=auto;html=1;exitX=1;exitY=0.5;exitDx=0;exitDy=0;entryX=0;entryY=0.5;entryDx=0;entryDy=0;" edge="1" parent="1" source="a-tTStyMwiT4IHlMWAO0-230" target="a-tTStyMwiT4IHlMWAO0-251">
          <mxGeometry relative="1" as="geometry" />
        </mxCell>
        <mxCell id="a-tTStyMwiT4IHlMWAO0-279" style="edgeStyle=none;rounded=0;orthogonalLoop=1;jettySize=auto;html=1;exitX=1;exitY=0.5;exitDx=0;exitDy=0;entryX=0;entryY=0.5;entryDx=0;entryDy=0;" edge="1" parent="1" source="a-tTStyMwiT4IHlMWAO0-240" target="a-tTStyMwiT4IHlMWAO0-270">
          <mxGeometry relative="1" as="geometry" />
        </mxCell>
        <mxCell id="a-tTStyMwiT4IHlMWAO0-281" style="edgeStyle=none;rounded=0;orthogonalLoop=1;jettySize=auto;html=1;exitX=1;exitY=0.5;exitDx=0;exitDy=0;entryX=0;entryY=0.5;entryDx=0;entryDy=0;" edge="1" parent="1" source="a-tTStyMwiT4IHlMWAO0-257" target="a-tTStyMwiT4IHlMWAO0-264">
          <mxGeometry relative="1" as="geometry" />
        </mxCell>
        <mxCell id="a-tTStyMwiT4IHlMWAO0-282" style="edgeStyle=none;rounded=0;orthogonalLoop=1;jettySize=auto;html=1;exitX=1;exitY=0.5;exitDx=0;exitDy=0;entryX=0;entryY=0.5;entryDx=0;entryDy=0;" edge="1" parent="1" source="a-tTStyMwiT4IHlMWAO0-259" target="a-tTStyMwiT4IHlMWAO0-267">
          <mxGeometry relative="1" as="geometry" />
        </mxCell>
        <mxCell id="a-tTStyMwiT4IHlMWAO0-283" value="" style="shape=table;html=1;whiteSpace=wrap;startSize=0;container=1;collapsible=0;childLayout=tableLayout;sketch=0;" vertex="1" parent="1">
          <mxGeometry x="340" y="1480" width="90" height="200" as="geometry" />
        </mxCell>
        <mxCell id="a-tTStyMwiT4IHlMWAO0-284" style="shape=partialRectangle;html=1;whiteSpace=wrap;collapsible=0;dropTarget=0;pointerEvents=0;fillColor=none;top=0;left=0;bottom=0;right=0;points=[[0,0.5],[1,0.5]];portConstraint=eastwest;" vertex="1" parent="a-tTStyMwiT4IHlMWAO0-283">
          <mxGeometry width="90" height="40" as="geometry" />
        </mxCell>
        <mxCell id="a-tTStyMwiT4IHlMWAO0-285" value="dictht" style="shape=partialRectangle;html=1;whiteSpace=wrap;connectable=0;fillColor=#fff2cc;top=0;left=0;bottom=0;right=0;overflow=hidden;strokeColor=#d6b656;" vertex="1" parent="a-tTStyMwiT4IHlMWAO0-284">
          <mxGeometry width="90" height="40" as="geometry" />
        </mxCell>
        <mxCell id="a-tTStyMwiT4IHlMWAO0-286" style="shape=partialRectangle;html=1;whiteSpace=wrap;collapsible=0;dropTarget=0;pointerEvents=0;fillColor=none;top=0;left=0;bottom=0;right=0;points=[[0,0.5],[1,0.5]];portConstraint=eastwest;" vertex="1" parent="a-tTStyMwiT4IHlMWAO0-283">
          <mxGeometry y="40" width="90" height="40" as="geometry" />
        </mxCell>
        <mxCell id="a-tTStyMwiT4IHlMWAO0-287" value="table" style="shape=partialRectangle;html=1;whiteSpace=wrap;connectable=0;fillColor=none;top=0;left=0;bottom=0;right=0;overflow=hidden;" vertex="1" parent="a-tTStyMwiT4IHlMWAO0-286">
          <mxGeometry width="90" height="40" as="geometry" />
        </mxCell>
        <mxCell id="a-tTStyMwiT4IHlMWAO0-288" style="shape=partialRectangle;html=1;whiteSpace=wrap;collapsible=0;dropTarget=0;pointerEvents=0;fillColor=none;top=0;left=0;bottom=0;right=0;points=[[0,0.5],[1,0.5]];portConstraint=eastwest;" vertex="1" parent="a-tTStyMwiT4IHlMWAO0-283">
          <mxGeometry y="80" width="90" height="40" as="geometry" />
        </mxCell>
        <mxCell id="a-tTStyMwiT4IHlMWAO0-289" value="size&lt;br&gt;8" style="shape=partialRectangle;html=1;whiteSpace=wrap;connectable=0;fillColor=none;top=0;left=0;bottom=0;right=0;overflow=hidden;" vertex="1" parent="a-tTStyMwiT4IHlMWAO0-288">
          <mxGeometry width="90" height="40" as="geometry" />
        </mxCell>
        <mxCell id="a-tTStyMwiT4IHlMWAO0-290" style="shape=partialRectangle;html=1;whiteSpace=wrap;collapsible=0;dropTarget=0;pointerEvents=0;fillColor=none;top=0;left=0;bottom=0;right=0;points=[[0,0.5],[1,0.5]];portConstraint=eastwest;" vertex="1" parent="a-tTStyMwiT4IHlMWAO0-283">
          <mxGeometry y="120" width="90" height="40" as="geometry" />
        </mxCell>
        <mxCell id="a-tTStyMwiT4IHlMWAO0-291" value="sizemask&lt;br&gt;7" style="shape=partialRectangle;html=1;whiteSpace=wrap;connectable=0;fillColor=none;top=0;left=0;bottom=0;right=0;overflow=hidden;" vertex="1" parent="a-tTStyMwiT4IHlMWAO0-290">
          <mxGeometry width="90" height="40" as="geometry" />
        </mxCell>
        <mxCell id="a-tTStyMwiT4IHlMWAO0-292" style="shape=partialRectangle;html=1;whiteSpace=wrap;collapsible=0;dropTarget=0;pointerEvents=0;fillColor=none;top=0;left=0;bottom=0;right=0;points=[[0,0.5],[1,0.5]];portConstraint=eastwest;" vertex="1" parent="a-tTStyMwiT4IHlMWAO0-283">
          <mxGeometry y="160" width="90" height="40" as="geometry" />
        </mxCell>
        <mxCell id="a-tTStyMwiT4IHlMWAO0-293" value="used&lt;br&gt;2" style="shape=partialRectangle;html=1;whiteSpace=wrap;connectable=0;fillColor=none;top=0;left=0;bottom=0;right=0;overflow=hidden;" vertex="1" parent="a-tTStyMwiT4IHlMWAO0-292">
          <mxGeometry width="90" height="40" as="geometry" />
        </mxCell>
        <mxCell id="a-tTStyMwiT4IHlMWAO0-294" value="" style="shape=table;html=1;whiteSpace=wrap;startSize=0;container=1;collapsible=0;childLayout=tableLayout;sketch=0;" vertex="1" parent="1">
          <mxGeometry x="480" y="1480" width="90" height="200" as="geometry" />
        </mxCell>
        <mxCell id="a-tTStyMwiT4IHlMWAO0-295" style="shape=partialRectangle;html=1;whiteSpace=wrap;collapsible=0;dropTarget=0;pointerEvents=0;fillColor=none;top=0;left=0;bottom=0;right=0;points=[[0,0.5],[1,0.5]];portConstraint=eastwest;" vertex="1" parent="a-tTStyMwiT4IHlMWAO0-294">
          <mxGeometry width="90" height="40" as="geometry" />
        </mxCell>
        <mxCell id="a-tTStyMwiT4IHlMWAO0-296" value="dictEntry*[8]" style="shape=partialRectangle;html=1;whiteSpace=wrap;connectable=0;fillColor=#fff2cc;top=0;left=0;bottom=0;right=0;overflow=hidden;strokeColor=#d6b656;" vertex="1" parent="a-tTStyMwiT4IHlMWAO0-295">
          <mxGeometry width="90" height="40" as="geometry" />
        </mxCell>
        <mxCell id="a-tTStyMwiT4IHlMWAO0-297" style="shape=partialRectangle;html=1;whiteSpace=wrap;collapsible=0;dropTarget=0;pointerEvents=0;fillColor=none;top=0;left=0;bottom=0;right=0;points=[[0,0.5],[1,0.5]];portConstraint=eastwest;" vertex="1" parent="a-tTStyMwiT4IHlMWAO0-294">
          <mxGeometry y="40" width="90" height="40" as="geometry" />
        </mxCell>
        <mxCell id="a-tTStyMwiT4IHlMWAO0-298" value="0" style="shape=partialRectangle;html=1;whiteSpace=wrap;connectable=0;fillColor=none;top=0;left=0;bottom=0;right=0;overflow=hidden;" vertex="1" parent="a-tTStyMwiT4IHlMWAO0-297">
          <mxGeometry width="90" height="40" as="geometry" />
        </mxCell>
        <mxCell id="a-tTStyMwiT4IHlMWAO0-299" style="shape=partialRectangle;html=1;whiteSpace=wrap;collapsible=0;dropTarget=0;pointerEvents=0;fillColor=none;top=0;left=0;bottom=0;right=0;points=[[0,0.5],[1,0.5]];portConstraint=eastwest;" vertex="1" parent="a-tTStyMwiT4IHlMWAO0-294">
          <mxGeometry y="80" width="90" height="40" as="geometry" />
        </mxCell>
        <mxCell id="a-tTStyMwiT4IHlMWAO0-300" value=".." style="shape=partialRectangle;html=1;whiteSpace=wrap;connectable=0;fillColor=none;top=0;left=0;bottom=0;right=0;overflow=hidden;" vertex="1" parent="a-tTStyMwiT4IHlMWAO0-299">
          <mxGeometry width="90" height="40" as="geometry" />
        </mxCell>
        <mxCell id="a-tTStyMwiT4IHlMWAO0-301" style="shape=partialRectangle;html=1;whiteSpace=wrap;collapsible=0;dropTarget=0;pointerEvents=0;fillColor=none;top=0;left=0;bottom=0;right=0;points=[[0,0.5],[1,0.5]];portConstraint=eastwest;" vertex="1" parent="a-tTStyMwiT4IHlMWAO0-294">
          <mxGeometry y="120" width="90" height="40" as="geometry" />
        </mxCell>
        <mxCell id="a-tTStyMwiT4IHlMWAO0-302" value="5" style="shape=partialRectangle;html=1;whiteSpace=wrap;connectable=0;fillColor=none;top=0;left=0;bottom=0;right=0;overflow=hidden;" vertex="1" parent="a-tTStyMwiT4IHlMWAO0-301">
          <mxGeometry width="90" height="40" as="geometry" />
        </mxCell>
        <mxCell id="a-tTStyMwiT4IHlMWAO0-303" style="shape=partialRectangle;html=1;whiteSpace=wrap;collapsible=0;dropTarget=0;pointerEvents=0;fillColor=none;top=0;left=0;bottom=0;right=0;points=[[0,0.5],[1,0.5]];portConstraint=eastwest;" vertex="1" parent="a-tTStyMwiT4IHlMWAO0-294">
          <mxGeometry y="160" width="90" height="40" as="geometry" />
        </mxCell>
        <mxCell id="a-tTStyMwiT4IHlMWAO0-304" value="..." style="shape=partialRectangle;html=1;whiteSpace=wrap;connectable=0;fillColor=none;top=0;left=0;bottom=0;right=0;overflow=hidden;" vertex="1" parent="a-tTStyMwiT4IHlMWAO0-303">
          <mxGeometry width="90" height="40" as="geometry" />
        </mxCell>
        <mxCell id="a-tTStyMwiT4IHlMWAO0-305" value="k0" style="rounded=0;whiteSpace=wrap;html=1;" vertex="1" parent="1">
          <mxGeometry x="650" y="1545" width="40" height="20" as="geometry" />
        </mxCell>
        <mxCell id="a-tTStyMwiT4IHlMWAO0-306" value="v0" style="rounded=0;whiteSpace=wrap;html=1;" vertex="1" parent="1">
          <mxGeometry x="690" y="1545" width="40" height="20" as="geometry" />
        </mxCell>
        <mxCell id="a-tTStyMwiT4IHlMWAO0-307" value="&lt;span&gt;dictEntry&lt;/span&gt;" style="rounded=0;whiteSpace=wrap;html=1;" vertex="1" parent="1">
          <mxGeometry x="650" y="1515" width="80" height="30" as="geometry" />
        </mxCell>
        <mxCell id="a-tTStyMwiT4IHlMWAO0-308" style="edgeStyle=none;rounded=0;orthogonalLoop=1;jettySize=auto;html=1;exitX=1;exitY=0.5;exitDx=0;exitDy=0;entryX=0;entryY=0.5;entryDx=0;entryDy=0;" edge="1" parent="1" source="a-tTStyMwiT4IHlMWAO0-297" target="a-tTStyMwiT4IHlMWAO0-307">
          <mxGeometry relative="1" as="geometry" />
        </mxCell>
        <mxCell id="a-tTStyMwiT4IHlMWAO0-309" value="&lt;span style=&quot;font-size: 14px&quot;&gt;准备开始rehash&lt;/span&gt;" style="text;html=1;strokeColor=none;fillColor=none;align=center;verticalAlign=middle;whiteSpace=wrap;rounded=0;" vertex="1" parent="1">
          <mxGeometry x="370" y="-80" width="240" height="30" as="geometry" />
        </mxCell>
        <mxCell id="a-tTStyMwiT4IHlMWAO0-310" value="&lt;span&gt;dictEntry&lt;/span&gt;" style="rounded=0;whiteSpace=wrap;html=1;" vertex="1" parent="1">
          <mxGeometry x="650" y="1600" width="80" height="30" as="geometry" />
        </mxCell>
        <mxCell id="a-tTStyMwiT4IHlMWAO0-311" value="k1" style="rounded=0;whiteSpace=wrap;html=1;" vertex="1" parent="1">
          <mxGeometry x="650" y="1630" width="40" height="20" as="geometry" />
        </mxCell>
        <mxCell id="a-tTStyMwiT4IHlMWAO0-312" value="v1" style="rounded=0;whiteSpace=wrap;html=1;" vertex="1" parent="1">
          <mxGeometry x="690" y="1630" width="40" height="20" as="geometry" />
        </mxCell>
        <mxCell id="a-tTStyMwiT4IHlMWAO0-313" style="edgeStyle=none;rounded=0;orthogonalLoop=1;jettySize=auto;html=1;exitX=1;exitY=0.5;exitDx=0;exitDy=0;entryX=0;entryY=0.5;entryDx=0;entryDy=0;" edge="1" parent="1" source="a-tTStyMwiT4IHlMWAO0-301" target="a-tTStyMwiT4IHlMWAO0-310">
          <mxGeometry relative="1" as="geometry" />
        </mxCell>
        <mxCell id="a-tTStyMwiT4IHlMWAO0-314" value="&lt;font style=&quot;font-size: 14px&quot;&gt;rehash 2 上的键值对&lt;/font&gt;" style="text;html=1;strokeColor=none;fillColor=none;align=center;verticalAlign=middle;whiteSpace=wrap;rounded=0;" vertex="1" parent="1">
          <mxGeometry x="320" y="1720" width="240" height="30" as="geometry" />
        </mxCell>
        <mxCell id="a-tTStyMwiT4IHlMWAO0-315" value="" style="shape=table;html=1;whiteSpace=wrap;startSize=0;container=1;collapsible=0;childLayout=tableLayout;sketch=0;" vertex="1" parent="1">
          <mxGeometry x="160" y="1880" width="90" height="120" as="geometry" />
        </mxCell>
        <mxCell id="a-tTStyMwiT4IHlMWAO0-316" style="shape=partialRectangle;html=1;whiteSpace=wrap;collapsible=0;dropTarget=0;pointerEvents=0;fillColor=none;top=0;left=0;bottom=0;right=0;points=[[0,0.5],[1,0.5]];portConstraint=eastwest;" vertex="1" parent="a-tTStyMwiT4IHlMWAO0-315">
          <mxGeometry width="90" height="40" as="geometry" />
        </mxCell>
        <mxCell id="a-tTStyMwiT4IHlMWAO0-317" value="dict" style="shape=partialRectangle;html=1;whiteSpace=wrap;connectable=0;fillColor=#fff2cc;top=0;left=0;bottom=0;right=0;overflow=hidden;strokeColor=#d6b656;" vertex="1" parent="a-tTStyMwiT4IHlMWAO0-316">
          <mxGeometry width="90" height="40" as="geometry" />
        </mxCell>
        <mxCell id="a-tTStyMwiT4IHlMWAO0-318" style="shape=partialRectangle;html=1;whiteSpace=wrap;collapsible=0;dropTarget=0;pointerEvents=0;fillColor=none;top=0;left=0;bottom=0;right=0;points=[[0,0.5],[1,0.5]];portConstraint=eastwest;" vertex="1" parent="a-tTStyMwiT4IHlMWAO0-315">
          <mxGeometry y="40" width="90" height="40" as="geometry" />
        </mxCell>
        <mxCell id="a-tTStyMwiT4IHlMWAO0-319" value="ht" style="shape=partialRectangle;html=1;whiteSpace=wrap;connectable=0;fillColor=none;top=0;left=0;bottom=0;right=0;overflow=hidden;" vertex="1" parent="a-tTStyMwiT4IHlMWAO0-318">
          <mxGeometry width="90" height="40" as="geometry" />
        </mxCell>
        <mxCell id="a-tTStyMwiT4IHlMWAO0-320" style="shape=partialRectangle;html=1;whiteSpace=wrap;collapsible=0;dropTarget=0;pointerEvents=0;fillColor=none;top=0;left=0;bottom=0;right=0;points=[[0,0.5],[1,0.5]];portConstraint=eastwest;" vertex="1" parent="a-tTStyMwiT4IHlMWAO0-315">
          <mxGeometry y="80" width="90" height="40" as="geometry" />
        </mxCell>
        <mxCell id="a-tTStyMwiT4IHlMWAO0-321" value="rehashindex&lt;br&gt;2" style="shape=partialRectangle;html=1;whiteSpace=wrap;connectable=0;fillColor=none;top=0;left=0;bottom=0;right=0;overflow=hidden;" vertex="1" parent="a-tTStyMwiT4IHlMWAO0-320">
          <mxGeometry width="90" height="40" as="geometry" />
        </mxCell>
        <mxCell id="a-tTStyMwiT4IHlMWAO0-322" value="" style="shape=table;html=1;whiteSpace=wrap;startSize=0;container=1;collapsible=0;childLayout=tableLayout;sketch=0;" vertex="1" parent="1">
          <mxGeometry x="330" y="1790" width="90" height="200" as="geometry" />
        </mxCell>
        <mxCell id="a-tTStyMwiT4IHlMWAO0-323" style="shape=partialRectangle;html=1;whiteSpace=wrap;collapsible=0;dropTarget=0;pointerEvents=0;fillColor=none;top=0;left=0;bottom=0;right=0;points=[[0,0.5],[1,0.5]];portConstraint=eastwest;" vertex="1" parent="a-tTStyMwiT4IHlMWAO0-322">
          <mxGeometry width="90" height="40" as="geometry" />
        </mxCell>
        <mxCell id="a-tTStyMwiT4IHlMWAO0-324" value="dictht" style="shape=partialRectangle;html=1;whiteSpace=wrap;connectable=0;fillColor=#fff2cc;top=0;left=0;bottom=0;right=0;overflow=hidden;strokeColor=#d6b656;" vertex="1" parent="a-tTStyMwiT4IHlMWAO0-323">
          <mxGeometry width="90" height="40" as="geometry" />
        </mxCell>
        <mxCell id="a-tTStyMwiT4IHlMWAO0-325" style="shape=partialRectangle;html=1;whiteSpace=wrap;collapsible=0;dropTarget=0;pointerEvents=0;fillColor=none;top=0;left=0;bottom=0;right=0;points=[[0,0.5],[1,0.5]];portConstraint=eastwest;" vertex="1" parent="a-tTStyMwiT4IHlMWAO0-322">
          <mxGeometry y="40" width="90" height="40" as="geometry" />
        </mxCell>
        <mxCell id="a-tTStyMwiT4IHlMWAO0-326" value="table" style="shape=partialRectangle;html=1;whiteSpace=wrap;connectable=0;fillColor=none;top=0;left=0;bottom=0;right=0;overflow=hidden;" vertex="1" parent="a-tTStyMwiT4IHlMWAO0-325">
          <mxGeometry width="90" height="40" as="geometry" />
        </mxCell>
        <mxCell id="a-tTStyMwiT4IHlMWAO0-327" style="shape=partialRectangle;html=1;whiteSpace=wrap;collapsible=0;dropTarget=0;pointerEvents=0;fillColor=none;top=0;left=0;bottom=0;right=0;points=[[0,0.5],[1,0.5]];portConstraint=eastwest;" vertex="1" parent="a-tTStyMwiT4IHlMWAO0-322">
          <mxGeometry y="80" width="90" height="40" as="geometry" />
        </mxCell>
        <mxCell id="a-tTStyMwiT4IHlMWAO0-328" value="size&lt;br&gt;4" style="shape=partialRectangle;html=1;whiteSpace=wrap;connectable=0;fillColor=none;top=0;left=0;bottom=0;right=0;overflow=hidden;" vertex="1" parent="a-tTStyMwiT4IHlMWAO0-327">
          <mxGeometry width="90" height="40" as="geometry" />
        </mxCell>
        <mxCell id="a-tTStyMwiT4IHlMWAO0-329" style="shape=partialRectangle;html=1;whiteSpace=wrap;collapsible=0;dropTarget=0;pointerEvents=0;fillColor=none;top=0;left=0;bottom=0;right=0;points=[[0,0.5],[1,0.5]];portConstraint=eastwest;" vertex="1" parent="a-tTStyMwiT4IHlMWAO0-322">
          <mxGeometry y="120" width="90" height="40" as="geometry" />
        </mxCell>
        <mxCell id="a-tTStyMwiT4IHlMWAO0-330" value="sizemask&lt;br&gt;3" style="shape=partialRectangle;html=1;whiteSpace=wrap;connectable=0;fillColor=none;top=0;left=0;bottom=0;right=0;overflow=hidden;" vertex="1" parent="a-tTStyMwiT4IHlMWAO0-329">
          <mxGeometry width="90" height="40" as="geometry" />
        </mxCell>
        <mxCell id="a-tTStyMwiT4IHlMWAO0-331" style="shape=partialRectangle;html=1;whiteSpace=wrap;collapsible=0;dropTarget=0;pointerEvents=0;fillColor=none;top=0;left=0;bottom=0;right=0;points=[[0,0.5],[1,0.5]];portConstraint=eastwest;" vertex="1" parent="a-tTStyMwiT4IHlMWAO0-322">
          <mxGeometry y="160" width="90" height="40" as="geometry" />
        </mxCell>
        <mxCell id="a-tTStyMwiT4IHlMWAO0-332" value="used&lt;br&gt;1" style="shape=partialRectangle;html=1;whiteSpace=wrap;connectable=0;fillColor=none;top=0;left=0;bottom=0;right=0;overflow=hidden;" vertex="1" parent="a-tTStyMwiT4IHlMWAO0-331">
          <mxGeometry width="90" height="40" as="geometry" />
        </mxCell>
        <mxCell id="a-tTStyMwiT4IHlMWAO0-333" style="shape=partialRectangle;html=1;whiteSpace=wrap;collapsible=0;dropTarget=0;pointerEvents=0;fillColor=none;top=0;left=0;bottom=0;right=0;points=[[0,0.5],[1,0.5]];portConstraint=eastwest;" vertex="1" parent="1">
          <mxGeometry x="330" y="2040" width="90" height="40" as="geometry" />
        </mxCell>
        <mxCell id="a-tTStyMwiT4IHlMWAO0-334" value="dictht" style="shape=partialRectangle;html=1;whiteSpace=wrap;connectable=0;fillColor=#fff2cc;top=0;left=0;bottom=0;right=0;overflow=hidden;strokeColor=#d6b656;" vertex="1" parent="a-tTStyMwiT4IHlMWAO0-333">
          <mxGeometry width="90" height="40" as="geometry" />
        </mxCell>
        <mxCell id="a-tTStyMwiT4IHlMWAO0-335" style="shape=partialRectangle;html=1;whiteSpace=wrap;collapsible=0;dropTarget=0;pointerEvents=0;fillColor=none;top=0;left=0;bottom=0;right=0;points=[[0,0.5],[1,0.5]];portConstraint=eastwest;" vertex="1" parent="1">
          <mxGeometry x="330" y="2080" width="90" height="40" as="geometry" />
        </mxCell>
        <mxCell id="a-tTStyMwiT4IHlMWAO0-336" value="table" style="shape=partialRectangle;html=1;whiteSpace=wrap;connectable=0;fillColor=none;top=0;left=0;bottom=0;right=0;overflow=hidden;" vertex="1" parent="a-tTStyMwiT4IHlMWAO0-335">
          <mxGeometry width="90" height="40" as="geometry" />
        </mxCell>
        <mxCell id="a-tTStyMwiT4IHlMWAO0-337" style="shape=partialRectangle;html=1;whiteSpace=wrap;collapsible=0;dropTarget=0;pointerEvents=0;fillColor=none;top=0;left=0;bottom=0;right=0;points=[[0,0.5],[1,0.5]];portConstraint=eastwest;" vertex="1" parent="1">
          <mxGeometry x="330" y="2120" width="90" height="40" as="geometry" />
        </mxCell>
        <mxCell id="a-tTStyMwiT4IHlMWAO0-338" value="size&lt;br&gt;8" style="shape=partialRectangle;html=1;whiteSpace=wrap;connectable=0;fillColor=none;top=0;left=0;bottom=0;right=0;overflow=hidden;" vertex="1" parent="a-tTStyMwiT4IHlMWAO0-337">
          <mxGeometry width="90" height="40" as="geometry" />
        </mxCell>
        <mxCell id="a-tTStyMwiT4IHlMWAO0-339" style="shape=partialRectangle;html=1;whiteSpace=wrap;collapsible=0;dropTarget=0;pointerEvents=0;fillColor=none;top=0;left=0;bottom=0;right=0;points=[[0,0.5],[1,0.5]];portConstraint=eastwest;" vertex="1" parent="1">
          <mxGeometry x="330" y="2160" width="90" height="40" as="geometry" />
        </mxCell>
        <mxCell id="a-tTStyMwiT4IHlMWAO0-340" value="sizemask&lt;br&gt;7" style="shape=partialRectangle;html=1;whiteSpace=wrap;connectable=0;fillColor=none;top=0;left=0;bottom=0;right=0;overflow=hidden;" vertex="1" parent="a-tTStyMwiT4IHlMWAO0-339">
          <mxGeometry width="90" height="40" as="geometry" />
        </mxCell>
        <mxCell id="a-tTStyMwiT4IHlMWAO0-341" style="rounded=0;orthogonalLoop=1;jettySize=auto;html=1;exitX=1;exitY=0.5;exitDx=0;exitDy=0;entryX=0;entryY=0.5;entryDx=0;entryDy=0;" edge="1" parent="1" source="a-tTStyMwiT4IHlMWAO0-318" target="a-tTStyMwiT4IHlMWAO0-323">
          <mxGeometry relative="1" as="geometry" />
        </mxCell>
        <mxCell id="a-tTStyMwiT4IHlMWAO0-342" style="edgeStyle=none;rounded=0;orthogonalLoop=1;jettySize=auto;html=1;exitX=1;exitY=0.5;exitDx=0;exitDy=0;entryX=0;entryY=0.5;entryDx=0;entryDy=0;" edge="1" parent="1" source="a-tTStyMwiT4IHlMWAO0-318" target="a-tTStyMwiT4IHlMWAO0-333">
          <mxGeometry relative="1" as="geometry" />
        </mxCell>
        <mxCell id="a-tTStyMwiT4IHlMWAO0-343" value="ht[0]" style="text;html=1;strokeColor=none;fillColor=none;align=center;verticalAlign=middle;whiteSpace=wrap;rounded=0;" vertex="1" parent="1">
          <mxGeometry x="240" y="1830" width="40" height="20" as="geometry" />
        </mxCell>
        <mxCell id="a-tTStyMwiT4IHlMWAO0-344" value="ht[1]" style="text;html=1;strokeColor=none;fillColor=none;align=center;verticalAlign=middle;whiteSpace=wrap;rounded=0;" vertex="1" parent="1">
          <mxGeometry x="250" y="2020" width="40" height="20" as="geometry" />
        </mxCell>
        <mxCell id="a-tTStyMwiT4IHlMWAO0-345" value="" style="shape=table;html=1;whiteSpace=wrap;startSize=0;container=1;collapsible=0;childLayout=tableLayout;sketch=0;" vertex="1" parent="1">
          <mxGeometry x="480" y="1790" width="90" height="200" as="geometry" />
        </mxCell>
        <mxCell id="a-tTStyMwiT4IHlMWAO0-346" style="shape=partialRectangle;html=1;whiteSpace=wrap;collapsible=0;dropTarget=0;pointerEvents=0;fillColor=none;top=0;left=0;bottom=0;right=0;points=[[0,0.5],[1,0.5]];portConstraint=eastwest;" vertex="1" parent="a-tTStyMwiT4IHlMWAO0-345">
          <mxGeometry width="90" height="40" as="geometry" />
        </mxCell>
        <mxCell id="a-tTStyMwiT4IHlMWAO0-347" value="dictEntry*[4]" style="shape=partialRectangle;html=1;whiteSpace=wrap;connectable=0;fillColor=#fff2cc;top=0;left=0;bottom=0;right=0;overflow=hidden;strokeColor=#d6b656;" vertex="1" parent="a-tTStyMwiT4IHlMWAO0-346">
          <mxGeometry width="90" height="40" as="geometry" />
        </mxCell>
        <mxCell id="a-tTStyMwiT4IHlMWAO0-348" style="shape=partialRectangle;html=1;whiteSpace=wrap;collapsible=0;dropTarget=0;pointerEvents=0;fillColor=none;top=0;left=0;bottom=0;right=0;points=[[0,0.5],[1,0.5]];portConstraint=eastwest;" vertex="1" parent="a-tTStyMwiT4IHlMWAO0-345">
          <mxGeometry y="40" width="90" height="40" as="geometry" />
        </mxCell>
        <mxCell id="a-tTStyMwiT4IHlMWAO0-349" value="0" style="shape=partialRectangle;html=1;whiteSpace=wrap;connectable=0;fillColor=none;top=0;left=0;bottom=0;right=0;overflow=hidden;" vertex="1" parent="a-tTStyMwiT4IHlMWAO0-348">
          <mxGeometry width="90" height="40" as="geometry" />
        </mxCell>
        <mxCell id="a-tTStyMwiT4IHlMWAO0-350" style="shape=partialRectangle;html=1;whiteSpace=wrap;collapsible=0;dropTarget=0;pointerEvents=0;fillColor=none;top=0;left=0;bottom=0;right=0;points=[[0,0.5],[1,0.5]];portConstraint=eastwest;" vertex="1" parent="a-tTStyMwiT4IHlMWAO0-345">
          <mxGeometry y="80" width="90" height="40" as="geometry" />
        </mxCell>
        <mxCell id="a-tTStyMwiT4IHlMWAO0-351" value="1" style="shape=partialRectangle;html=1;whiteSpace=wrap;connectable=0;fillColor=none;top=0;left=0;bottom=0;right=0;overflow=hidden;" vertex="1" parent="a-tTStyMwiT4IHlMWAO0-350">
          <mxGeometry width="90" height="40" as="geometry" />
        </mxCell>
        <mxCell id="a-tTStyMwiT4IHlMWAO0-352" style="shape=partialRectangle;html=1;whiteSpace=wrap;collapsible=0;dropTarget=0;pointerEvents=0;fillColor=none;top=0;left=0;bottom=0;right=0;points=[[0,0.5],[1,0.5]];portConstraint=eastwest;" vertex="1" parent="a-tTStyMwiT4IHlMWAO0-345">
          <mxGeometry y="120" width="90" height="40" as="geometry" />
        </mxCell>
        <mxCell id="a-tTStyMwiT4IHlMWAO0-353" value="2" style="shape=partialRectangle;html=1;whiteSpace=wrap;connectable=0;fillColor=none;top=0;left=0;bottom=0;right=0;overflow=hidden;" vertex="1" parent="a-tTStyMwiT4IHlMWAO0-352">
          <mxGeometry width="90" height="40" as="geometry" />
        </mxCell>
        <mxCell id="a-tTStyMwiT4IHlMWAO0-354" style="shape=partialRectangle;html=1;whiteSpace=wrap;collapsible=0;dropTarget=0;pointerEvents=0;fillColor=none;top=0;left=0;bottom=0;right=0;points=[[0,0.5],[1,0.5]];portConstraint=eastwest;" vertex="1" parent="a-tTStyMwiT4IHlMWAO0-345">
          <mxGeometry y="160" width="90" height="40" as="geometry" />
        </mxCell>
        <mxCell id="a-tTStyMwiT4IHlMWAO0-355" value="3" style="shape=partialRectangle;html=1;whiteSpace=wrap;connectable=0;fillColor=none;top=0;left=0;bottom=0;right=0;overflow=hidden;" vertex="1" parent="a-tTStyMwiT4IHlMWAO0-354">
          <mxGeometry width="90" height="40" as="geometry" />
        </mxCell>
        <mxCell id="a-tTStyMwiT4IHlMWAO0-356" value="&lt;span&gt;dictEntry&lt;/span&gt;" style="rounded=0;whiteSpace=wrap;html=1;" vertex="1" parent="1">
          <mxGeometry x="640" y="2220" width="80" height="30" as="geometry" />
        </mxCell>
        <mxCell id="a-tTStyMwiT4IHlMWAO0-357" value="k2" style="rounded=0;whiteSpace=wrap;html=1;" vertex="1" parent="1">
          <mxGeometry x="640" y="2250" width="40" height="20" as="geometry" />
        </mxCell>
        <mxCell id="a-tTStyMwiT4IHlMWAO0-358" value="v2" style="rounded=0;whiteSpace=wrap;html=1;" vertex="1" parent="1">
          <mxGeometry x="680" y="2250" width="40" height="20" as="geometry" />
        </mxCell>
        <mxCell id="a-tTStyMwiT4IHlMWAO0-359" value="&lt;span&gt;dictEntry&lt;/span&gt;" style="rounded=0;whiteSpace=wrap;html=1;" vertex="1" parent="1">
          <mxGeometry x="640" y="1970" width="80" height="30" as="geometry" />
        </mxCell>
        <mxCell id="a-tTStyMwiT4IHlMWAO0-360" value="k3" style="rounded=0;whiteSpace=wrap;html=1;" vertex="1" parent="1">
          <mxGeometry x="640" y="2000" width="40" height="20" as="geometry" />
        </mxCell>
        <mxCell id="a-tTStyMwiT4IHlMWAO0-361" value="v3" style="rounded=0;whiteSpace=wrap;html=1;" vertex="1" parent="1">
          <mxGeometry x="680" y="2000" width="40" height="20" as="geometry" />
        </mxCell>
        <mxCell id="a-tTStyMwiT4IHlMWAO0-362" style="shape=partialRectangle;html=1;whiteSpace=wrap;collapsible=0;dropTarget=0;pointerEvents=0;fillColor=none;top=0;left=0;bottom=0;right=0;points=[[0,0.5],[1,0.5]];portConstraint=eastwest;" vertex="1" parent="1">
          <mxGeometry x="470" y="2040" width="90" height="40" as="geometry" />
        </mxCell>
        <mxCell id="a-tTStyMwiT4IHlMWAO0-363" value="dictEntry*[8]" style="shape=partialRectangle;html=1;whiteSpace=wrap;connectable=0;fillColor=#fff2cc;top=0;left=0;bottom=0;right=0;overflow=hidden;strokeColor=#d6b656;" vertex="1" parent="a-tTStyMwiT4IHlMWAO0-362">
          <mxGeometry width="90" height="40" as="geometry" />
        </mxCell>
        <mxCell id="a-tTStyMwiT4IHlMWAO0-364" style="shape=partialRectangle;html=1;whiteSpace=wrap;collapsible=0;dropTarget=0;pointerEvents=0;fillColor=none;top=0;left=0;bottom=0;right=0;points=[[0,0.5],[1,0.5]];portConstraint=eastwest;" vertex="1" parent="1">
          <mxGeometry x="470" y="2080" width="90" height="40" as="geometry" />
        </mxCell>
        <mxCell id="a-tTStyMwiT4IHlMWAO0-365" value="0" style="shape=partialRectangle;html=1;whiteSpace=wrap;connectable=0;fillColor=none;top=0;left=0;bottom=0;right=0;overflow=hidden;" vertex="1" parent="a-tTStyMwiT4IHlMWAO0-364">
          <mxGeometry width="90" height="40" as="geometry" />
        </mxCell>
        <mxCell id="a-tTStyMwiT4IHlMWAO0-366" style="shape=partialRectangle;html=1;whiteSpace=wrap;collapsible=0;dropTarget=0;pointerEvents=0;fillColor=none;top=0;left=0;bottom=0;right=0;points=[[0,0.5],[1,0.5]];portConstraint=eastwest;" vertex="1" parent="1">
          <mxGeometry x="470" y="2120" width="90" height="40" as="geometry" />
        </mxCell>
        <mxCell id="a-tTStyMwiT4IHlMWAO0-367" value="1" style="shape=partialRectangle;html=1;whiteSpace=wrap;connectable=0;fillColor=none;top=0;left=0;bottom=0;right=0;overflow=hidden;" vertex="1" parent="a-tTStyMwiT4IHlMWAO0-366">
          <mxGeometry width="90" height="40" as="geometry" />
        </mxCell>
        <mxCell id="a-tTStyMwiT4IHlMWAO0-368" style="shape=partialRectangle;html=1;whiteSpace=wrap;collapsible=0;dropTarget=0;pointerEvents=0;fillColor=none;top=0;left=0;bottom=0;right=0;points=[[0,0.5],[1,0.5]];portConstraint=eastwest;" vertex="1" parent="1">
          <mxGeometry x="470" y="2160" width="90" height="40" as="geometry" />
        </mxCell>
        <mxCell id="a-tTStyMwiT4IHlMWAO0-369" value="..." style="shape=partialRectangle;html=1;whiteSpace=wrap;connectable=0;fillColor=none;top=0;left=0;bottom=0;right=0;overflow=hidden;" vertex="1" parent="a-tTStyMwiT4IHlMWAO0-368">
          <mxGeometry width="90" height="40" as="geometry" />
        </mxCell>
        <mxCell id="a-tTStyMwiT4IHlMWAO0-370" style="edgeStyle=none;rounded=0;orthogonalLoop=1;jettySize=auto;html=1;exitX=1;exitY=0.5;exitDx=0;exitDy=0;entryX=0;entryY=0.5;entryDx=0;entryDy=0;" edge="1" parent="1" source="a-tTStyMwiT4IHlMWAO0-325" target="a-tTStyMwiT4IHlMWAO0-346">
          <mxGeometry relative="1" as="geometry" />
        </mxCell>
        <mxCell id="a-tTStyMwiT4IHlMWAO0-371" style="edgeStyle=none;rounded=0;orthogonalLoop=1;jettySize=auto;html=1;exitX=1;exitY=0.5;exitDx=0;exitDy=0;entryX=0;entryY=0.5;entryDx=0;entryDy=0;" edge="1" parent="1" source="a-tTStyMwiT4IHlMWAO0-335" target="a-tTStyMwiT4IHlMWAO0-362">
          <mxGeometry relative="1" as="geometry" />
        </mxCell>
        <mxCell id="a-tTStyMwiT4IHlMWAO0-373" style="edgeStyle=none;rounded=0;orthogonalLoop=1;jettySize=auto;html=1;exitX=1;exitY=0.5;exitDx=0;exitDy=0;entryX=0;entryY=0.5;entryDx=0;entryDy=0;" edge="1" parent="1" source="a-tTStyMwiT4IHlMWAO0-354" target="a-tTStyMwiT4IHlMWAO0-359">
          <mxGeometry relative="1" as="geometry" />
        </mxCell>
        <mxCell id="a-tTStyMwiT4IHlMWAO0-374" value="" style="shape=table;html=1;whiteSpace=wrap;startSize=0;container=1;collapsible=0;childLayout=tableLayout;sketch=0;" vertex="1" parent="1">
          <mxGeometry x="330" y="2040" width="90" height="200" as="geometry" />
        </mxCell>
        <mxCell id="a-tTStyMwiT4IHlMWAO0-375" style="shape=partialRectangle;html=1;whiteSpace=wrap;collapsible=0;dropTarget=0;pointerEvents=0;fillColor=none;top=0;left=0;bottom=0;right=0;points=[[0,0.5],[1,0.5]];portConstraint=eastwest;" vertex="1" parent="a-tTStyMwiT4IHlMWAO0-374">
          <mxGeometry width="90" height="40" as="geometry" />
        </mxCell>
        <mxCell id="a-tTStyMwiT4IHlMWAO0-376" value="dictht" style="shape=partialRectangle;html=1;whiteSpace=wrap;connectable=0;fillColor=#fff2cc;top=0;left=0;bottom=0;right=0;overflow=hidden;strokeColor=#d6b656;" vertex="1" parent="a-tTStyMwiT4IHlMWAO0-375">
          <mxGeometry width="90" height="40" as="geometry" />
        </mxCell>
        <mxCell id="a-tTStyMwiT4IHlMWAO0-377" style="shape=partialRectangle;html=1;whiteSpace=wrap;collapsible=0;dropTarget=0;pointerEvents=0;fillColor=none;top=0;left=0;bottom=0;right=0;points=[[0,0.5],[1,0.5]];portConstraint=eastwest;" vertex="1" parent="a-tTStyMwiT4IHlMWAO0-374">
          <mxGeometry y="40" width="90" height="40" as="geometry" />
        </mxCell>
        <mxCell id="a-tTStyMwiT4IHlMWAO0-378" value="table" style="shape=partialRectangle;html=1;whiteSpace=wrap;connectable=0;fillColor=none;top=0;left=0;bottom=0;right=0;overflow=hidden;" vertex="1" parent="a-tTStyMwiT4IHlMWAO0-377">
          <mxGeometry width="90" height="40" as="geometry" />
        </mxCell>
        <mxCell id="a-tTStyMwiT4IHlMWAO0-379" style="shape=partialRectangle;html=1;whiteSpace=wrap;collapsible=0;dropTarget=0;pointerEvents=0;fillColor=none;top=0;left=0;bottom=0;right=0;points=[[0,0.5],[1,0.5]];portConstraint=eastwest;" vertex="1" parent="a-tTStyMwiT4IHlMWAO0-374">
          <mxGeometry y="80" width="90" height="40" as="geometry" />
        </mxCell>
        <mxCell id="a-tTStyMwiT4IHlMWAO0-380" value="size&lt;br&gt;8" style="shape=partialRectangle;html=1;whiteSpace=wrap;connectable=0;fillColor=none;top=0;left=0;bottom=0;right=0;overflow=hidden;" vertex="1" parent="a-tTStyMwiT4IHlMWAO0-379">
          <mxGeometry width="90" height="40" as="geometry" />
        </mxCell>
        <mxCell id="a-tTStyMwiT4IHlMWAO0-381" style="shape=partialRectangle;html=1;whiteSpace=wrap;collapsible=0;dropTarget=0;pointerEvents=0;fillColor=none;top=0;left=0;bottom=0;right=0;points=[[0,0.5],[1,0.5]];portConstraint=eastwest;" vertex="1" parent="a-tTStyMwiT4IHlMWAO0-374">
          <mxGeometry y="120" width="90" height="40" as="geometry" />
        </mxCell>
        <mxCell id="a-tTStyMwiT4IHlMWAO0-382" value="sizemask&lt;br&gt;7" style="shape=partialRectangle;html=1;whiteSpace=wrap;connectable=0;fillColor=none;top=0;left=0;bottom=0;right=0;overflow=hidden;" vertex="1" parent="a-tTStyMwiT4IHlMWAO0-381">
          <mxGeometry width="90" height="40" as="geometry" />
        </mxCell>
        <mxCell id="a-tTStyMwiT4IHlMWAO0-383" style="shape=partialRectangle;html=1;whiteSpace=wrap;collapsible=0;dropTarget=0;pointerEvents=0;fillColor=none;top=0;left=0;bottom=0;right=0;points=[[0,0.5],[1,0.5]];portConstraint=eastwest;" vertex="1" parent="a-tTStyMwiT4IHlMWAO0-374">
          <mxGeometry y="160" width="90" height="40" as="geometry" />
        </mxCell>
        <mxCell id="a-tTStyMwiT4IHlMWAO0-384" value="used&lt;br&gt;3" style="shape=partialRectangle;html=1;whiteSpace=wrap;connectable=0;fillColor=none;top=0;left=0;bottom=0;right=0;overflow=hidden;" vertex="1" parent="a-tTStyMwiT4IHlMWAO0-383">
          <mxGeometry width="90" height="40" as="geometry" />
        </mxCell>
        <mxCell id="a-tTStyMwiT4IHlMWAO0-385" value="" style="shape=table;html=1;whiteSpace=wrap;startSize=0;container=1;collapsible=0;childLayout=tableLayout;sketch=0;" vertex="1" parent="1">
          <mxGeometry x="470" y="2040" width="90" height="240" as="geometry" />
        </mxCell>
        <mxCell id="a-tTStyMwiT4IHlMWAO0-386" style="shape=partialRectangle;html=1;whiteSpace=wrap;collapsible=0;dropTarget=0;pointerEvents=0;fillColor=none;top=0;left=0;bottom=0;right=0;points=[[0,0.5],[1,0.5]];portConstraint=eastwest;" vertex="1" parent="a-tTStyMwiT4IHlMWAO0-385">
          <mxGeometry width="90" height="40" as="geometry" />
        </mxCell>
        <mxCell id="a-tTStyMwiT4IHlMWAO0-387" value="dictEntry*[8]" style="shape=partialRectangle;html=1;whiteSpace=wrap;connectable=0;fillColor=#fff2cc;top=0;left=0;bottom=0;right=0;overflow=hidden;strokeColor=#d6b656;" vertex="1" parent="a-tTStyMwiT4IHlMWAO0-386">
          <mxGeometry width="90" height="40" as="geometry" />
        </mxCell>
        <mxCell id="a-tTStyMwiT4IHlMWAO0-388" style="shape=partialRectangle;html=1;whiteSpace=wrap;collapsible=0;dropTarget=0;pointerEvents=0;fillColor=none;top=0;left=0;bottom=0;right=0;points=[[0,0.5],[1,0.5]];portConstraint=eastwest;" vertex="1" parent="a-tTStyMwiT4IHlMWAO0-385">
          <mxGeometry y="40" width="90" height="40" as="geometry" />
        </mxCell>
        <mxCell id="a-tTStyMwiT4IHlMWAO0-389" value="0" style="shape=partialRectangle;html=1;whiteSpace=wrap;connectable=0;fillColor=none;top=0;left=0;bottom=0;right=0;overflow=hidden;" vertex="1" parent="a-tTStyMwiT4IHlMWAO0-388">
          <mxGeometry width="90" height="40" as="geometry" />
        </mxCell>
        <mxCell id="a-tTStyMwiT4IHlMWAO0-390" style="shape=partialRectangle;html=1;whiteSpace=wrap;collapsible=0;dropTarget=0;pointerEvents=0;fillColor=none;top=0;left=0;bottom=0;right=0;points=[[0,0.5],[1,0.5]];portConstraint=eastwest;" vertex="1" parent="a-tTStyMwiT4IHlMWAO0-385">
          <mxGeometry y="80" width="90" height="40" as="geometry" />
        </mxCell>
        <mxCell id="a-tTStyMwiT4IHlMWAO0-391" value=".." style="shape=partialRectangle;html=1;whiteSpace=wrap;connectable=0;fillColor=none;top=0;left=0;bottom=0;right=0;overflow=hidden;" vertex="1" parent="a-tTStyMwiT4IHlMWAO0-390">
          <mxGeometry width="90" height="40" as="geometry" />
        </mxCell>
        <mxCell id="a-tTStyMwiT4IHlMWAO0-392" style="shape=partialRectangle;html=1;whiteSpace=wrap;collapsible=0;dropTarget=0;pointerEvents=0;fillColor=none;top=0;left=0;bottom=0;right=0;points=[[0,0.5],[1,0.5]];portConstraint=eastwest;" vertex="1" parent="a-tTStyMwiT4IHlMWAO0-385">
          <mxGeometry y="120" width="90" height="40" as="geometry" />
        </mxCell>
        <mxCell id="a-tTStyMwiT4IHlMWAO0-393" value="5" style="shape=partialRectangle;html=1;whiteSpace=wrap;connectable=0;fillColor=none;top=0;left=0;bottom=0;right=0;overflow=hidden;" vertex="1" parent="a-tTStyMwiT4IHlMWAO0-392">
          <mxGeometry width="90" height="40" as="geometry" />
        </mxCell>
        <mxCell id="a-tTStyMwiT4IHlMWAO0-394" style="shape=partialRectangle;html=1;whiteSpace=wrap;collapsible=0;dropTarget=0;pointerEvents=0;fillColor=none;top=0;left=0;bottom=0;right=0;points=[[0,0.5],[1,0.5]];portConstraint=eastwest;" vertex="1" parent="a-tTStyMwiT4IHlMWAO0-385">
          <mxGeometry y="160" width="90" height="40" as="geometry" />
        </mxCell>
        <mxCell id="a-tTStyMwiT4IHlMWAO0-395" value="6" style="shape=partialRectangle;html=1;whiteSpace=wrap;connectable=0;fillColor=none;top=0;left=0;bottom=0;right=0;overflow=hidden;" vertex="1" parent="a-tTStyMwiT4IHlMWAO0-394">
          <mxGeometry width="90" height="40" as="geometry" />
        </mxCell>
        <mxCell id="a-tTStyMwiT4IHlMWAO0-404" style="shape=partialRectangle;html=1;whiteSpace=wrap;collapsible=0;dropTarget=0;pointerEvents=0;fillColor=none;top=0;left=0;bottom=0;right=0;points=[[0,0.5],[1,0.5]];portConstraint=eastwest;" vertex="1" parent="a-tTStyMwiT4IHlMWAO0-385">
          <mxGeometry y="200" width="90" height="40" as="geometry" />
        </mxCell>
        <mxCell id="a-tTStyMwiT4IHlMWAO0-405" value="..." style="shape=partialRectangle;html=1;whiteSpace=wrap;connectable=0;fillColor=none;top=0;left=0;bottom=0;right=0;overflow=hidden;" vertex="1" parent="a-tTStyMwiT4IHlMWAO0-404">
          <mxGeometry width="90" height="40" as="geometry" />
        </mxCell>
        <mxCell id="a-tTStyMwiT4IHlMWAO0-396" value="k0" style="rounded=0;whiteSpace=wrap;html=1;" vertex="1" parent="1">
          <mxGeometry x="640" y="2105" width="40" height="20" as="geometry" />
        </mxCell>
        <mxCell id="a-tTStyMwiT4IHlMWAO0-397" value="v0" style="rounded=0;whiteSpace=wrap;html=1;" vertex="1" parent="1">
          <mxGeometry x="680" y="2105" width="40" height="20" as="geometry" />
        </mxCell>
        <mxCell id="a-tTStyMwiT4IHlMWAO0-398" value="&lt;span&gt;dictEntry&lt;/span&gt;" style="rounded=0;whiteSpace=wrap;html=1;" vertex="1" parent="1">
          <mxGeometry x="640" y="2075" width="80" height="30" as="geometry" />
        </mxCell>
        <mxCell id="a-tTStyMwiT4IHlMWAO0-399" style="edgeStyle=none;rounded=0;orthogonalLoop=1;jettySize=auto;html=1;exitX=1;exitY=0.5;exitDx=0;exitDy=0;entryX=0;entryY=0.5;entryDx=0;entryDy=0;" edge="1" parent="1" source="a-tTStyMwiT4IHlMWAO0-388" target="a-tTStyMwiT4IHlMWAO0-398">
          <mxGeometry relative="1" as="geometry" />
        </mxCell>
        <mxCell id="a-tTStyMwiT4IHlMWAO0-400" value="&lt;span&gt;dictEntry&lt;/span&gt;" style="rounded=0;whiteSpace=wrap;html=1;" vertex="1" parent="1">
          <mxGeometry x="640" y="2150" width="80" height="30" as="geometry" />
        </mxCell>
        <mxCell id="a-tTStyMwiT4IHlMWAO0-401" value="k1" style="rounded=0;whiteSpace=wrap;html=1;" vertex="1" parent="1">
          <mxGeometry x="640" y="2180" width="40" height="20" as="geometry" />
        </mxCell>
        <mxCell id="a-tTStyMwiT4IHlMWAO0-402" value="v1" style="rounded=0;whiteSpace=wrap;html=1;" vertex="1" parent="1">
          <mxGeometry x="680" y="2180" width="40" height="20" as="geometry" />
        </mxCell>
        <mxCell id="a-tTStyMwiT4IHlMWAO0-403" style="edgeStyle=none;rounded=0;orthogonalLoop=1;jettySize=auto;html=1;exitX=1;exitY=0.5;exitDx=0;exitDy=0;entryX=0;entryY=0.5;entryDx=0;entryDy=0;" edge="1" parent="1" source="a-tTStyMwiT4IHlMWAO0-392" target="a-tTStyMwiT4IHlMWAO0-400">
          <mxGeometry relative="1" as="geometry" />
        </mxCell>
        <mxCell id="a-tTStyMwiT4IHlMWAO0-406" style="edgeStyle=none;rounded=0;orthogonalLoop=1;jettySize=auto;html=1;exitX=1;exitY=0.5;exitDx=0;exitDy=0;entryX=0;entryY=0.5;entryDx=0;entryDy=0;" edge="1" parent="1" source="a-tTStyMwiT4IHlMWAO0-394" target="a-tTStyMwiT4IHlMWAO0-356">
          <mxGeometry relative="1" as="geometry" />
        </mxCell>
        <mxCell id="a-tTStyMwiT4IHlMWAO0-407" value="&lt;font style=&quot;font-size: 14px&quot;&gt;rehash 3 上的键值对&lt;/font&gt;" style="text;html=1;strokeColor=none;fillColor=none;align=center;verticalAlign=middle;whiteSpace=wrap;rounded=0;" vertex="1" parent="1">
          <mxGeometry x="320" y="2350" width="240" height="30" as="geometry" />
        </mxCell>
        <mxCell id="a-tTStyMwiT4IHlMWAO0-408" value="" style="shape=table;html=1;whiteSpace=wrap;startSize=0;container=1;collapsible=0;childLayout=tableLayout;sketch=0;" vertex="1" parent="1">
          <mxGeometry x="160" y="2510" width="90" height="120" as="geometry" />
        </mxCell>
        <mxCell id="a-tTStyMwiT4IHlMWAO0-409" style="shape=partialRectangle;html=1;whiteSpace=wrap;collapsible=0;dropTarget=0;pointerEvents=0;fillColor=none;top=0;left=0;bottom=0;right=0;points=[[0,0.5],[1,0.5]];portConstraint=eastwest;" vertex="1" parent="a-tTStyMwiT4IHlMWAO0-408">
          <mxGeometry width="90" height="40" as="geometry" />
        </mxCell>
        <mxCell id="a-tTStyMwiT4IHlMWAO0-410" value="dict" style="shape=partialRectangle;html=1;whiteSpace=wrap;connectable=0;fillColor=#fff2cc;top=0;left=0;bottom=0;right=0;overflow=hidden;strokeColor=#d6b656;" vertex="1" parent="a-tTStyMwiT4IHlMWAO0-409">
          <mxGeometry width="90" height="40" as="geometry" />
        </mxCell>
        <mxCell id="a-tTStyMwiT4IHlMWAO0-411" style="shape=partialRectangle;html=1;whiteSpace=wrap;collapsible=0;dropTarget=0;pointerEvents=0;fillColor=none;top=0;left=0;bottom=0;right=0;points=[[0,0.5],[1,0.5]];portConstraint=eastwest;" vertex="1" parent="a-tTStyMwiT4IHlMWAO0-408">
          <mxGeometry y="40" width="90" height="40" as="geometry" />
        </mxCell>
        <mxCell id="a-tTStyMwiT4IHlMWAO0-412" value="ht" style="shape=partialRectangle;html=1;whiteSpace=wrap;connectable=0;fillColor=none;top=0;left=0;bottom=0;right=0;overflow=hidden;" vertex="1" parent="a-tTStyMwiT4IHlMWAO0-411">
          <mxGeometry width="90" height="40" as="geometry" />
        </mxCell>
        <mxCell id="a-tTStyMwiT4IHlMWAO0-413" style="shape=partialRectangle;html=1;whiteSpace=wrap;collapsible=0;dropTarget=0;pointerEvents=0;fillColor=none;top=0;left=0;bottom=0;right=0;points=[[0,0.5],[1,0.5]];portConstraint=eastwest;" vertex="1" parent="a-tTStyMwiT4IHlMWAO0-408">
          <mxGeometry y="80" width="90" height="40" as="geometry" />
        </mxCell>
        <mxCell id="a-tTStyMwiT4IHlMWAO0-414" value="rehashindex&lt;br&gt;3" style="shape=partialRectangle;html=1;whiteSpace=wrap;connectable=0;fillColor=none;top=0;left=0;bottom=0;right=0;overflow=hidden;" vertex="1" parent="a-tTStyMwiT4IHlMWAO0-413">
          <mxGeometry width="90" height="40" as="geometry" />
        </mxCell>
        <mxCell id="a-tTStyMwiT4IHlMWAO0-415" value="" style="shape=table;html=1;whiteSpace=wrap;startSize=0;container=1;collapsible=0;childLayout=tableLayout;sketch=0;" vertex="1" parent="1">
          <mxGeometry x="330" y="2420" width="90" height="200" as="geometry" />
        </mxCell>
        <mxCell id="a-tTStyMwiT4IHlMWAO0-416" style="shape=partialRectangle;html=1;whiteSpace=wrap;collapsible=0;dropTarget=0;pointerEvents=0;fillColor=none;top=0;left=0;bottom=0;right=0;points=[[0,0.5],[1,0.5]];portConstraint=eastwest;" vertex="1" parent="a-tTStyMwiT4IHlMWAO0-415">
          <mxGeometry width="90" height="40" as="geometry" />
        </mxCell>
        <mxCell id="a-tTStyMwiT4IHlMWAO0-417" value="dictht" style="shape=partialRectangle;html=1;whiteSpace=wrap;connectable=0;fillColor=#fff2cc;top=0;left=0;bottom=0;right=0;overflow=hidden;strokeColor=#d6b656;" vertex="1" parent="a-tTStyMwiT4IHlMWAO0-416">
          <mxGeometry width="90" height="40" as="geometry" />
        </mxCell>
        <mxCell id="a-tTStyMwiT4IHlMWAO0-418" style="shape=partialRectangle;html=1;whiteSpace=wrap;collapsible=0;dropTarget=0;pointerEvents=0;fillColor=none;top=0;left=0;bottom=0;right=0;points=[[0,0.5],[1,0.5]];portConstraint=eastwest;" vertex="1" parent="a-tTStyMwiT4IHlMWAO0-415">
          <mxGeometry y="40" width="90" height="40" as="geometry" />
        </mxCell>
        <mxCell id="a-tTStyMwiT4IHlMWAO0-419" value="table" style="shape=partialRectangle;html=1;whiteSpace=wrap;connectable=0;fillColor=none;top=0;left=0;bottom=0;right=0;overflow=hidden;" vertex="1" parent="a-tTStyMwiT4IHlMWAO0-418">
          <mxGeometry width="90" height="40" as="geometry" />
        </mxCell>
        <mxCell id="a-tTStyMwiT4IHlMWAO0-420" style="shape=partialRectangle;html=1;whiteSpace=wrap;collapsible=0;dropTarget=0;pointerEvents=0;fillColor=none;top=0;left=0;bottom=0;right=0;points=[[0,0.5],[1,0.5]];portConstraint=eastwest;" vertex="1" parent="a-tTStyMwiT4IHlMWAO0-415">
          <mxGeometry y="80" width="90" height="40" as="geometry" />
        </mxCell>
        <mxCell id="a-tTStyMwiT4IHlMWAO0-421" value="size&lt;br&gt;4" style="shape=partialRectangle;html=1;whiteSpace=wrap;connectable=0;fillColor=none;top=0;left=0;bottom=0;right=0;overflow=hidden;" vertex="1" parent="a-tTStyMwiT4IHlMWAO0-420">
          <mxGeometry width="90" height="40" as="geometry" />
        </mxCell>
        <mxCell id="a-tTStyMwiT4IHlMWAO0-422" style="shape=partialRectangle;html=1;whiteSpace=wrap;collapsible=0;dropTarget=0;pointerEvents=0;fillColor=none;top=0;left=0;bottom=0;right=0;points=[[0,0.5],[1,0.5]];portConstraint=eastwest;" vertex="1" parent="a-tTStyMwiT4IHlMWAO0-415">
          <mxGeometry y="120" width="90" height="40" as="geometry" />
        </mxCell>
        <mxCell id="a-tTStyMwiT4IHlMWAO0-423" value="sizemask&lt;br&gt;3" style="shape=partialRectangle;html=1;whiteSpace=wrap;connectable=0;fillColor=none;top=0;left=0;bottom=0;right=0;overflow=hidden;" vertex="1" parent="a-tTStyMwiT4IHlMWAO0-422">
          <mxGeometry width="90" height="40" as="geometry" />
        </mxCell>
        <mxCell id="a-tTStyMwiT4IHlMWAO0-424" style="shape=partialRectangle;html=1;whiteSpace=wrap;collapsible=0;dropTarget=0;pointerEvents=0;fillColor=none;top=0;left=0;bottom=0;right=0;points=[[0,0.5],[1,0.5]];portConstraint=eastwest;" vertex="1" parent="a-tTStyMwiT4IHlMWAO0-415">
          <mxGeometry y="160" width="90" height="40" as="geometry" />
        </mxCell>
        <mxCell id="a-tTStyMwiT4IHlMWAO0-425" value="used&lt;br&gt;0" style="shape=partialRectangle;html=1;whiteSpace=wrap;connectable=0;fillColor=none;top=0;left=0;bottom=0;right=0;overflow=hidden;" vertex="1" parent="a-tTStyMwiT4IHlMWAO0-424">
          <mxGeometry width="90" height="40" as="geometry" />
        </mxCell>
        <mxCell id="a-tTStyMwiT4IHlMWAO0-426" style="shape=partialRectangle;html=1;whiteSpace=wrap;collapsible=0;dropTarget=0;pointerEvents=0;fillColor=none;top=0;left=0;bottom=0;right=0;points=[[0,0.5],[1,0.5]];portConstraint=eastwest;" vertex="1" parent="1">
          <mxGeometry x="330" y="2670" width="90" height="40" as="geometry" />
        </mxCell>
        <mxCell id="a-tTStyMwiT4IHlMWAO0-427" value="dictht" style="shape=partialRectangle;html=1;whiteSpace=wrap;connectable=0;fillColor=#fff2cc;top=0;left=0;bottom=0;right=0;overflow=hidden;strokeColor=#d6b656;" vertex="1" parent="a-tTStyMwiT4IHlMWAO0-426">
          <mxGeometry width="90" height="40" as="geometry" />
        </mxCell>
        <mxCell id="a-tTStyMwiT4IHlMWAO0-428" style="shape=partialRectangle;html=1;whiteSpace=wrap;collapsible=0;dropTarget=0;pointerEvents=0;fillColor=none;top=0;left=0;bottom=0;right=0;points=[[0,0.5],[1,0.5]];portConstraint=eastwest;" vertex="1" parent="1">
          <mxGeometry x="330" y="2710" width="90" height="40" as="geometry" />
        </mxCell>
        <mxCell id="a-tTStyMwiT4IHlMWAO0-429" value="table" style="shape=partialRectangle;html=1;whiteSpace=wrap;connectable=0;fillColor=none;top=0;left=0;bottom=0;right=0;overflow=hidden;" vertex="1" parent="a-tTStyMwiT4IHlMWAO0-428">
          <mxGeometry width="90" height="40" as="geometry" />
        </mxCell>
        <mxCell id="a-tTStyMwiT4IHlMWAO0-430" style="shape=partialRectangle;html=1;whiteSpace=wrap;collapsible=0;dropTarget=0;pointerEvents=0;fillColor=none;top=0;left=0;bottom=0;right=0;points=[[0,0.5],[1,0.5]];portConstraint=eastwest;" vertex="1" parent="1">
          <mxGeometry x="330" y="2750" width="90" height="40" as="geometry" />
        </mxCell>
        <mxCell id="a-tTStyMwiT4IHlMWAO0-431" value="size&lt;br&gt;8" style="shape=partialRectangle;html=1;whiteSpace=wrap;connectable=0;fillColor=none;top=0;left=0;bottom=0;right=0;overflow=hidden;" vertex="1" parent="a-tTStyMwiT4IHlMWAO0-430">
          <mxGeometry width="90" height="40" as="geometry" />
        </mxCell>
        <mxCell id="a-tTStyMwiT4IHlMWAO0-432" style="shape=partialRectangle;html=1;whiteSpace=wrap;collapsible=0;dropTarget=0;pointerEvents=0;fillColor=none;top=0;left=0;bottom=0;right=0;points=[[0,0.5],[1,0.5]];portConstraint=eastwest;" vertex="1" parent="1">
          <mxGeometry x="330" y="2790" width="90" height="40" as="geometry" />
        </mxCell>
        <mxCell id="a-tTStyMwiT4IHlMWAO0-433" value="sizemask&lt;br&gt;7" style="shape=partialRectangle;html=1;whiteSpace=wrap;connectable=0;fillColor=none;top=0;left=0;bottom=0;right=0;overflow=hidden;" vertex="1" parent="a-tTStyMwiT4IHlMWAO0-432">
          <mxGeometry width="90" height="40" as="geometry" />
        </mxCell>
        <mxCell id="a-tTStyMwiT4IHlMWAO0-434" style="rounded=0;orthogonalLoop=1;jettySize=auto;html=1;exitX=1;exitY=0.5;exitDx=0;exitDy=0;entryX=0;entryY=0.5;entryDx=0;entryDy=0;" edge="1" parent="1" source="a-tTStyMwiT4IHlMWAO0-411" target="a-tTStyMwiT4IHlMWAO0-416">
          <mxGeometry relative="1" as="geometry" />
        </mxCell>
        <mxCell id="a-tTStyMwiT4IHlMWAO0-435" style="edgeStyle=none;rounded=0;orthogonalLoop=1;jettySize=auto;html=1;exitX=1;exitY=0.5;exitDx=0;exitDy=0;entryX=0;entryY=0.5;entryDx=0;entryDy=0;" edge="1" parent="1" source="a-tTStyMwiT4IHlMWAO0-411" target="a-tTStyMwiT4IHlMWAO0-426">
          <mxGeometry relative="1" as="geometry" />
        </mxCell>
        <mxCell id="a-tTStyMwiT4IHlMWAO0-436" value="ht[0]" style="text;html=1;strokeColor=none;fillColor=none;align=center;verticalAlign=middle;whiteSpace=wrap;rounded=0;" vertex="1" parent="1">
          <mxGeometry x="240" y="2460" width="40" height="20" as="geometry" />
        </mxCell>
        <mxCell id="a-tTStyMwiT4IHlMWAO0-437" value="ht[1]" style="text;html=1;strokeColor=none;fillColor=none;align=center;verticalAlign=middle;whiteSpace=wrap;rounded=0;" vertex="1" parent="1">
          <mxGeometry x="250" y="2650" width="40" height="20" as="geometry" />
        </mxCell>
        <mxCell id="a-tTStyMwiT4IHlMWAO0-438" value="" style="shape=table;html=1;whiteSpace=wrap;startSize=0;container=1;collapsible=0;childLayout=tableLayout;sketch=0;" vertex="1" parent="1">
          <mxGeometry x="480" y="2420" width="90" height="200" as="geometry" />
        </mxCell>
        <mxCell id="a-tTStyMwiT4IHlMWAO0-439" style="shape=partialRectangle;html=1;whiteSpace=wrap;collapsible=0;dropTarget=0;pointerEvents=0;fillColor=none;top=0;left=0;bottom=0;right=0;points=[[0,0.5],[1,0.5]];portConstraint=eastwest;" vertex="1" parent="a-tTStyMwiT4IHlMWAO0-438">
          <mxGeometry width="90" height="40" as="geometry" />
        </mxCell>
        <mxCell id="a-tTStyMwiT4IHlMWAO0-440" value="dictEntry*[4]" style="shape=partialRectangle;html=1;whiteSpace=wrap;connectable=0;fillColor=#fff2cc;top=0;left=0;bottom=0;right=0;overflow=hidden;strokeColor=#d6b656;" vertex="1" parent="a-tTStyMwiT4IHlMWAO0-439">
          <mxGeometry width="90" height="40" as="geometry" />
        </mxCell>
        <mxCell id="a-tTStyMwiT4IHlMWAO0-441" style="shape=partialRectangle;html=1;whiteSpace=wrap;collapsible=0;dropTarget=0;pointerEvents=0;fillColor=none;top=0;left=0;bottom=0;right=0;points=[[0,0.5],[1,0.5]];portConstraint=eastwest;" vertex="1" parent="a-tTStyMwiT4IHlMWAO0-438">
          <mxGeometry y="40" width="90" height="40" as="geometry" />
        </mxCell>
        <mxCell id="a-tTStyMwiT4IHlMWAO0-442" value="0" style="shape=partialRectangle;html=1;whiteSpace=wrap;connectable=0;fillColor=none;top=0;left=0;bottom=0;right=0;overflow=hidden;" vertex="1" parent="a-tTStyMwiT4IHlMWAO0-441">
          <mxGeometry width="90" height="40" as="geometry" />
        </mxCell>
        <mxCell id="a-tTStyMwiT4IHlMWAO0-443" style="shape=partialRectangle;html=1;whiteSpace=wrap;collapsible=0;dropTarget=0;pointerEvents=0;fillColor=none;top=0;left=0;bottom=0;right=0;points=[[0,0.5],[1,0.5]];portConstraint=eastwest;" vertex="1" parent="a-tTStyMwiT4IHlMWAO0-438">
          <mxGeometry y="80" width="90" height="40" as="geometry" />
        </mxCell>
        <mxCell id="a-tTStyMwiT4IHlMWAO0-444" value="1" style="shape=partialRectangle;html=1;whiteSpace=wrap;connectable=0;fillColor=none;top=0;left=0;bottom=0;right=0;overflow=hidden;" vertex="1" parent="a-tTStyMwiT4IHlMWAO0-443">
          <mxGeometry width="90" height="40" as="geometry" />
        </mxCell>
        <mxCell id="a-tTStyMwiT4IHlMWAO0-445" style="shape=partialRectangle;html=1;whiteSpace=wrap;collapsible=0;dropTarget=0;pointerEvents=0;fillColor=none;top=0;left=0;bottom=0;right=0;points=[[0,0.5],[1,0.5]];portConstraint=eastwest;" vertex="1" parent="a-tTStyMwiT4IHlMWAO0-438">
          <mxGeometry y="120" width="90" height="40" as="geometry" />
        </mxCell>
        <mxCell id="a-tTStyMwiT4IHlMWAO0-446" value="2" style="shape=partialRectangle;html=1;whiteSpace=wrap;connectable=0;fillColor=none;top=0;left=0;bottom=0;right=0;overflow=hidden;" vertex="1" parent="a-tTStyMwiT4IHlMWAO0-445">
          <mxGeometry width="90" height="40" as="geometry" />
        </mxCell>
        <mxCell id="a-tTStyMwiT4IHlMWAO0-447" style="shape=partialRectangle;html=1;whiteSpace=wrap;collapsible=0;dropTarget=0;pointerEvents=0;fillColor=none;top=0;left=0;bottom=0;right=0;points=[[0,0.5],[1,0.5]];portConstraint=eastwest;" vertex="1" parent="a-tTStyMwiT4IHlMWAO0-438">
          <mxGeometry y="160" width="90" height="40" as="geometry" />
        </mxCell>
        <mxCell id="a-tTStyMwiT4IHlMWAO0-448" value="3" style="shape=partialRectangle;html=1;whiteSpace=wrap;connectable=0;fillColor=none;top=0;left=0;bottom=0;right=0;overflow=hidden;" vertex="1" parent="a-tTStyMwiT4IHlMWAO0-447">
          <mxGeometry width="90" height="40" as="geometry" />
        </mxCell>
        <mxCell id="a-tTStyMwiT4IHlMWAO0-449" value="&lt;span&gt;dictEntry&lt;/span&gt;" style="rounded=0;whiteSpace=wrap;html=1;" vertex="1" parent="1">
          <mxGeometry x="640" y="2933" width="80" height="30" as="geometry" />
        </mxCell>
        <mxCell id="a-tTStyMwiT4IHlMWAO0-450" value="k2" style="rounded=0;whiteSpace=wrap;html=1;" vertex="1" parent="1">
          <mxGeometry x="640" y="2963" width="40" height="20" as="geometry" />
        </mxCell>
        <mxCell id="a-tTStyMwiT4IHlMWAO0-451" value="v2" style="rounded=0;whiteSpace=wrap;html=1;" vertex="1" parent="1">
          <mxGeometry x="680" y="2963" width="40" height="20" as="geometry" />
        </mxCell>
        <mxCell id="a-tTStyMwiT4IHlMWAO0-455" style="shape=partialRectangle;html=1;whiteSpace=wrap;collapsible=0;dropTarget=0;pointerEvents=0;fillColor=none;top=0;left=0;bottom=0;right=0;points=[[0,0.5],[1,0.5]];portConstraint=eastwest;" vertex="1" parent="1">
          <mxGeometry x="470" y="2670" width="90" height="40" as="geometry" />
        </mxCell>
        <mxCell id="a-tTStyMwiT4IHlMWAO0-456" value="dictEntry*[8]" style="shape=partialRectangle;html=1;whiteSpace=wrap;connectable=0;fillColor=#fff2cc;top=0;left=0;bottom=0;right=0;overflow=hidden;strokeColor=#d6b656;" vertex="1" parent="a-tTStyMwiT4IHlMWAO0-455">
          <mxGeometry width="90" height="40" as="geometry" />
        </mxCell>
        <mxCell id="a-tTStyMwiT4IHlMWAO0-457" style="shape=partialRectangle;html=1;whiteSpace=wrap;collapsible=0;dropTarget=0;pointerEvents=0;fillColor=none;top=0;left=0;bottom=0;right=0;points=[[0,0.5],[1,0.5]];portConstraint=eastwest;" vertex="1" parent="1">
          <mxGeometry x="470" y="2710" width="90" height="40" as="geometry" />
        </mxCell>
        <mxCell id="a-tTStyMwiT4IHlMWAO0-458" value="0" style="shape=partialRectangle;html=1;whiteSpace=wrap;connectable=0;fillColor=none;top=0;left=0;bottom=0;right=0;overflow=hidden;" vertex="1" parent="a-tTStyMwiT4IHlMWAO0-457">
          <mxGeometry width="90" height="40" as="geometry" />
        </mxCell>
        <mxCell id="a-tTStyMwiT4IHlMWAO0-459" style="shape=partialRectangle;html=1;whiteSpace=wrap;collapsible=0;dropTarget=0;pointerEvents=0;fillColor=none;top=0;left=0;bottom=0;right=0;points=[[0,0.5],[1,0.5]];portConstraint=eastwest;" vertex="1" parent="1">
          <mxGeometry x="470" y="2750" width="90" height="40" as="geometry" />
        </mxCell>
        <mxCell id="a-tTStyMwiT4IHlMWAO0-460" value="1" style="shape=partialRectangle;html=1;whiteSpace=wrap;connectable=0;fillColor=none;top=0;left=0;bottom=0;right=0;overflow=hidden;" vertex="1" parent="a-tTStyMwiT4IHlMWAO0-459">
          <mxGeometry width="90" height="40" as="geometry" />
        </mxCell>
        <mxCell id="a-tTStyMwiT4IHlMWAO0-461" style="shape=partialRectangle;html=1;whiteSpace=wrap;collapsible=0;dropTarget=0;pointerEvents=0;fillColor=none;top=0;left=0;bottom=0;right=0;points=[[0,0.5],[1,0.5]];portConstraint=eastwest;" vertex="1" parent="1">
          <mxGeometry x="470" y="2790" width="90" height="40" as="geometry" />
        </mxCell>
        <mxCell id="a-tTStyMwiT4IHlMWAO0-462" value="..." style="shape=partialRectangle;html=1;whiteSpace=wrap;connectable=0;fillColor=none;top=0;left=0;bottom=0;right=0;overflow=hidden;" vertex="1" parent="a-tTStyMwiT4IHlMWAO0-461">
          <mxGeometry width="90" height="40" as="geometry" />
        </mxCell>
        <mxCell id="a-tTStyMwiT4IHlMWAO0-463" style="edgeStyle=none;rounded=0;orthogonalLoop=1;jettySize=auto;html=1;exitX=1;exitY=0.5;exitDx=0;exitDy=0;entryX=0;entryY=0.5;entryDx=0;entryDy=0;" edge="1" parent="1" source="a-tTStyMwiT4IHlMWAO0-418" target="a-tTStyMwiT4IHlMWAO0-439">
          <mxGeometry relative="1" as="geometry" />
        </mxCell>
        <mxCell id="a-tTStyMwiT4IHlMWAO0-464" style="edgeStyle=none;rounded=0;orthogonalLoop=1;jettySize=auto;html=1;exitX=1;exitY=0.5;exitDx=0;exitDy=0;entryX=0;entryY=0.5;entryDx=0;entryDy=0;" edge="1" parent="1" source="a-tTStyMwiT4IHlMWAO0-428" target="a-tTStyMwiT4IHlMWAO0-455">
          <mxGeometry relative="1" as="geometry" />
        </mxCell>
        <mxCell id="a-tTStyMwiT4IHlMWAO0-466" value="" style="shape=table;html=1;whiteSpace=wrap;startSize=0;container=1;collapsible=0;childLayout=tableLayout;sketch=0;" vertex="1" parent="1">
          <mxGeometry x="330" y="2670" width="90" height="200" as="geometry" />
        </mxCell>
        <mxCell id="a-tTStyMwiT4IHlMWAO0-467" style="shape=partialRectangle;html=1;whiteSpace=wrap;collapsible=0;dropTarget=0;pointerEvents=0;fillColor=none;top=0;left=0;bottom=0;right=0;points=[[0,0.5],[1,0.5]];portConstraint=eastwest;" vertex="1" parent="a-tTStyMwiT4IHlMWAO0-466">
          <mxGeometry width="90" height="40" as="geometry" />
        </mxCell>
        <mxCell id="a-tTStyMwiT4IHlMWAO0-468" value="dictht" style="shape=partialRectangle;html=1;whiteSpace=wrap;connectable=0;fillColor=#fff2cc;top=0;left=0;bottom=0;right=0;overflow=hidden;strokeColor=#d6b656;" vertex="1" parent="a-tTStyMwiT4IHlMWAO0-467">
          <mxGeometry width="90" height="40" as="geometry" />
        </mxCell>
        <mxCell id="a-tTStyMwiT4IHlMWAO0-469" style="shape=partialRectangle;html=1;whiteSpace=wrap;collapsible=0;dropTarget=0;pointerEvents=0;fillColor=none;top=0;left=0;bottom=0;right=0;points=[[0,0.5],[1,0.5]];portConstraint=eastwest;" vertex="1" parent="a-tTStyMwiT4IHlMWAO0-466">
          <mxGeometry y="40" width="90" height="40" as="geometry" />
        </mxCell>
        <mxCell id="a-tTStyMwiT4IHlMWAO0-470" value="table" style="shape=partialRectangle;html=1;whiteSpace=wrap;connectable=0;fillColor=none;top=0;left=0;bottom=0;right=0;overflow=hidden;" vertex="1" parent="a-tTStyMwiT4IHlMWAO0-469">
          <mxGeometry width="90" height="40" as="geometry" />
        </mxCell>
        <mxCell id="a-tTStyMwiT4IHlMWAO0-471" style="shape=partialRectangle;html=1;whiteSpace=wrap;collapsible=0;dropTarget=0;pointerEvents=0;fillColor=none;top=0;left=0;bottom=0;right=0;points=[[0,0.5],[1,0.5]];portConstraint=eastwest;" vertex="1" parent="a-tTStyMwiT4IHlMWAO0-466">
          <mxGeometry y="80" width="90" height="40" as="geometry" />
        </mxCell>
        <mxCell id="a-tTStyMwiT4IHlMWAO0-472" value="size&lt;br&gt;8" style="shape=partialRectangle;html=1;whiteSpace=wrap;connectable=0;fillColor=none;top=0;left=0;bottom=0;right=0;overflow=hidden;" vertex="1" parent="a-tTStyMwiT4IHlMWAO0-471">
          <mxGeometry width="90" height="40" as="geometry" />
        </mxCell>
        <mxCell id="a-tTStyMwiT4IHlMWAO0-473" style="shape=partialRectangle;html=1;whiteSpace=wrap;collapsible=0;dropTarget=0;pointerEvents=0;fillColor=none;top=0;left=0;bottom=0;right=0;points=[[0,0.5],[1,0.5]];portConstraint=eastwest;" vertex="1" parent="a-tTStyMwiT4IHlMWAO0-466">
          <mxGeometry y="120" width="90" height="40" as="geometry" />
        </mxCell>
        <mxCell id="a-tTStyMwiT4IHlMWAO0-474" value="sizemask&lt;br&gt;7" style="shape=partialRectangle;html=1;whiteSpace=wrap;connectable=0;fillColor=none;top=0;left=0;bottom=0;right=0;overflow=hidden;" vertex="1" parent="a-tTStyMwiT4IHlMWAO0-473">
          <mxGeometry width="90" height="40" as="geometry" />
        </mxCell>
        <mxCell id="a-tTStyMwiT4IHlMWAO0-475" style="shape=partialRectangle;html=1;whiteSpace=wrap;collapsible=0;dropTarget=0;pointerEvents=0;fillColor=none;top=0;left=0;bottom=0;right=0;points=[[0,0.5],[1,0.5]];portConstraint=eastwest;" vertex="1" parent="a-tTStyMwiT4IHlMWAO0-466">
          <mxGeometry y="160" width="90" height="40" as="geometry" />
        </mxCell>
        <mxCell id="a-tTStyMwiT4IHlMWAO0-476" value="used&lt;br&gt;4" style="shape=partialRectangle;html=1;whiteSpace=wrap;connectable=0;fillColor=none;top=0;left=0;bottom=0;right=0;overflow=hidden;" vertex="1" parent="a-tTStyMwiT4IHlMWAO0-475">
          <mxGeometry width="90" height="40" as="geometry" />
        </mxCell>
        <mxCell id="a-tTStyMwiT4IHlMWAO0-477" value="" style="shape=table;html=1;whiteSpace=wrap;startSize=0;container=1;collapsible=0;childLayout=tableLayout;sketch=0;" vertex="1" parent="1">
          <mxGeometry x="470" y="2670" width="90" height="320" as="geometry" />
        </mxCell>
        <mxCell id="a-tTStyMwiT4IHlMWAO0-478" style="shape=partialRectangle;html=1;whiteSpace=wrap;collapsible=0;dropTarget=0;pointerEvents=0;fillColor=none;top=0;left=0;bottom=0;right=0;points=[[0,0.5],[1,0.5]];portConstraint=eastwest;" vertex="1" parent="a-tTStyMwiT4IHlMWAO0-477">
          <mxGeometry width="90" height="40" as="geometry" />
        </mxCell>
        <mxCell id="a-tTStyMwiT4IHlMWAO0-479" value="dictEntry*[8]" style="shape=partialRectangle;html=1;whiteSpace=wrap;connectable=0;fillColor=#fff2cc;top=0;left=0;bottom=0;right=0;overflow=hidden;strokeColor=#d6b656;" vertex="1" parent="a-tTStyMwiT4IHlMWAO0-478">
          <mxGeometry width="90" height="40" as="geometry" />
        </mxCell>
        <mxCell id="a-tTStyMwiT4IHlMWAO0-480" style="shape=partialRectangle;html=1;whiteSpace=wrap;collapsible=0;dropTarget=0;pointerEvents=0;fillColor=none;top=0;left=0;bottom=0;right=0;points=[[0,0.5],[1,0.5]];portConstraint=eastwest;" vertex="1" parent="a-tTStyMwiT4IHlMWAO0-477">
          <mxGeometry y="40" width="90" height="40" as="geometry" />
        </mxCell>
        <mxCell id="a-tTStyMwiT4IHlMWAO0-481" value="0" style="shape=partialRectangle;html=1;whiteSpace=wrap;connectable=0;fillColor=none;top=0;left=0;bottom=0;right=0;overflow=hidden;" vertex="1" parent="a-tTStyMwiT4IHlMWAO0-480">
          <mxGeometry width="90" height="40" as="geometry" />
        </mxCell>
        <mxCell id="a-tTStyMwiT4IHlMWAO0-501" style="shape=partialRectangle;html=1;whiteSpace=wrap;collapsible=0;dropTarget=0;pointerEvents=0;fillColor=none;top=0;left=0;bottom=0;right=0;points=[[0,0.5],[1,0.5]];portConstraint=eastwest;" vertex="1" parent="a-tTStyMwiT4IHlMWAO0-477">
          <mxGeometry y="80" width="90" height="40" as="geometry" />
        </mxCell>
        <mxCell id="a-tTStyMwiT4IHlMWAO0-502" value="..." style="shape=partialRectangle;html=1;whiteSpace=wrap;connectable=0;fillColor=none;top=0;left=0;bottom=0;right=0;overflow=hidden;" vertex="1" parent="a-tTStyMwiT4IHlMWAO0-501">
          <mxGeometry width="90" height="40" as="geometry" />
        </mxCell>
        <mxCell id="a-tTStyMwiT4IHlMWAO0-499" style="shape=partialRectangle;html=1;whiteSpace=wrap;collapsible=0;dropTarget=0;pointerEvents=0;fillColor=none;top=0;left=0;bottom=0;right=0;points=[[0,0.5],[1,0.5]];portConstraint=eastwest;" vertex="1" parent="a-tTStyMwiT4IHlMWAO0-477">
          <mxGeometry y="120" width="90" height="40" as="geometry" />
        </mxCell>
        <mxCell id="a-tTStyMwiT4IHlMWAO0-500" value="3" style="shape=partialRectangle;html=1;whiteSpace=wrap;connectable=0;fillColor=none;top=0;left=0;bottom=0;right=0;overflow=hidden;" vertex="1" parent="a-tTStyMwiT4IHlMWAO0-499">
          <mxGeometry width="90" height="40" as="geometry" />
        </mxCell>
        <mxCell id="a-tTStyMwiT4IHlMWAO0-482" style="shape=partialRectangle;html=1;whiteSpace=wrap;collapsible=0;dropTarget=0;pointerEvents=0;fillColor=none;top=0;left=0;bottom=0;right=0;points=[[0,0.5],[1,0.5]];portConstraint=eastwest;" vertex="1" parent="a-tTStyMwiT4IHlMWAO0-477">
          <mxGeometry y="160" width="90" height="40" as="geometry" />
        </mxCell>
        <mxCell id="a-tTStyMwiT4IHlMWAO0-483" value=".." style="shape=partialRectangle;html=1;whiteSpace=wrap;connectable=0;fillColor=none;top=0;left=0;bottom=0;right=0;overflow=hidden;" vertex="1" parent="a-tTStyMwiT4IHlMWAO0-482">
          <mxGeometry width="90" height="40" as="geometry" />
        </mxCell>
        <mxCell id="a-tTStyMwiT4IHlMWAO0-484" style="shape=partialRectangle;html=1;whiteSpace=wrap;collapsible=0;dropTarget=0;pointerEvents=0;fillColor=none;top=0;left=0;bottom=0;right=0;points=[[0,0.5],[1,0.5]];portConstraint=eastwest;" vertex="1" parent="a-tTStyMwiT4IHlMWAO0-477">
          <mxGeometry y="200" width="90" height="40" as="geometry" />
        </mxCell>
        <mxCell id="a-tTStyMwiT4IHlMWAO0-485" value="5" style="shape=partialRectangle;html=1;whiteSpace=wrap;connectable=0;fillColor=none;top=0;left=0;bottom=0;right=0;overflow=hidden;" vertex="1" parent="a-tTStyMwiT4IHlMWAO0-484">
          <mxGeometry width="90" height="40" as="geometry" />
        </mxCell>
        <mxCell id="a-tTStyMwiT4IHlMWAO0-486" style="shape=partialRectangle;html=1;whiteSpace=wrap;collapsible=0;dropTarget=0;pointerEvents=0;fillColor=none;top=0;left=0;bottom=0;right=0;points=[[0,0.5],[1,0.5]];portConstraint=eastwest;" vertex="1" parent="a-tTStyMwiT4IHlMWAO0-477">
          <mxGeometry y="240" width="90" height="40" as="geometry" />
        </mxCell>
        <mxCell id="a-tTStyMwiT4IHlMWAO0-487" value="6" style="shape=partialRectangle;html=1;whiteSpace=wrap;connectable=0;fillColor=none;top=0;left=0;bottom=0;right=0;overflow=hidden;" vertex="1" parent="a-tTStyMwiT4IHlMWAO0-486">
          <mxGeometry width="90" height="40" as="geometry" />
        </mxCell>
        <mxCell id="a-tTStyMwiT4IHlMWAO0-488" style="shape=partialRectangle;html=1;whiteSpace=wrap;collapsible=0;dropTarget=0;pointerEvents=0;fillColor=none;top=0;left=0;bottom=0;right=0;points=[[0,0.5],[1,0.5]];portConstraint=eastwest;" vertex="1" parent="a-tTStyMwiT4IHlMWAO0-477">
          <mxGeometry y="280" width="90" height="40" as="geometry" />
        </mxCell>
        <mxCell id="a-tTStyMwiT4IHlMWAO0-489" value="..." style="shape=partialRectangle;html=1;whiteSpace=wrap;connectable=0;fillColor=none;top=0;left=0;bottom=0;right=0;overflow=hidden;" vertex="1" parent="a-tTStyMwiT4IHlMWAO0-488">
          <mxGeometry width="90" height="40" as="geometry" />
        </mxCell>
        <mxCell id="a-tTStyMwiT4IHlMWAO0-490" value="k0" style="rounded=0;whiteSpace=wrap;html=1;" vertex="1" parent="1">
          <mxGeometry x="640" y="2735" width="40" height="20" as="geometry" />
        </mxCell>
        <mxCell id="a-tTStyMwiT4IHlMWAO0-491" value="v0" style="rounded=0;whiteSpace=wrap;html=1;" vertex="1" parent="1">
          <mxGeometry x="680" y="2735" width="40" height="20" as="geometry" />
        </mxCell>
        <mxCell id="a-tTStyMwiT4IHlMWAO0-492" value="&lt;span&gt;dictEntry&lt;/span&gt;" style="rounded=0;whiteSpace=wrap;html=1;" vertex="1" parent="1">
          <mxGeometry x="640" y="2705" width="80" height="30" as="geometry" />
        </mxCell>
        <mxCell id="a-tTStyMwiT4IHlMWAO0-493" style="edgeStyle=none;rounded=0;orthogonalLoop=1;jettySize=auto;html=1;exitX=1;exitY=0.5;exitDx=0;exitDy=0;entryX=0;entryY=0.5;entryDx=0;entryDy=0;" edge="1" parent="1" source="a-tTStyMwiT4IHlMWAO0-480" target="a-tTStyMwiT4IHlMWAO0-492">
          <mxGeometry relative="1" as="geometry" />
        </mxCell>
        <mxCell id="a-tTStyMwiT4IHlMWAO0-494" value="&lt;span&gt;dictEntry&lt;/span&gt;" style="rounded=0;whiteSpace=wrap;html=1;" vertex="1" parent="1">
          <mxGeometry x="640" y="2863" width="80" height="30" as="geometry" />
        </mxCell>
        <mxCell id="a-tTStyMwiT4IHlMWAO0-495" value="k1" style="rounded=0;whiteSpace=wrap;html=1;" vertex="1" parent="1">
          <mxGeometry x="640" y="2893" width="40" height="20" as="geometry" />
        </mxCell>
        <mxCell id="a-tTStyMwiT4IHlMWAO0-496" value="v1" style="rounded=0;whiteSpace=wrap;html=1;" vertex="1" parent="1">
          <mxGeometry x="680" y="2893" width="40" height="20" as="geometry" />
        </mxCell>
        <mxCell id="a-tTStyMwiT4IHlMWAO0-497" style="edgeStyle=none;rounded=0;orthogonalLoop=1;jettySize=auto;html=1;exitX=1;exitY=0.5;exitDx=0;exitDy=0;entryX=0;entryY=0.5;entryDx=0;entryDy=0;" edge="1" parent="1" source="a-tTStyMwiT4IHlMWAO0-484" target="a-tTStyMwiT4IHlMWAO0-494">
          <mxGeometry relative="1" as="geometry" />
        </mxCell>
        <mxCell id="a-tTStyMwiT4IHlMWAO0-498" style="edgeStyle=none;rounded=0;orthogonalLoop=1;jettySize=auto;html=1;exitX=1;exitY=0.5;exitDx=0;exitDy=0;entryX=0;entryY=0.5;entryDx=0;entryDy=0;" edge="1" parent="1" source="a-tTStyMwiT4IHlMWAO0-486" target="a-tTStyMwiT4IHlMWAO0-449">
          <mxGeometry relative="1" as="geometry" />
        </mxCell>
        <mxCell id="a-tTStyMwiT4IHlMWAO0-503" value="&lt;span&gt;dictEntry&lt;/span&gt;" style="rounded=0;whiteSpace=wrap;html=1;" vertex="1" parent="1">
          <mxGeometry x="640" y="2785" width="80" height="30" as="geometry" />
        </mxCell>
        <mxCell id="a-tTStyMwiT4IHlMWAO0-504" value="k3" style="rounded=0;whiteSpace=wrap;html=1;" vertex="1" parent="1">
          <mxGeometry x="640" y="2815" width="40" height="20" as="geometry" />
        </mxCell>
        <mxCell id="a-tTStyMwiT4IHlMWAO0-505" value="v3" style="rounded=0;whiteSpace=wrap;html=1;" vertex="1" parent="1">
          <mxGeometry x="680" y="2815" width="40" height="20" as="geometry" />
        </mxCell>
        <mxCell id="a-tTStyMwiT4IHlMWAO0-506" style="edgeStyle=none;rounded=0;orthogonalLoop=1;jettySize=auto;html=1;exitX=1;exitY=0.5;exitDx=0;exitDy=0;entryX=0;entryY=0.5;entryDx=0;entryDy=0;" edge="1" parent="1" source="a-tTStyMwiT4IHlMWAO0-499" target="a-tTStyMwiT4IHlMWAO0-503">
          <mxGeometry relative="1" as="geometry" />
        </mxCell>
        <mxCell id="a-tTStyMwiT4IHlMWAO0-507" value="&lt;font style=&quot;font-size: 14px&quot;&gt;rehash完成&lt;/font&gt;" style="text;html=1;strokeColor=none;fillColor=none;align=center;verticalAlign=middle;whiteSpace=wrap;rounded=0;" vertex="1" parent="1">
          <mxGeometry x="315" y="3080" width="240" height="30" as="geometry" />
        </mxCell>
        <mxCell id="a-tTStyMwiT4IHlMWAO0-508" value="" style="shape=table;html=1;whiteSpace=wrap;startSize=0;container=1;collapsible=0;childLayout=tableLayout;sketch=0;" vertex="1" parent="1">
          <mxGeometry x="155" y="3240" width="90" height="120" as="geometry" />
        </mxCell>
        <mxCell id="a-tTStyMwiT4IHlMWAO0-509" style="shape=partialRectangle;html=1;whiteSpace=wrap;collapsible=0;dropTarget=0;pointerEvents=0;fillColor=none;top=0;left=0;bottom=0;right=0;points=[[0,0.5],[1,0.5]];portConstraint=eastwest;" vertex="1" parent="a-tTStyMwiT4IHlMWAO0-508">
          <mxGeometry width="90" height="40" as="geometry" />
        </mxCell>
        <mxCell id="a-tTStyMwiT4IHlMWAO0-510" value="dict" style="shape=partialRectangle;html=1;whiteSpace=wrap;connectable=0;fillColor=#fff2cc;top=0;left=0;bottom=0;right=0;overflow=hidden;strokeColor=#d6b656;" vertex="1" parent="a-tTStyMwiT4IHlMWAO0-509">
          <mxGeometry width="90" height="40" as="geometry" />
        </mxCell>
        <mxCell id="a-tTStyMwiT4IHlMWAO0-511" style="shape=partialRectangle;html=1;whiteSpace=wrap;collapsible=0;dropTarget=0;pointerEvents=0;fillColor=none;top=0;left=0;bottom=0;right=0;points=[[0,0.5],[1,0.5]];portConstraint=eastwest;" vertex="1" parent="a-tTStyMwiT4IHlMWAO0-508">
          <mxGeometry y="40" width="90" height="40" as="geometry" />
        </mxCell>
        <mxCell id="a-tTStyMwiT4IHlMWAO0-512" value="ht" style="shape=partialRectangle;html=1;whiteSpace=wrap;connectable=0;fillColor=none;top=0;left=0;bottom=0;right=0;overflow=hidden;" vertex="1" parent="a-tTStyMwiT4IHlMWAO0-511">
          <mxGeometry width="90" height="40" as="geometry" />
        </mxCell>
        <mxCell id="a-tTStyMwiT4IHlMWAO0-513" style="shape=partialRectangle;html=1;whiteSpace=wrap;collapsible=0;dropTarget=0;pointerEvents=0;fillColor=none;top=0;left=0;bottom=0;right=0;points=[[0,0.5],[1,0.5]];portConstraint=eastwest;" vertex="1" parent="a-tTStyMwiT4IHlMWAO0-508">
          <mxGeometry y="80" width="90" height="40" as="geometry" />
        </mxCell>
        <mxCell id="a-tTStyMwiT4IHlMWAO0-514" value="rehashindex&lt;br&gt;-1" style="shape=partialRectangle;html=1;whiteSpace=wrap;connectable=0;fillColor=none;top=0;left=0;bottom=0;right=0;overflow=hidden;" vertex="1" parent="a-tTStyMwiT4IHlMWAO0-513">
          <mxGeometry width="90" height="40" as="geometry" />
        </mxCell>
        <mxCell id="a-tTStyMwiT4IHlMWAO0-515" value="" style="shape=table;html=1;whiteSpace=wrap;startSize=0;container=1;collapsible=0;childLayout=tableLayout;sketch=0;" vertex="1" parent="1">
          <mxGeometry x="325" y="3150" width="90" height="200" as="geometry" />
        </mxCell>
        <mxCell id="a-tTStyMwiT4IHlMWAO0-516" style="shape=partialRectangle;html=1;whiteSpace=wrap;collapsible=0;dropTarget=0;pointerEvents=0;fillColor=none;top=0;left=0;bottom=0;right=0;points=[[0,0.5],[1,0.5]];portConstraint=eastwest;" vertex="1" parent="a-tTStyMwiT4IHlMWAO0-515">
          <mxGeometry width="90" height="40" as="geometry" />
        </mxCell>
        <mxCell id="a-tTStyMwiT4IHlMWAO0-517" value="dictht" style="shape=partialRectangle;html=1;whiteSpace=wrap;connectable=0;fillColor=#fff2cc;top=0;left=0;bottom=0;right=0;overflow=hidden;strokeColor=#d6b656;" vertex="1" parent="a-tTStyMwiT4IHlMWAO0-516">
          <mxGeometry width="90" height="40" as="geometry" />
        </mxCell>
        <mxCell id="a-tTStyMwiT4IHlMWAO0-518" style="shape=partialRectangle;html=1;whiteSpace=wrap;collapsible=0;dropTarget=0;pointerEvents=0;fillColor=none;top=0;left=0;bottom=0;right=0;points=[[0,0.5],[1,0.5]];portConstraint=eastwest;" vertex="1" parent="a-tTStyMwiT4IHlMWAO0-515">
          <mxGeometry y="40" width="90" height="40" as="geometry" />
        </mxCell>
        <mxCell id="a-tTStyMwiT4IHlMWAO0-519" value="table" style="shape=partialRectangle;html=1;whiteSpace=wrap;connectable=0;fillColor=none;top=0;left=0;bottom=0;right=0;overflow=hidden;" vertex="1" parent="a-tTStyMwiT4IHlMWAO0-518">
          <mxGeometry width="90" height="40" as="geometry" />
        </mxCell>
        <mxCell id="a-tTStyMwiT4IHlMWAO0-520" style="shape=partialRectangle;html=1;whiteSpace=wrap;collapsible=0;dropTarget=0;pointerEvents=0;fillColor=none;top=0;left=0;bottom=0;right=0;points=[[0,0.5],[1,0.5]];portConstraint=eastwest;" vertex="1" parent="a-tTStyMwiT4IHlMWAO0-515">
          <mxGeometry y="80" width="90" height="40" as="geometry" />
        </mxCell>
        <mxCell id="a-tTStyMwiT4IHlMWAO0-521" value="size&lt;br&gt;0" style="shape=partialRectangle;html=1;whiteSpace=wrap;connectable=0;fillColor=none;top=0;left=0;bottom=0;right=0;overflow=hidden;" vertex="1" parent="a-tTStyMwiT4IHlMWAO0-520">
          <mxGeometry width="90" height="40" as="geometry" />
        </mxCell>
        <mxCell id="a-tTStyMwiT4IHlMWAO0-522" style="shape=partialRectangle;html=1;whiteSpace=wrap;collapsible=0;dropTarget=0;pointerEvents=0;fillColor=none;top=0;left=0;bottom=0;right=0;points=[[0,0.5],[1,0.5]];portConstraint=eastwest;" vertex="1" parent="a-tTStyMwiT4IHlMWAO0-515">
          <mxGeometry y="120" width="90" height="40" as="geometry" />
        </mxCell>
        <mxCell id="a-tTStyMwiT4IHlMWAO0-523" value="sizemask&lt;br&gt;0" style="shape=partialRectangle;html=1;whiteSpace=wrap;connectable=0;fillColor=none;top=0;left=0;bottom=0;right=0;overflow=hidden;" vertex="1" parent="a-tTStyMwiT4IHlMWAO0-522">
          <mxGeometry width="90" height="40" as="geometry" />
        </mxCell>
        <mxCell id="a-tTStyMwiT4IHlMWAO0-524" style="shape=partialRectangle;html=1;whiteSpace=wrap;collapsible=0;dropTarget=0;pointerEvents=0;fillColor=none;top=0;left=0;bottom=0;right=0;points=[[0,0.5],[1,0.5]];portConstraint=eastwest;" vertex="1" parent="a-tTStyMwiT4IHlMWAO0-515">
          <mxGeometry y="160" width="90" height="40" as="geometry" />
        </mxCell>
        <mxCell id="a-tTStyMwiT4IHlMWAO0-525" value="used&lt;br&gt;0" style="shape=partialRectangle;html=1;whiteSpace=wrap;connectable=0;fillColor=none;top=0;left=0;bottom=0;right=0;overflow=hidden;" vertex="1" parent="a-tTStyMwiT4IHlMWAO0-524">
          <mxGeometry width="90" height="40" as="geometry" />
        </mxCell>
        <mxCell id="a-tTStyMwiT4IHlMWAO0-526" style="shape=partialRectangle;html=1;whiteSpace=wrap;collapsible=0;dropTarget=0;pointerEvents=0;fillColor=none;top=0;left=0;bottom=0;right=0;points=[[0,0.5],[1,0.5]];portConstraint=eastwest;" vertex="1" parent="1">
          <mxGeometry x="325" y="3400" width="90" height="40" as="geometry" />
        </mxCell>
        <mxCell id="a-tTStyMwiT4IHlMWAO0-527" value="dictht" style="shape=partialRectangle;html=1;whiteSpace=wrap;connectable=0;fillColor=#fff2cc;top=0;left=0;bottom=0;right=0;overflow=hidden;strokeColor=#d6b656;" vertex="1" parent="a-tTStyMwiT4IHlMWAO0-526">
          <mxGeometry width="90" height="40" as="geometry" />
        </mxCell>
        <mxCell id="a-tTStyMwiT4IHlMWAO0-528" style="shape=partialRectangle;html=1;whiteSpace=wrap;collapsible=0;dropTarget=0;pointerEvents=0;fillColor=none;top=0;left=0;bottom=0;right=0;points=[[0,0.5],[1,0.5]];portConstraint=eastwest;" vertex="1" parent="1">
          <mxGeometry x="325" y="3440" width="90" height="40" as="geometry" />
        </mxCell>
        <mxCell id="a-tTStyMwiT4IHlMWAO0-529" value="table" style="shape=partialRectangle;html=1;whiteSpace=wrap;connectable=0;fillColor=none;top=0;left=0;bottom=0;right=0;overflow=hidden;" vertex="1" parent="a-tTStyMwiT4IHlMWAO0-528">
          <mxGeometry width="90" height="40" as="geometry" />
        </mxCell>
        <mxCell id="a-tTStyMwiT4IHlMWAO0-530" style="shape=partialRectangle;html=1;whiteSpace=wrap;collapsible=0;dropTarget=0;pointerEvents=0;fillColor=none;top=0;left=0;bottom=0;right=0;points=[[0,0.5],[1,0.5]];portConstraint=eastwest;" vertex="1" parent="1">
          <mxGeometry x="325" y="3480" width="90" height="40" as="geometry" />
        </mxCell>
        <mxCell id="a-tTStyMwiT4IHlMWAO0-531" value="size&lt;br&gt;8" style="shape=partialRectangle;html=1;whiteSpace=wrap;connectable=0;fillColor=none;top=0;left=0;bottom=0;right=0;overflow=hidden;" vertex="1" parent="a-tTStyMwiT4IHlMWAO0-530">
          <mxGeometry width="90" height="40" as="geometry" />
        </mxCell>
        <mxCell id="a-tTStyMwiT4IHlMWAO0-532" style="shape=partialRectangle;html=1;whiteSpace=wrap;collapsible=0;dropTarget=0;pointerEvents=0;fillColor=none;top=0;left=0;bottom=0;right=0;points=[[0,0.5],[1,0.5]];portConstraint=eastwest;" vertex="1" parent="1">
          <mxGeometry x="325" y="3520" width="90" height="40" as="geometry" />
        </mxCell>
        <mxCell id="a-tTStyMwiT4IHlMWAO0-533" value="sizemask&lt;br&gt;7" style="shape=partialRectangle;html=1;whiteSpace=wrap;connectable=0;fillColor=none;top=0;left=0;bottom=0;right=0;overflow=hidden;" vertex="1" parent="a-tTStyMwiT4IHlMWAO0-532">
          <mxGeometry width="90" height="40" as="geometry" />
        </mxCell>
        <mxCell id="a-tTStyMwiT4IHlMWAO0-534" style="rounded=0;orthogonalLoop=1;jettySize=auto;html=1;exitX=1;exitY=0.5;exitDx=0;exitDy=0;entryX=0;entryY=0.5;entryDx=0;entryDy=0;" edge="1" parent="1" source="a-tTStyMwiT4IHlMWAO0-511" target="a-tTStyMwiT4IHlMWAO0-516">
          <mxGeometry relative="1" as="geometry" />
        </mxCell>
        <mxCell id="a-tTStyMwiT4IHlMWAO0-535" style="edgeStyle=none;rounded=0;orthogonalLoop=1;jettySize=auto;html=1;exitX=1;exitY=0.5;exitDx=0;exitDy=0;entryX=0;entryY=0.5;entryDx=0;entryDy=0;" edge="1" parent="1" source="a-tTStyMwiT4IHlMWAO0-511" target="a-tTStyMwiT4IHlMWAO0-526">
          <mxGeometry relative="1" as="geometry" />
        </mxCell>
        <mxCell id="a-tTStyMwiT4IHlMWAO0-536" value="ht[1]" style="text;html=1;strokeColor=none;fillColor=none;align=center;verticalAlign=middle;whiteSpace=wrap;rounded=0;" vertex="1" parent="1">
          <mxGeometry x="235" y="3190" width="40" height="20" as="geometry" />
        </mxCell>
        <mxCell id="a-tTStyMwiT4IHlMWAO0-537" value="ht[0]" style="text;html=1;strokeColor=none;fillColor=none;align=center;verticalAlign=middle;whiteSpace=wrap;rounded=0;" vertex="1" parent="1">
          <mxGeometry x="245" y="3380" width="40" height="20" as="geometry" />
        </mxCell>
        <mxCell id="a-tTStyMwiT4IHlMWAO0-549" value="&lt;span&gt;dictEntry&lt;/span&gt;" style="rounded=0;whiteSpace=wrap;html=1;" vertex="1" parent="1">
          <mxGeometry x="635" y="3663" width="80" height="30" as="geometry" />
        </mxCell>
        <mxCell id="a-tTStyMwiT4IHlMWAO0-550" value="k2" style="rounded=0;whiteSpace=wrap;html=1;" vertex="1" parent="1">
          <mxGeometry x="635" y="3693" width="40" height="20" as="geometry" />
        </mxCell>
        <mxCell id="a-tTStyMwiT4IHlMWAO0-551" value="v2" style="rounded=0;whiteSpace=wrap;html=1;" vertex="1" parent="1">
          <mxGeometry x="675" y="3693" width="40" height="20" as="geometry" />
        </mxCell>
        <mxCell id="a-tTStyMwiT4IHlMWAO0-552" style="shape=partialRectangle;html=1;whiteSpace=wrap;collapsible=0;dropTarget=0;pointerEvents=0;fillColor=none;top=0;left=0;bottom=0;right=0;points=[[0,0.5],[1,0.5]];portConstraint=eastwest;" vertex="1" parent="1">
          <mxGeometry x="465" y="3400" width="90" height="40" as="geometry" />
        </mxCell>
        <mxCell id="a-tTStyMwiT4IHlMWAO0-553" value="dictEntry*[8]" style="shape=partialRectangle;html=1;whiteSpace=wrap;connectable=0;fillColor=#fff2cc;top=0;left=0;bottom=0;right=0;overflow=hidden;strokeColor=#d6b656;" vertex="1" parent="a-tTStyMwiT4IHlMWAO0-552">
          <mxGeometry width="90" height="40" as="geometry" />
        </mxCell>
        <mxCell id="a-tTStyMwiT4IHlMWAO0-554" style="shape=partialRectangle;html=1;whiteSpace=wrap;collapsible=0;dropTarget=0;pointerEvents=0;fillColor=none;top=0;left=0;bottom=0;right=0;points=[[0,0.5],[1,0.5]];portConstraint=eastwest;" vertex="1" parent="1">
          <mxGeometry x="465" y="3440" width="90" height="40" as="geometry" />
        </mxCell>
        <mxCell id="a-tTStyMwiT4IHlMWAO0-555" value="0" style="shape=partialRectangle;html=1;whiteSpace=wrap;connectable=0;fillColor=none;top=0;left=0;bottom=0;right=0;overflow=hidden;" vertex="1" parent="a-tTStyMwiT4IHlMWAO0-554">
          <mxGeometry width="90" height="40" as="geometry" />
        </mxCell>
        <mxCell id="a-tTStyMwiT4IHlMWAO0-556" style="shape=partialRectangle;html=1;whiteSpace=wrap;collapsible=0;dropTarget=0;pointerEvents=0;fillColor=none;top=0;left=0;bottom=0;right=0;points=[[0,0.5],[1,0.5]];portConstraint=eastwest;" vertex="1" parent="1">
          <mxGeometry x="465" y="3480" width="90" height="40" as="geometry" />
        </mxCell>
        <mxCell id="a-tTStyMwiT4IHlMWAO0-557" value="1" style="shape=partialRectangle;html=1;whiteSpace=wrap;connectable=0;fillColor=none;top=0;left=0;bottom=0;right=0;overflow=hidden;" vertex="1" parent="a-tTStyMwiT4IHlMWAO0-556">
          <mxGeometry width="90" height="40" as="geometry" />
        </mxCell>
        <mxCell id="a-tTStyMwiT4IHlMWAO0-558" style="shape=partialRectangle;html=1;whiteSpace=wrap;collapsible=0;dropTarget=0;pointerEvents=0;fillColor=none;top=0;left=0;bottom=0;right=0;points=[[0,0.5],[1,0.5]];portConstraint=eastwest;" vertex="1" parent="1">
          <mxGeometry x="465" y="3520" width="90" height="40" as="geometry" />
        </mxCell>
        <mxCell id="a-tTStyMwiT4IHlMWAO0-559" value="..." style="shape=partialRectangle;html=1;whiteSpace=wrap;connectable=0;fillColor=none;top=0;left=0;bottom=0;right=0;overflow=hidden;" vertex="1" parent="a-tTStyMwiT4IHlMWAO0-558">
          <mxGeometry width="90" height="40" as="geometry" />
        </mxCell>
        <mxCell id="a-tTStyMwiT4IHlMWAO0-560" style="edgeStyle=none;rounded=0;orthogonalLoop=1;jettySize=auto;html=1;exitX=1;exitY=0.5;exitDx=0;exitDy=0;entryX=0;entryY=0.5;entryDx=0;entryDy=0;" edge="1" parent="1" source="a-tTStyMwiT4IHlMWAO0-518">
          <mxGeometry relative="1" as="geometry">
            <mxPoint x="475" y="3170" as="targetPoint" />
          </mxGeometry>
        </mxCell>
        <mxCell id="a-tTStyMwiT4IHlMWAO0-561" style="edgeStyle=none;rounded=0;orthogonalLoop=1;jettySize=auto;html=1;exitX=1;exitY=0.5;exitDx=0;exitDy=0;entryX=0;entryY=0.5;entryDx=0;entryDy=0;" edge="1" parent="1" source="a-tTStyMwiT4IHlMWAO0-528" target="a-tTStyMwiT4IHlMWAO0-552">
          <mxGeometry relative="1" as="geometry" />
        </mxCell>
        <mxCell id="a-tTStyMwiT4IHlMWAO0-562" value="" style="shape=table;html=1;whiteSpace=wrap;startSize=0;container=1;collapsible=0;childLayout=tableLayout;sketch=0;" vertex="1" parent="1">
          <mxGeometry x="325" y="3400" width="90" height="200" as="geometry" />
        </mxCell>
        <mxCell id="a-tTStyMwiT4IHlMWAO0-563" style="shape=partialRectangle;html=1;whiteSpace=wrap;collapsible=0;dropTarget=0;pointerEvents=0;fillColor=none;top=0;left=0;bottom=0;right=0;points=[[0,0.5],[1,0.5]];portConstraint=eastwest;" vertex="1" parent="a-tTStyMwiT4IHlMWAO0-562">
          <mxGeometry width="90" height="40" as="geometry" />
        </mxCell>
        <mxCell id="a-tTStyMwiT4IHlMWAO0-564" value="dictht" style="shape=partialRectangle;html=1;whiteSpace=wrap;connectable=0;fillColor=#fff2cc;top=0;left=0;bottom=0;right=0;overflow=hidden;strokeColor=#d6b656;" vertex="1" parent="a-tTStyMwiT4IHlMWAO0-563">
          <mxGeometry width="90" height="40" as="geometry" />
        </mxCell>
        <mxCell id="a-tTStyMwiT4IHlMWAO0-565" style="shape=partialRectangle;html=1;whiteSpace=wrap;collapsible=0;dropTarget=0;pointerEvents=0;fillColor=none;top=0;left=0;bottom=0;right=0;points=[[0,0.5],[1,0.5]];portConstraint=eastwest;" vertex="1" parent="a-tTStyMwiT4IHlMWAO0-562">
          <mxGeometry y="40" width="90" height="40" as="geometry" />
        </mxCell>
        <mxCell id="a-tTStyMwiT4IHlMWAO0-566" value="table" style="shape=partialRectangle;html=1;whiteSpace=wrap;connectable=0;fillColor=none;top=0;left=0;bottom=0;right=0;overflow=hidden;" vertex="1" parent="a-tTStyMwiT4IHlMWAO0-565">
          <mxGeometry width="90" height="40" as="geometry" />
        </mxCell>
        <mxCell id="a-tTStyMwiT4IHlMWAO0-567" style="shape=partialRectangle;html=1;whiteSpace=wrap;collapsible=0;dropTarget=0;pointerEvents=0;fillColor=none;top=0;left=0;bottom=0;right=0;points=[[0,0.5],[1,0.5]];portConstraint=eastwest;" vertex="1" parent="a-tTStyMwiT4IHlMWAO0-562">
          <mxGeometry y="80" width="90" height="40" as="geometry" />
        </mxCell>
        <mxCell id="a-tTStyMwiT4IHlMWAO0-568" value="size&lt;br&gt;8" style="shape=partialRectangle;html=1;whiteSpace=wrap;connectable=0;fillColor=none;top=0;left=0;bottom=0;right=0;overflow=hidden;" vertex="1" parent="a-tTStyMwiT4IHlMWAO0-567">
          <mxGeometry width="90" height="40" as="geometry" />
        </mxCell>
        <mxCell id="a-tTStyMwiT4IHlMWAO0-569" style="shape=partialRectangle;html=1;whiteSpace=wrap;collapsible=0;dropTarget=0;pointerEvents=0;fillColor=none;top=0;left=0;bottom=0;right=0;points=[[0,0.5],[1,0.5]];portConstraint=eastwest;" vertex="1" parent="a-tTStyMwiT4IHlMWAO0-562">
          <mxGeometry y="120" width="90" height="40" as="geometry" />
        </mxCell>
        <mxCell id="a-tTStyMwiT4IHlMWAO0-570" value="sizemask&lt;br&gt;7" style="shape=partialRectangle;html=1;whiteSpace=wrap;connectable=0;fillColor=none;top=0;left=0;bottom=0;right=0;overflow=hidden;" vertex="1" parent="a-tTStyMwiT4IHlMWAO0-569">
          <mxGeometry width="90" height="40" as="geometry" />
        </mxCell>
        <mxCell id="a-tTStyMwiT4IHlMWAO0-571" style="shape=partialRectangle;html=1;whiteSpace=wrap;collapsible=0;dropTarget=0;pointerEvents=0;fillColor=none;top=0;left=0;bottom=0;right=0;points=[[0,0.5],[1,0.5]];portConstraint=eastwest;" vertex="1" parent="a-tTStyMwiT4IHlMWAO0-562">
          <mxGeometry y="160" width="90" height="40" as="geometry" />
        </mxCell>
        <mxCell id="a-tTStyMwiT4IHlMWAO0-572" value="used&lt;br&gt;4" style="shape=partialRectangle;html=1;whiteSpace=wrap;connectable=0;fillColor=none;top=0;left=0;bottom=0;right=0;overflow=hidden;" vertex="1" parent="a-tTStyMwiT4IHlMWAO0-571">
          <mxGeometry width="90" height="40" as="geometry" />
        </mxCell>
        <mxCell id="a-tTStyMwiT4IHlMWAO0-573" value="" style="shape=table;html=1;whiteSpace=wrap;startSize=0;container=1;collapsible=0;childLayout=tableLayout;sketch=0;" vertex="1" parent="1">
          <mxGeometry x="465" y="3400" width="90" height="320" as="geometry" />
        </mxCell>
        <mxCell id="a-tTStyMwiT4IHlMWAO0-574" style="shape=partialRectangle;html=1;whiteSpace=wrap;collapsible=0;dropTarget=0;pointerEvents=0;fillColor=none;top=0;left=0;bottom=0;right=0;points=[[0,0.5],[1,0.5]];portConstraint=eastwest;" vertex="1" parent="a-tTStyMwiT4IHlMWAO0-573">
          <mxGeometry width="90" height="40" as="geometry" />
        </mxCell>
        <mxCell id="a-tTStyMwiT4IHlMWAO0-575" value="dictEntry*[8]" style="shape=partialRectangle;html=1;whiteSpace=wrap;connectable=0;fillColor=#fff2cc;top=0;left=0;bottom=0;right=0;overflow=hidden;strokeColor=#d6b656;" vertex="1" parent="a-tTStyMwiT4IHlMWAO0-574">
          <mxGeometry width="90" height="40" as="geometry" />
        </mxCell>
        <mxCell id="a-tTStyMwiT4IHlMWAO0-576" style="shape=partialRectangle;html=1;whiteSpace=wrap;collapsible=0;dropTarget=0;pointerEvents=0;fillColor=none;top=0;left=0;bottom=0;right=0;points=[[0,0.5],[1,0.5]];portConstraint=eastwest;" vertex="1" parent="a-tTStyMwiT4IHlMWAO0-573">
          <mxGeometry y="40" width="90" height="40" as="geometry" />
        </mxCell>
        <mxCell id="a-tTStyMwiT4IHlMWAO0-577" value="0" style="shape=partialRectangle;html=1;whiteSpace=wrap;connectable=0;fillColor=none;top=0;left=0;bottom=0;right=0;overflow=hidden;" vertex="1" parent="a-tTStyMwiT4IHlMWAO0-576">
          <mxGeometry width="90" height="40" as="geometry" />
        </mxCell>
        <mxCell id="a-tTStyMwiT4IHlMWAO0-578" style="shape=partialRectangle;html=1;whiteSpace=wrap;collapsible=0;dropTarget=0;pointerEvents=0;fillColor=none;top=0;left=0;bottom=0;right=0;points=[[0,0.5],[1,0.5]];portConstraint=eastwest;" vertex="1" parent="a-tTStyMwiT4IHlMWAO0-573">
          <mxGeometry y="80" width="90" height="40" as="geometry" />
        </mxCell>
        <mxCell id="a-tTStyMwiT4IHlMWAO0-579" value="..." style="shape=partialRectangle;html=1;whiteSpace=wrap;connectable=0;fillColor=none;top=0;left=0;bottom=0;right=0;overflow=hidden;" vertex="1" parent="a-tTStyMwiT4IHlMWAO0-578">
          <mxGeometry width="90" height="40" as="geometry" />
        </mxCell>
        <mxCell id="a-tTStyMwiT4IHlMWAO0-580" style="shape=partialRectangle;html=1;whiteSpace=wrap;collapsible=0;dropTarget=0;pointerEvents=0;fillColor=none;top=0;left=0;bottom=0;right=0;points=[[0,0.5],[1,0.5]];portConstraint=eastwest;" vertex="1" parent="a-tTStyMwiT4IHlMWAO0-573">
          <mxGeometry y="120" width="90" height="40" as="geometry" />
        </mxCell>
        <mxCell id="a-tTStyMwiT4IHlMWAO0-581" value="3" style="shape=partialRectangle;html=1;whiteSpace=wrap;connectable=0;fillColor=none;top=0;left=0;bottom=0;right=0;overflow=hidden;" vertex="1" parent="a-tTStyMwiT4IHlMWAO0-580">
          <mxGeometry width="90" height="40" as="geometry" />
        </mxCell>
        <mxCell id="a-tTStyMwiT4IHlMWAO0-582" style="shape=partialRectangle;html=1;whiteSpace=wrap;collapsible=0;dropTarget=0;pointerEvents=0;fillColor=none;top=0;left=0;bottom=0;right=0;points=[[0,0.5],[1,0.5]];portConstraint=eastwest;" vertex="1" parent="a-tTStyMwiT4IHlMWAO0-573">
          <mxGeometry y="160" width="90" height="40" as="geometry" />
        </mxCell>
        <mxCell id="a-tTStyMwiT4IHlMWAO0-583" value=".." style="shape=partialRectangle;html=1;whiteSpace=wrap;connectable=0;fillColor=none;top=0;left=0;bottom=0;right=0;overflow=hidden;" vertex="1" parent="a-tTStyMwiT4IHlMWAO0-582">
          <mxGeometry width="90" height="40" as="geometry" />
        </mxCell>
        <mxCell id="a-tTStyMwiT4IHlMWAO0-584" style="shape=partialRectangle;html=1;whiteSpace=wrap;collapsible=0;dropTarget=0;pointerEvents=0;fillColor=none;top=0;left=0;bottom=0;right=0;points=[[0,0.5],[1,0.5]];portConstraint=eastwest;" vertex="1" parent="a-tTStyMwiT4IHlMWAO0-573">
          <mxGeometry y="200" width="90" height="40" as="geometry" />
        </mxCell>
        <mxCell id="a-tTStyMwiT4IHlMWAO0-585" value="5" style="shape=partialRectangle;html=1;whiteSpace=wrap;connectable=0;fillColor=none;top=0;left=0;bottom=0;right=0;overflow=hidden;" vertex="1" parent="a-tTStyMwiT4IHlMWAO0-584">
          <mxGeometry width="90" height="40" as="geometry" />
        </mxCell>
        <mxCell id="a-tTStyMwiT4IHlMWAO0-586" style="shape=partialRectangle;html=1;whiteSpace=wrap;collapsible=0;dropTarget=0;pointerEvents=0;fillColor=none;top=0;left=0;bottom=0;right=0;points=[[0,0.5],[1,0.5]];portConstraint=eastwest;" vertex="1" parent="a-tTStyMwiT4IHlMWAO0-573">
          <mxGeometry y="240" width="90" height="40" as="geometry" />
        </mxCell>
        <mxCell id="a-tTStyMwiT4IHlMWAO0-587" value="6" style="shape=partialRectangle;html=1;whiteSpace=wrap;connectable=0;fillColor=none;top=0;left=0;bottom=0;right=0;overflow=hidden;" vertex="1" parent="a-tTStyMwiT4IHlMWAO0-586">
          <mxGeometry width="90" height="40" as="geometry" />
        </mxCell>
        <mxCell id="a-tTStyMwiT4IHlMWAO0-588" style="shape=partialRectangle;html=1;whiteSpace=wrap;collapsible=0;dropTarget=0;pointerEvents=0;fillColor=none;top=0;left=0;bottom=0;right=0;points=[[0,0.5],[1,0.5]];portConstraint=eastwest;" vertex="1" parent="a-tTStyMwiT4IHlMWAO0-573">
          <mxGeometry y="280" width="90" height="40" as="geometry" />
        </mxCell>
        <mxCell id="a-tTStyMwiT4IHlMWAO0-589" value="..." style="shape=partialRectangle;html=1;whiteSpace=wrap;connectable=0;fillColor=none;top=0;left=0;bottom=0;right=0;overflow=hidden;" vertex="1" parent="a-tTStyMwiT4IHlMWAO0-588">
          <mxGeometry width="90" height="40" as="geometry" />
        </mxCell>
        <mxCell id="a-tTStyMwiT4IHlMWAO0-590" value="k0" style="rounded=0;whiteSpace=wrap;html=1;" vertex="1" parent="1">
          <mxGeometry x="635" y="3465" width="40" height="20" as="geometry" />
        </mxCell>
        <mxCell id="a-tTStyMwiT4IHlMWAO0-591" value="v0" style="rounded=0;whiteSpace=wrap;html=1;" vertex="1" parent="1">
          <mxGeometry x="675" y="3465" width="40" height="20" as="geometry" />
        </mxCell>
        <mxCell id="a-tTStyMwiT4IHlMWAO0-592" value="&lt;span&gt;dictEntry&lt;/span&gt;" style="rounded=0;whiteSpace=wrap;html=1;" vertex="1" parent="1">
          <mxGeometry x="635" y="3435" width="80" height="30" as="geometry" />
        </mxCell>
        <mxCell id="a-tTStyMwiT4IHlMWAO0-593" style="edgeStyle=none;rounded=0;orthogonalLoop=1;jettySize=auto;html=1;exitX=1;exitY=0.5;exitDx=0;exitDy=0;entryX=0;entryY=0.5;entryDx=0;entryDy=0;" edge="1" parent="1" source="a-tTStyMwiT4IHlMWAO0-576" target="a-tTStyMwiT4IHlMWAO0-592">
          <mxGeometry relative="1" as="geometry" />
        </mxCell>
        <mxCell id="a-tTStyMwiT4IHlMWAO0-594" value="&lt;span&gt;dictEntry&lt;/span&gt;" style="rounded=0;whiteSpace=wrap;html=1;" vertex="1" parent="1">
          <mxGeometry x="635" y="3593" width="80" height="30" as="geometry" />
        </mxCell>
        <mxCell id="a-tTStyMwiT4IHlMWAO0-595" value="k1" style="rounded=0;whiteSpace=wrap;html=1;" vertex="1" parent="1">
          <mxGeometry x="635" y="3623" width="40" height="20" as="geometry" />
        </mxCell>
        <mxCell id="a-tTStyMwiT4IHlMWAO0-596" value="v1" style="rounded=0;whiteSpace=wrap;html=1;" vertex="1" parent="1">
          <mxGeometry x="675" y="3623" width="40" height="20" as="geometry" />
        </mxCell>
        <mxCell id="a-tTStyMwiT4IHlMWAO0-597" style="edgeStyle=none;rounded=0;orthogonalLoop=1;jettySize=auto;html=1;exitX=1;exitY=0.5;exitDx=0;exitDy=0;entryX=0;entryY=0.5;entryDx=0;entryDy=0;" edge="1" parent="1" source="a-tTStyMwiT4IHlMWAO0-584" target="a-tTStyMwiT4IHlMWAO0-594">
          <mxGeometry relative="1" as="geometry" />
        </mxCell>
        <mxCell id="a-tTStyMwiT4IHlMWAO0-598" style="edgeStyle=none;rounded=0;orthogonalLoop=1;jettySize=auto;html=1;exitX=1;exitY=0.5;exitDx=0;exitDy=0;entryX=0;entryY=0.5;entryDx=0;entryDy=0;" edge="1" parent="1" source="a-tTStyMwiT4IHlMWAO0-586" target="a-tTStyMwiT4IHlMWAO0-549">
          <mxGeometry relative="1" as="geometry" />
        </mxCell>
        <mxCell id="a-tTStyMwiT4IHlMWAO0-599" value="&lt;span&gt;dictEntry&lt;/span&gt;" style="rounded=0;whiteSpace=wrap;html=1;" vertex="1" parent="1">
          <mxGeometry x="635" y="3515" width="80" height="30" as="geometry" />
        </mxCell>
        <mxCell id="a-tTStyMwiT4IHlMWAO0-600" value="k3" style="rounded=0;whiteSpace=wrap;html=1;" vertex="1" parent="1">
          <mxGeometry x="635" y="3545" width="40" height="20" as="geometry" />
        </mxCell>
        <mxCell id="a-tTStyMwiT4IHlMWAO0-601" value="v3" style="rounded=0;whiteSpace=wrap;html=1;" vertex="1" parent="1">
          <mxGeometry x="675" y="3545" width="40" height="20" as="geometry" />
        </mxCell>
        <mxCell id="a-tTStyMwiT4IHlMWAO0-602" style="edgeStyle=none;rounded=0;orthogonalLoop=1;jettySize=auto;html=1;exitX=1;exitY=0.5;exitDx=0;exitDy=0;entryX=0;entryY=0.5;entryDx=0;entryDy=0;" edge="1" parent="1" source="a-tTStyMwiT4IHlMWAO0-580" target="a-tTStyMwiT4IHlMWAO0-599">
          <mxGeometry relative="1" as="geometry" />
        </mxCell>
        <mxCell id="a-tTStyMwiT4IHlMWAO0-603" value="NULL" style="text;html=1;strokeColor=none;fillColor=none;align=center;verticalAlign=middle;whiteSpace=wrap;rounded=0;" vertex="1" parent="1">
          <mxGeometry x="480" y="3160" width="40" height="20" as="geometry" />
        </mxCell>
      </root>
    </mxGraphModel>
  </diagram>
</mxfile>
